<svg width="202" height="64" viewBox="0 0 202 64" fill="none" xmlns="http://www.w3.org/2000/svg">
<g clip-path="url(#clip0_234_197)">
<path d="M101.001 0.5C45.3095 0.5 0 14.6302 0 31.9987C0 49.3672 45.3095 63.5 101.001 63.5C156.693 63.5 202 49.3698 202 31.9987C202 14.6276 156.691 0.5 101.001 0.5Z" fill="#0078C9"/>
<path d="M65.3425 26.7899C64.9352 30.1656 62.4421 35.4781 59.7933 38.6256C56.9914 41.952 53.2868 44.0236 50.1269 44.0236C46.2562 44.0236 43.7501 42.1646 43.2494 38.9315C42.4167 33.5284 44.8086 29.476 46.9619 27.0285C49.3875 24.2724 51.2243 23.2742 53.2401 22.6261C54.174 22.3253 54.9757 22.2786 55.3726 22.2786C55.5101 22.2786 55.5853 22.2864 55.5853 22.2864L55.8837 22.3072L55.6995 22.5405C55.6528 22.5924 51.2944 28.0448 49.7118 32.1076C48.0541 36.3648 47.351 39.4293 47.6649 40.9772C47.9581 42.4213 48.617 42.8491 49.8026 42.4006C51.4993 41.7524 54.3945 38.4363 56.265 35.0114C58.011 31.8042 59.853 28.1355 60.2447 25.2473C60.5845 22.7946 60.3044 21.4075 59.4197 21.1093C58.81 20.9071 57.819 20.7801 56.8228 20.7801C56.3584 20.7801 55.9485 20.8112 55.658 20.8656C54.6877 21.0341 54.0677 21.2441 53.6655 21.3816C53.1986 21.5371 52.9547 21.6045 52.7524 21.4879C52.6071 21.4075 52.5759 21.3038 52.5785 21.2338C52.5811 21.0108 52.8691 20.8578 53.4347 20.5571C53.5436 20.4975 53.6681 20.43 53.7927 20.3626C54.628 19.9063 57.0615 19.4604 58.2626 19.4604C59.4638 19.4604 62.2501 19.6133 63.6925 21.0108C65.1946 22.4653 65.672 24.1402 65.3451 26.7925L65.3425 26.7899ZM41.3478 21.882C42.6605 20.7464 43.9317 20.3704 44.435 20.2615C44.3598 20.6038 44.2405 21.2623 44.2586 21.9494C44.2897 23.015 44.7437 23.3831 45.4338 23.8239C45.6855 23.982 45.9838 24.065 46.3159 24.065C47.2213 24.065 48.1656 23.4765 48.5262 23.2198C49.3019 22.6831 49.359 21.5682 49.071 20.7049C48.8401 20.023 47.7609 19.113 46.5779 18.9029C46.0227 18.8044 45.4053 18.7163 44.6244 18.7163C43.2365 18.7163 41.7992 19.0041 40.2271 19.5978C36.8726 20.8656 34.0397 22.7583 30.2727 28.2937C27.8393 31.8638 26.402 36.6396 26.7782 39.9116C27.0195 42.035 28.0624 43.1965 30.2701 43.7773C30.7527 43.9043 31.2897 43.9717 31.8734 43.9717C33.142 43.9717 34.6286 43.671 36.2889 43.0876C37.4538 42.678 39.812 41.1846 39.9754 40.5442C39.9962 40.456 39.965 40.399 39.9391 40.3679C39.9106 40.3368 39.8587 40.2901 39.7523 40.2901C39.5551 40.2901 39.1297 40.4638 38.3929 40.7672C37.7262 41.042 36.8986 41.3894 36.2682 41.5502C34.9399 41.8794 33.9307 41.882 33.3496 41.5631C32.7685 41.2442 32.4857 41.0368 32.3274 39.8727C32.1303 38.4363 32.9293 36.2299 34.1798 33.0332C35.5444 29.5408 39.3606 23.6009 41.3504 21.8897L41.3478 21.882ZM175.089 21.0082C173.647 19.6107 170.814 19.4578 169.664 19.4578C168.515 19.4578 166.032 19.9037 165.192 20.36C165.065 20.43 164.943 20.4949 164.831 20.5545C164.266 20.8552 163.986 21.0082 163.98 21.2312C163.98 21.3012 164.009 21.4049 164.149 21.4827C164.351 21.6019 164.595 21.5397 165.06 21.379C165.469 21.2416 166.087 21.0315 167.06 20.863C167.348 20.8112 167.76 20.7775 168.222 20.7775C169.218 20.7775 170.212 20.9045 170.819 21.1067C171.709 21.4049 171.986 22.792 171.647 25.2447C171.25 28.1355 169.408 31.8016 167.662 35.0088C165.796 38.4337 162.899 41.7498 161.202 42.398C160.016 42.8465 159.352 42.4187 159.059 40.9746C158.745 39.4242 159.456 36.3622 161.108 32.105C162.688 28.0422 167.047 22.5924 167.091 22.5379L167.278 22.3046L166.979 22.2838C166.979 22.2838 166.904 22.276 166.767 22.276C166.372 22.276 165.573 22.3227 164.634 22.6235C162.618 23.2716 160.784 24.2698 158.359 27.0259C156.203 29.4708 153.811 33.5232 154.646 38.9289C155.144 42.1646 157.653 44.021 161.524 44.021C165.192 44.021 168.801 41.0913 171.18 38.6308C174.083 35.6362 176.329 30.1553 176.737 26.7899C177.066 24.135 176.583 22.4627 175.084 21.0082H175.089ZM129.139 41.8535C129.352 41.2909 129.1 41.1561 129.046 41.1379L128.981 41.1094L128.916 41.1405C128.916 41.1405 128.789 41.2002 128.576 41.2002C128.444 41.2002 128.311 41.1794 128.171 41.1327C127.767 41.0005 127.567 40.7153 127.655 40.3938C127.759 40.0257 130.576 32.8387 131.367 31.1846C132.185 29.4863 133.726 25.5921 133.931 24.6069L133.972 24.3943C134.208 23.2872 134.6 21.4282 134.078 20.6634C133.526 19.8519 132.761 19.4578 131.71 19.45C130.566 19.45 127.85 19.8985 125.751 21.5942C124.158 22.8827 121.857 25.4547 120.752 26.7251C121.25 25.4858 122.059 23.3131 122.01 22.3979C121.88 19.9556 120.765 19.4396 119.854 19.4396C119.797 19.4396 119.735 19.4422 119.672 19.4474C117.405 19.5952 115.511 20.2148 114.038 21.2804C112.608 22.3175 109.339 25.8669 108.091 27.2359C108.41 26.2532 108.976 24.4824 109.215 23.6891C109.635 22.2994 110.047 20.7645 109.568 20.1423C109.15 19.5926 107.915 19.3956 107.183 19.3956C106.947 19.3956 106.737 19.4163 106.581 19.4526C104.4 19.9556 103.845 21.0134 103.824 21.0601L103.785 21.1378L103.832 21.2156C103.832 21.2156 104.065 21.5812 104.161 21.8716C104.26 22.1697 104.28 23.0824 104.164 23.3416C104.132 23.4168 104.018 23.7176 103.85 24.1661C103.328 25.5403 102.246 28.4026 101.512 29.9167C101.336 30.2823 101.095 30.7723 100.812 31.3401C99.5016 33.9743 97.5196 37.9593 97.2991 39.3645C97.1356 40.4016 97.0007 41.8172 97.3069 42.678C97.5689 43.4428 98.1863 43.9355 98.8998 43.9355H99.0321C99.621 43.9225 100.423 43.9069 100.916 43.6658C101.489 43.391 101.811 42.608 101.847 42.1595C101.878 41.7602 102.61 39.2038 104.537 35.644C106.34 32.3279 109.023 28.0448 111.173 25.9706C113.558 23.6631 115.122 22.499 115.828 22.499C115.885 22.499 115.931 22.5068 115.973 22.5198C116.577 22.7557 116.518 23.0305 116.393 23.6242L116.357 23.7902C116.253 24.3243 114.328 28.6541 113.176 31.2442C112.873 31.9313 112.6 32.5431 112.403 32.9917C112.154 33.5517 111.843 34.2362 111.511 34.9725C110.46 37.28 109.261 39.896 109.184 40.6479C109.085 41.5709 109.396 43.3547 110.367 43.6373C110.955 43.811 111.588 43.9069 112.12 43.9069C112.481 43.9069 112.782 43.8603 113.015 43.7695C113.711 43.5051 114.131 42.1906 114.453 40.9461C114.761 39.7405 118.295 32.0713 122.728 26.9533C125.909 23.2794 127.349 22.5094 127.987 22.5094C128.13 22.5094 128.228 22.5457 128.309 22.5768L128.345 22.5949C128.542 22.6649 128.869 22.7816 128.254 24.5991C128.013 25.3043 127.089 27.477 126.109 29.7767C124.664 33.168 123.022 37.0078 122.773 38.0111C122.093 40.762 122.018 42.5561 122.552 43.3365C122.97 43.951 123.649 44.2932 124.472 44.2932C124.838 44.2932 125.211 44.2258 125.559 44.0962C126.423 43.7669 128.929 42.3928 129.136 41.8587L129.139 41.8535ZM155.074 27.604C155.121 25.7321 155.199 22.5975 153.707 21.1871C152.231 19.7974 150.565 19.1492 148.469 19.1492C147.644 19.1492 146.736 19.2555 145.779 19.4604C141.934 20.2874 139.405 22.1231 137.332 25.5973C135.824 28.1278 133.635 33.9613 132.187 37.8167C131.681 39.1623 131.284 40.2149 131.051 40.775C130.208 42.7843 128.856 46.4556 127.982 49.1234C127.178 51.5684 125.452 53.2069 125.414 53.251C125.401 53.2718 125.299 53.4377 125.393 53.6114C125.497 53.7955 125.761 53.8862 126.207 53.8862C126.311 53.8862 126.428 53.8836 126.558 53.8681C126.726 53.8577 126.905 53.8473 127.084 53.837C128.27 53.7773 129.743 53.6944 131.137 52.3125C132.745 50.7024 135.145 45.4314 135.69 43.4247C136.242 41.3816 139.306 33.4661 140.383 30.8682C140.595 30.3575 140.798 29.8623 140.985 29.3852C141.82 27.3266 142.544 25.5428 143.459 24.2154C144.562 22.6131 146.1 21.2364 146.741 21.073L146.855 21.0445C147.159 20.9667 147.507 20.8812 147.854 20.8812C148.321 20.8812 148.682 21.0497 148.962 21.3971C149.572 22.162 149.553 22.849 149.522 24.1013L149.515 24.3632C149.483 25.7114 148.682 30.6945 147.867 33.0669L147.849 33.1161C146.985 35.6284 146.246 37.7985 144.31 39.7768C142.954 41.1665 142.069 41.8198 140.416 41.9857C139.682 42.0609 138.891 41.8302 138.279 41.6487C137.583 41.4387 137.135 41.3479 136.958 41.6072C136.93 41.6539 136.891 41.7446 136.945 41.8717C137.166 42.4161 139.156 43.4895 140.165 43.7073C140.593 43.8006 141.057 43.8447 141.545 43.8447C142.764 43.8447 143.999 43.5569 145.021 43.0332C146.757 42.1491 150.044 39.5693 151.901 36.6059C153.671 33.7928 155.033 29.7508 155.064 28.0163L155.074 27.5989V27.604ZM93.8357 41.2079C93.8565 41.2442 93.8746 41.3065 93.8435 41.3946C93.68 41.8483 91.7966 43.1706 90.8938 43.5388C89.5266 44.0988 88.5252 44.1014 87.9077 43.5647C87.3551 43.0902 87.1398 42.1802 87.0646 41.742C86.3174 42.2087 83.7568 43.7591 82.221 44.021C81.9201 44.0703 81.6114 44.0962 81.3104 44.0962C79.2142 44.0962 77.3359 42.8828 76.3994 40.9383C74.9829 37.9826 75.2164 34.4902 77.0895 30.5571C79.6319 25.2239 83.2795 22.0375 85.8504 20.8397C87.8714 19.8908 89.7185 19.45 91.6617 19.45C93.6048 19.45 94.806 19.8778 95.0991 19.9841C95.4571 19.8285 96.1732 19.5174 96.7958 19.4578C96.8555 19.4552 96.9281 19.45 97.0059 19.45C97.7531 19.45 99.0528 19.7248 99.3434 20.4612C99.7481 21.4827 99.6417 22.022 99.4601 22.9138C99.4238 23.072 99.3901 23.2509 99.3512 23.4453C99.1255 24.6769 94.5854 35.0969 93.4543 37.3578C93.2883 37.6974 93.1326 37.9982 93.0003 38.2626C92.3673 39.5253 92.1286 39.9971 92.1286 40.4535C92.1286 40.8009 92.1935 41.2183 92.5048 41.265H92.5126C92.6657 41.265 92.8395 41.2131 93.0081 41.1665C93.2027 41.1094 93.3869 41.0576 93.5348 41.0576C93.7164 41.0576 93.7968 41.1379 93.8357 41.2105V41.2079ZM91.7239 28.7811C92.8914 26.1418 93.5503 23.3494 93.4803 22.6624C93.3661 21.6279 92.318 21.1586 91.3919 21.1586C91.218 21.1586 91.052 21.1767 90.9041 21.2104C90.3671 21.3375 89.6148 21.7212 87.8117 23.645C85.4769 26.1651 83.1757 29.813 81.9512 32.932C80.9783 35.4107 80.0911 37.8348 79.9588 40.2797C79.8732 41.9443 80.7864 42.2191 81.0717 42.2658C81.1003 42.2683 81.1288 42.2683 81.1599 42.2683C82.0109 42.2683 84.0707 40.9461 85.7882 38.973C87.8455 36.6059 90.6706 31.169 91.7265 28.7811H91.7239ZM68.7125 41.5528C68.4816 41.2442 68.6087 40.4949 68.8656 39.9557C69.1354 39.3853 75.7897 23.4168 76.415 21.9105L80.4725 21.6849C80.5399 21.6745 82.1224 21.3971 83.4222 20.6089C84.7089 19.8233 84.9295 19.437 84.9476 19.3956L85.0644 19.1622L77.3645 19.45L78.2076 17.241C78.2154 17.1814 78.4385 15.828 78.301 15.1383C78.0805 14.0883 77.6991 13.5101 77.1569 13.4323C76.5369 13.3364 75.8312 13.269 75.1671 13.4349C74.4485 13.6086 73.8103 13.7046 73.8025 13.7072L73.6858 13.7201L73.4938 15.4547L72.0176 19.4526H68.0483L67.4309 21.9364L70.9228 21.9105L64.5694 37.0363C64.5279 37.1348 63.5135 39.4527 63.3293 40.7024C63.2255 41.3739 63.0803 43.0099 63.9001 43.5621C64.2762 43.8162 64.7328 43.9406 65.2984 43.9406C65.7835 43.9406 66.2687 43.8473 66.6396 43.7721C67.5035 43.5906 69.0575 42.8984 69.374 42.6391L69.8514 42.2398L69.6075 42.1439C69.4259 42.0739 68.9174 41.8224 68.7073 41.5502L68.7125 41.5528Z" fill="white"/>
</g>
<defs>
<clipPath id="clip0_234_197">
<rect width="202" height="63" fill="white" transform="translate(0 0.5)"/>
</clipPath>
</defs>
</svg>
