<svg width="427" height="137" viewBox="0 0 427 137" fill="none" xmlns="http://www.w3.org/2000/svg">
<path d="M51.225 31.5928C50.2636 31.5928 49.3288 31.2465 48.5543 30.5806L35.8415 19.0996C34.613 18.0074 34.2123 16.2493 34.7999 14.7309C35.3875 13.1859 36.8564 12.2003 38.5123 12.2003H46.5512C47.6996 12.2003 48.6344 11.2679 48.6344 10.1225C48.6344 8.97706 47.6996 8.04472 46.5512 8.04472H33.4912C31.3012 8.04472 29.5118 6.25996 29.5118 4.07564C29.5118 1.89131 31.2745 0.0799144 33.4645 0.0799144H46.5245C52.053 0.0799144 56.5666 4.58176 56.5666 10.0959C56.5666 14.9174 53.1213 18.9397 48.581 19.8987L53.8958 24.6936C55.525 26.1587 55.6585 28.6626 54.1629 30.2876C53.3884 31.14 52.2934 31.5928 51.225 31.5928Z" fill="white"/>
<path d="M27.1616 14.0383C28.2833 14.0383 29.1913 14.4112 29.9124 15.1571C30.6335 15.903 30.9807 16.8619 30.9807 18.0074C30.9807 19.7122 30.5801 21.3372 29.7789 22.9088C28.9777 24.4805 27.8827 25.8923 26.4672 27.1443C25.0784 28.3963 23.4225 29.3819 21.5797 30.1277C19.7102 30.8736 17.7338 31.2465 15.5972 31.2465C13.4606 31.2465 11.4041 30.847 9.53459 30.0212C7.63835 29.2221 5.98249 28.1032 4.56699 26.6914C3.15149 25.2796 2.05648 23.6547 1.22855 21.7634C0.400613 19.8721 0 17.8476 0 15.6899C0 13.5322 0.400613 11.5077 1.22855 9.61637C2.05648 7.72506 3.15149 6.0735 4.56699 4.66168C5.98249 3.24985 7.63835 2.13105 9.53459 1.30527C11.4041 0.506125 13.4339 0.106553 15.5972 0.106553C17.0127 0.106553 18.2412 0.213105 19.3363 0.452849C20.4313 0.692592 21.3927 0.985611 22.2474 1.35855C23.102 1.73148 23.8498 2.15769 24.4641 2.66381C25.1051 3.1433 25.6392 3.64943 26.12 4.18219C26.574 4.74159 26.9479 5.22108 27.2684 5.67393C27.5889 6.10014 27.7224 6.71281 27.7224 7.45868C27.7224 8.55085 27.3485 9.48318 26.6007 10.2024C25.8529 10.9216 24.8914 11.2679 23.743 11.2679C22.7014 11.2679 21.8201 10.9483 21.1524 10.3356C20.2176 9.45654 19.3363 8.84387 18.5884 8.47093C17.8139 8.098 16.8257 7.93817 15.6239 7.93817C14.5556 7.93817 13.5407 8.15127 12.5792 8.55085C11.6445 8.95042 10.7898 9.50982 10.0687 10.229C9.34764 10.9483 8.78678 11.7741 8.38617 12.733C7.98555 13.6654 7.77189 14.6776 7.77189 15.7698C7.77189 16.8619 7.98555 17.8476 8.38617 18.8065C8.78678 19.7389 9.34764 20.5913 10.0687 21.3105C10.7898 22.0297 11.6178 22.5892 12.5792 22.9887C13.514 23.3883 14.5289 23.6014 15.6239 23.6014C16.1046 23.6014 16.6121 23.5481 17.1195 23.4682C17.627 23.3883 18.1077 23.2551 18.5884 23.042C19.0692 22.8555 19.4698 22.5891 19.8437 22.2695C20.1909 21.9498 20.4847 21.5503 20.6716 21.0974H17.627C16.4785 21.0974 15.5705 20.7778 14.8761 20.1118C14.1817 19.4725 13.8345 18.5668 13.8345 17.4213C13.8345 16.2759 14.1817 15.3969 14.9028 14.8374C15.5972 14.3047 16.5053 14.0383 17.627 14.0383H27.1616Z" fill="white"/>
<path d="M96.4676 21.1773V27.4373C96.4676 28.5561 96.0937 29.4618 95.3459 30.181C94.5981 30.9003 93.6366 31.2465 92.4882 31.2465C91.3398 31.2465 90.4584 30.8736 89.7373 30.181C89.0162 29.4618 88.669 28.5561 88.669 27.4373V3.80926C88.669 2.71709 89.0429 1.78476 89.7907 1.06553C90.5385 0.346296 91.5 0 92.6217 0H105.308C106.483 0 107.658 0.266382 108.806 0.825783C109.955 1.38518 111.023 2.13105 111.958 3.09003C112.893 4.049 113.641 5.1678 114.228 6.44643C114.816 7.72506 115.109 9.08361 115.109 10.4954C115.109 12.0404 114.816 13.4523 114.228 14.7575C113.641 16.0628 112.893 17.1816 111.958 18.1406C111.023 19.0996 109.982 19.8188 108.806 20.3782C107.658 20.9109 106.483 21.1773 105.308 21.1773H96.4409H96.4676ZM96.4676 7.77834V13.399H105.334C105.682 13.3724 106.029 13.2658 106.323 13.0527C106.59 12.8929 106.83 12.5998 107.044 12.2269C107.257 11.8273 107.364 11.2679 107.364 10.5221C107.364 9.82948 107.257 9.29671 107.044 8.92378C106.83 8.55085 106.59 8.28446 106.323 8.12464C106.029 7.93817 105.708 7.80498 105.334 7.77834H96.4676Z" fill="white"/>
<path d="M132.496 0.106553C134.659 0.106553 136.689 0.506125 138.585 1.33191C140.482 2.15769 142.137 3.24985 143.553 4.68831C144.968 6.10014 146.09 7.7517 146.918 9.64301C147.719 11.5343 148.147 13.5588 148.147 15.7165C148.147 17.8742 147.746 19.8987 146.918 21.79C146.09 23.6813 144.968 25.3329 143.553 26.7447C142.137 28.1565 140.482 29.2487 138.585 30.0745C136.689 30.9003 134.659 31.2998 132.496 31.2998C130.333 31.2998 128.303 30.9003 126.407 30.0745C124.511 29.2487 122.855 28.1565 121.466 26.7447C120.05 25.3329 118.955 23.6813 118.127 21.79C117.299 19.8987 116.899 17.8742 116.899 15.7165C116.899 13.5588 117.299 11.5343 118.127 9.64301C118.955 7.7517 120.05 6.10014 121.466 4.68831C122.881 3.27649 124.511 2.15769 126.407 1.33191C128.303 0.506125 130.333 0.106553 132.496 0.106553ZM124.697 15.7431C124.697 16.8087 124.911 17.8209 125.312 18.7799C125.712 19.7389 126.273 20.5646 126.994 21.2839C127.715 22.0031 128.543 22.5625 129.505 22.9621C130.466 23.3617 131.454 23.5748 132.549 23.5748C133.644 23.5748 134.633 23.3617 135.594 22.9621C136.529 22.5625 137.384 22.0031 138.078 21.2839C138.799 20.5646 139.36 19.7389 139.761 18.7799C140.161 17.8476 140.375 16.8353 140.375 15.7431C140.375 14.651 140.161 13.6654 139.761 12.7064C139.36 11.7474 138.799 10.9216 138.078 10.2024C137.357 9.48318 136.529 8.92378 135.594 8.52421C134.633 8.12464 133.618 7.91153 132.549 7.91153C131.481 7.91153 130.466 8.12464 129.505 8.52421C128.543 8.92378 127.715 9.48318 126.994 10.2024C126.273 10.9216 125.712 11.7474 125.312 12.7064C124.911 13.6387 124.697 14.651 124.697 15.7431Z" fill="white"/>
<path d="M72.4842 31.5396H72.4575C65.8074 31.5396 59.0771 26.425 59.0504 16.6755V4.18219C59.0504 1.91795 60.8932 0.0799144 63.1633 0.0799144C65.4334 0.0799144 67.2763 1.91795 67.2763 4.18219V16.6755C67.2763 21.6035 70.0806 23.335 72.4575 23.3617C74.8879 23.3617 77.7456 21.6035 77.7723 16.6755V4.23547C77.7723 1.97122 79.6152 0.133191 81.8853 0.133191C84.1554 0.133191 85.9983 1.97122 85.9983 4.23547V16.6755C85.9448 26.4517 79.1611 31.5396 72.4575 31.5396" fill="white"/>
<path d="M220.738 136.227C219.482 136.227 218.521 136.174 217.88 136.148C192.268 135.881 171.489 114.997 171.489 89.371C171.489 63.7451 192.535 42.5944 218.387 42.5944C233.451 42.5944 247.151 49.174 255.992 60.6817C259.998 65.9028 259.036 73.3881 253.802 77.3838C248.567 81.4062 241.062 80.4206 237.056 75.1995C232.756 69.6321 225.946 66.4355 218.387 66.4355C205.701 66.4355 195.366 76.7179 195.366 89.3976C195.366 102.077 205.701 112.36 218.387 112.36C218.842 112.36 219.082 112.36 219.509 112.413C220.31 112.466 230.112 112.919 237.27 107.005C242.344 102.797 249.876 103.489 254.095 108.524C258.315 113.585 257.621 121.097 252.573 125.306C240.929 135.002 227.201 136.281 220.764 136.281" fill="white"/>
<path d="M305.828 137C279.708 137 258.475 115.823 258.475 89.7706C258.475 63.7185 279.708 42.5411 305.828 42.5411C331.948 42.5411 353.18 63.7185 353.18 89.7706C353.18 115.823 331.948 137 305.828 137ZM305.828 66.3823C292.901 66.3823 282.379 76.8777 282.379 89.7706C282.379 102.663 292.901 113.159 305.828 113.159C318.754 113.159 329.277 102.663 329.277 89.7706C329.277 76.8777 318.754 66.3823 305.828 66.3823Z" fill="white"/>
<path d="M410.922 136.201C408.064 136.201 405.207 135.189 402.91 133.137L364.691 98.6411C361.032 95.3379 359.777 90.1169 361.567 85.5085C363.329 80.9267 367.763 77.8899 372.704 77.8899H396.847C400.292 77.8899 403.097 75.0929 403.097 71.6566C403.097 68.2203 400.292 65.4233 396.847 65.4233H357.587C350.99 65.4233 345.649 60.0957 345.649 53.516C345.649 46.9364 350.99 41.6088 357.587 41.6088H396.847C413.486 41.6088 427 55.0877 427 71.6833C427 86.1744 416.691 98.2948 402.99 101.118L418.908 115.503C423.795 119.925 424.169 127.464 419.736 132.338C417.385 134.922 414.127 136.254 410.869 136.254" fill="white"/>
<path d="M166.495 136.76H153.248C136.128 136.76 125.071 124.533 125.071 105.594V54.6615C125.071 47.9753 130.493 42.5678 137.223 42.5678C143.954 42.5678 149.349 47.9753 149.349 54.6615V105.594C149.349 111.161 153.168 112.546 155.972 112.546H166.495C173.198 112.546 178.62 117.954 178.62 124.64C178.62 131.326 173.172 136.734 166.495 136.734" fill="white"/>
<path d="M92.8621 106.846C85.7312 112.786 75.9028 112.306 75.1016 112.253C74.6743 112.2 74.4339 112.2 73.9799 112.2C67.1961 112.2 61.1335 109.243 56.9137 104.608H29.6988C36.0285 122.722 53.2281 135.828 73.4724 136.041C74.1134 136.094 75.1016 136.121 76.3301 136.121C82.7666 136.121 96.4676 134.842 108.139 125.146C113.213 120.937 113.881 113.425 109.661 108.364C105.441 103.303 97.9098 102.637 92.8354 106.846" fill="white"/>
<path d="M74.0066 42.4612C52.694 42.4612 34.6664 56.7126 28.9777 76.1318H12.9799C6.3831 76.1318 1.04159 81.4595 1.04159 88.0391C1.04159 94.6187 6.3831 99.9463 12.9799 99.9463H108.967C115.563 99.9463 120.905 94.6187 120.905 88.0391C120.905 62.4665 100.313 42.4346 74.0066 42.4346M55.1243 76.1052C59.2907 70.1649 66.208 66.2491 74.0066 66.2491C82.4194 66.2491 89.4969 70.085 93.5031 76.1052H55.1243Z" fill="white"/>
</svg>
