<svg width="24" height="24" viewBox="0 0 24 24" fill="none" xmlns="http://www.w3.org/2000/svg">
<path d="M12 24C9.62666 24 7.30661 23.2962 5.33324 21.9777C3.35987 20.6591 1.8218 18.7851 0.913525 16.5924C0.0052509 14.3997 -0.232434 11.987 0.230525 9.65921C0.693485 7.33146 1.8363 5.19326 3.51445 3.515C5.1926 1.83674 7.33072 0.693787 9.65844 0.230677C11.9862 -0.232434 14.3989 0.00509545 16.5917 0.913228C18.7844 1.82136 20.6586 3.35931 21.9773 5.3326C23.2959 7.30588 23.9998 9.62588 24 11.9992C24 15.1819 22.7357 18.2342 20.4853 20.4848C18.2349 22.7353 15.1827 23.9998 12 24ZM21.729 10.994C21.7386 10.9885 21.7468 10.981 21.7533 10.972C21.7597 10.963 21.7642 10.9528 21.7663 10.9419C21.7799 11.0232 21.8205 11.0974 21.8815 11.1528C21.8815 11.1605 21.8815 11.159 21.8815 11.1691C21.8815 11.1792 21.8916 11.1644 21.897 11.1644C21.9611 11.2185 22.0419 11.2488 22.1258 11.25C22.1887 11.2489 22.2504 11.2318 22.3048 11.2002C22.3593 11.1686 22.4048 11.1236 22.437 11.0695C22.4426 11.0751 22.4478 11.0811 22.4525 11.0874C22.4525 11.0757 22.4525 11.0633 22.4525 11.0516C22.4839 10.998 22.5011 10.9372 22.5023 10.875C22.5021 10.7756 22.4626 10.6803 22.3923 10.6101C22.322 10.5398 22.2267 10.5002 22.1273 10.5C22.065 10.5005 22.0038 10.5167 21.9494 10.5472C21.895 10.5777 21.8491 10.6214 21.8161 10.6743C21.8161 10.6743 21.8161 10.6634 21.8076 10.6657C21.8056 10.6018 21.7857 10.5398 21.75 10.4868V10.8758C21.7492 10.916 21.7421 10.9559 21.729 10.994ZM4.49378 10.8812C4.49378 10.7676 4.23548 10.5755 4.16935 10.5755C4.16935 10.5552 4.06432 10.3242 4.02464 10.3242C4.02464 10.2464 3.75078 9.89627 3.70721 10.0488C3.67843 10.1476 3.9165 10.2822 3.9165 10.3958C3.96084 10.3958 4.1499 10.7482 4.18336 10.8097C4.58948 11.4966 3.87993 11.0275 3.87993 10.7365C3.75721 10.6004 3.6762 10.4319 3.64653 10.251C3.56259 10.1354 3.49504 10.0087 3.4458 9.87449C3.4458 9.65586 3.32521 9.55083 3.08481 9.55083C3.07392 9.52905 2.87163 9.24585 2.86774 9.24585C2.82873 9.08528 2.74062 8.94087 2.61567 8.83273C2.57656 8.63159 2.55883 8.42687 2.56276 8.222C2.57063 8.00529 2.54438 7.78869 2.48496 7.58014C1.86941 8.89664 1.53478 10.3269 1.50237 11.7799C1.46996 13.2328 1.74049 14.6766 2.29672 16.0192C2.85295 17.3618 3.6827 18.5739 4.73312 19.5783C5.78353 20.5826 7.0316 21.3572 8.39783 21.8527C8.40249 21.4808 8.42972 21.035 8.51453 21.035C8.51453 20.9798 8.56199 20.7472 8.60478 20.7472C8.61343 20.5854 8.61343 20.4234 8.60478 20.2617C8.55187 20.1543 8.67557 20.0174 8.71292 19.8485C8.92065 19.7443 8.7736 18.6987 8.93076 18.6987C8.98276 18.2634 8.99448 17.8243 8.96577 17.3869C9.00545 17.3869 8.73237 17.0936 8.73237 17.0991C8.46785 17.0991 8.28268 16.6743 8.28268 16.4883C8.23813 16.3915 8.20748 16.2888 8.19165 16.1834C8.25234 16.1834 7.81276 15.5415 7.81276 15.5539C7.57936 15.4248 7.82521 15.2427 7.84855 15.0335C7.64705 14.9665 7.84855 14.4219 7.9388 14.4219C7.94162 14.3902 7.95334 14.36 7.97261 14.3347C7.99188 14.3093 8.01792 14.29 8.04772 14.2788C8.09285 14.4577 8.30213 14.1893 8.13797 14.1893C8.13797 14.0711 8.12474 13.8174 8.13797 13.7583C8.13797 13.5755 7.97614 13.2137 7.85011 13.5965C7.71473 13.5296 7.37474 13.542 7.34518 13.3273C7.36619 13.2215 7.15068 13.0052 7.07521 12.9678C7.14601 12.7835 6.71033 12.5368 6.55239 12.5368C6.55239 12.4971 6.46914 12.515 6.44425 12.4645C6.28398 12.4645 6.24663 12.2482 6.06536 12.2482C5.85607 12.2482 5.64523 12.105 5.45229 12.105C5.38771 11.9767 5.08818 12.0272 5.01971 11.8887C4.86411 11.8887 4.80109 11.5915 4.7972 11.4826C4.7902 11.3473 4.68284 10.8812 4.49534 10.8812H4.49378ZM19.6859 4.86256C19.6852 4.86841 19.683 4.874 19.6797 4.87889C19.6906 4.87889 19.7046 4.89134 19.7171 4.89679C19.7062 4.8859 19.6968 4.87423 19.6859 4.86256ZM19.9116 5.11074C19.9365 5.1487 19.9503 5.19292 19.9512 5.23833C19.9777 5.23833 19.9901 5.22511 20.0112 5.21966C19.9793 5.18232 19.9442 5.14809 19.9116 5.1123V5.11074ZM20.562 8.52775C20.5737 8.2041 20.292 8.25778 20.2025 8.07806C20.1092 8.07806 20.0757 8.00571 19.9497 8.00571C19.9157 7.99075 19.8776 7.9884 19.8421 7.9991C19.8065 8.0098 19.776 8.03284 19.756 8.06406C19.563 8.13719 19.6782 7.96992 19.535 7.96992C19.542 7.78476 19.4681 7.73652 19.2643 7.75363C19.1476 8.01738 18.9671 8.17609 18.9943 8.47251C19.0807 8.49196 19.0659 8.51141 19.048 8.59777C19.1623 8.604 19.8587 8.56199 19.8587 8.48963C19.8828 8.48963 20.0034 8.73781 20.0034 8.52542C20.0998 8.52542 20.1512 8.7526 20.3823 8.68647C20.3823 8.73315 20.7713 8.5262 20.5612 8.5262L20.562 8.52775ZM20.5986 12.3548C20.6118 12.2886 20.5659 12.2599 20.5262 12.1929C20.6289 12.1929 20.2018 11.4002 20.2018 11.2765C20.1364 11.2446 20.0532 11.0174 20.0384 10.9349C19.9378 10.8348 19.8635 10.7113 19.8221 10.5755C19.6766 10.4526 19.5597 10.2994 19.4798 10.1266C19.6089 10.1406 19.8034 10.167 19.8034 10.0005C19.7163 10.0005 19.7038 9.89316 19.7863 9.89316C19.7591 9.78268 19.8447 9.70332 19.8641 9.61696C19.899 9.48977 19.9214 9.35949 19.931 9.22796C19.8441 9.2272 19.758 9.24553 19.6789 9.28164C19.6789 9.35478 19.4595 9.26375 19.4269 9.26375C19.3794 9.16961 19.0379 9.38667 18.9406 9.19139C18.785 9.05135 18.827 8.94321 18.7772 8.74482C18.7516 8.64445 18.6146 8.63823 18.5314 8.62189C18.298 8.57599 18.466 8.90197 18.4536 8.97589C18.5975 8.97589 18.3626 9.15405 18.3626 9.24508C18.1198 9.19295 18.2007 8.9222 18.0576 8.84985C18.0148 8.77749 18.0482 8.72381 17.9487 8.72381C17.9487 8.62812 18 8.45384 17.895 8.41883C17.895 8.37215 17.6911 8.35348 17.6616 8.29279C17.5324 8.29279 17.2329 7.80498 17.1403 7.96992C17.0827 8.07495 17.1893 8.10063 17.2111 8.18621C17.3978 8.14964 17.3799 8.49741 17.6079 8.4554C17.608 8.50388 17.6137 8.55218 17.625 8.59933C17.7938 8.55965 17.7744 8.72459 17.8584 8.72459C17.7969 8.80628 17.6017 8.59388 17.6553 8.77283C17.6865 8.8763 17.6686 8.96499 17.5348 9.06613C17.5348 8.9541 17.5254 8.65301 17.4087 8.65301C17.3309 8.49741 17.0928 8.53242 16.9933 8.38382C16.9155 8.38382 16.8804 8.13175 16.7412 8.11463C16.6962 8.15569 16.6392 8.18108 16.5786 8.18699C16.5008 8.34259 16.0744 8.20255 16.0744 8.22277C16.0674 8.22277 15.8348 8.79461 15.8208 8.8693C15.7943 9.03035 15.6652 9.03346 15.6255 9.18673C15.6061 9.26453 15.1354 9.22718 15.1354 9.2832C15.0342 9.26186 14.9426 9.20836 14.8743 9.13067C14.806 9.05299 14.7647 8.95529 14.7565 8.85218C14.76 8.63456 14.7845 8.41779 14.8296 8.20488C14.8709 8.21577 14.8794 8.23055 14.9028 8.27723C15.0272 8.23055 15.3174 8.30835 15.3174 8.16909C15.4383 8.1722 15.4743 8.22018 15.4256 8.31302C15.5384 8.33403 15.7321 8.36281 15.7321 8.20488C15.666 8.20488 15.659 8.19866 15.659 8.13252C15.8753 7.90846 15.4971 7.7054 15.4971 7.59414C15.4193 7.56847 15.2637 7.40275 15.3758 7.46499C15.4699 7.51712 15.8122 7.6206 15.6776 7.39575C15.6817 7.39459 15.6854 7.39241 15.6884 7.38941C15.6914 7.38642 15.6936 7.38271 15.6948 7.37863C15.7329 7.40587 15.8939 7.57158 15.8939 7.41442C15.9383 7.41442 16.1094 7.30628 15.9663 7.30628C15.9795 7.22848 15.9764 7.15768 15.9834 7.10789C16.2121 7.23081 16.0845 7.02386 16.2005 6.94684C16.2005 7.09622 16.3234 6.87449 16.3989 6.87449C16.4883 6.74145 16.6922 6.84414 16.742 6.69477C16.6315 6.65898 16.6517 6.38356 16.6517 6.28242C16.7848 6.30421 16.9326 6.10348 16.9528 6.24119C16.9606 6.29409 16.9668 6.44113 16.994 6.46136C17.1917 6.56484 17.1387 6.40223 17.1387 6.30032C17.0726 6.30032 16.9831 6.06691 16.9761 5.95799C16.9225 5.96577 16.8353 5.98833 16.8135 6.02957C16.6167 6.02957 16.4837 5.95799 16.3273 5.95799C16.2633 5.88341 16.2033 5.8055 16.1476 5.72459C16.0379 5.53631 16.2573 5.59077 16.2915 5.58221C16.2915 5.40405 17.0345 5.43517 17.0695 5.15042C16.8252 5.15042 17.3216 4.73652 17.3216 4.73808C17.4873 4.59648 17.5752 4.47433 17.7814 4.45799C17.8685 4.45177 18.8356 4.18491 18.8356 4.30239C18.8745 4.30239 19.0036 4.30239 19.1375 4.31017C17.2313 2.53019 14.7286 1.52698 12.1208 1.49747C9.51293 1.46796 6.98822 2.41429 5.04228 4.15068C5.05823 4.18142 5.06801 4.21499 5.07106 4.24949C5.16909 4.24248 5.31069 4.17947 5.34181 4.30395C5.29326 4.30341 5.24495 4.29715 5.19788 4.28527C5.23211 4.5638 5.07651 4.39342 4.9458 4.39342C4.9092 4.37093 4.8689 4.35512 4.82677 4.34674C4.78709 4.38408 4.74508 4.41987 4.7054 4.45721C4.71007 4.46888 4.7054 4.46966 4.71084 4.48367C4.75286 4.48367 4.73107 4.54902 4.85089 4.5887C4.99368 4.63303 5.13994 4.6653 5.28813 4.68517C5.38458 4.68791 5.48105 4.68061 5.57599 4.66339C5.57599 4.6486 5.8234 4.53813 5.64912 4.53813C5.67246 4.43932 5.62423 4.41209 5.52153 4.41209C5.53087 4.30706 5.78061 4.3763 5.88252 4.3763C5.96033 4.24482 5.88252 4.26116 5.9541 4.1429C6.03657 3.99663 6.1346 4.12345 6.1875 3.98341C6.23059 3.99436 6.27 4.01656 6.30171 4.04772C6.33342 4.07888 6.3563 4.1179 6.368 4.16079C6.43335 4.21448 6.76479 4.7054 6.76479 4.35841C6.88304 4.39809 6.94217 4.61982 6.94451 4.73652C7.16001 4.7054 7.17791 4.54357 7.17791 4.3763C7.2277 4.3763 7.16001 4.2985 7.16001 4.26816C7.23782 4.23859 7.34051 4.34596 7.34051 4.23315C7.37474 4.23315 7.3763 4.26738 7.3763 4.3055C7.48833 4.32729 7.55991 4.29305 7.62838 4.31639C7.67583 4.33273 7.65172 4.57781 7.62838 4.66416C7.60115 4.77386 7.39497 4.77542 7.39497 4.82599C7.16157 5.00338 7.67506 5.09518 7.75597 5.20332C7.67706 5.20094 7.59871 5.18919 7.52257 5.16831C7.40586 5.16831 7.12189 5.29202 7.01764 5.20332C7.16313 5.20332 7.21214 5.02827 7.2347 4.86178C7.20219 4.85051 7.16774 4.84587 7.1334 4.84814C7.09906 4.85041 7.06553 4.85954 7.03478 4.87498C7.00402 4.89043 6.97668 4.91189 6.95436 4.93808C6.93204 4.96428 6.9152 4.99468 6.90483 5.02749C6.84181 5.24767 6.69554 5.01816 6.62241 5.16676C6.59362 5.17609 6.33377 5.29669 6.33377 5.25623C6.04124 5.29746 6.11748 5.54565 6.11748 5.81328C6.23341 5.8833 6.46992 6.08169 6.45981 6.19062C6.722 6.2373 6.81847 6.26842 7.0542 6.29876C7.09226 6.34256 7.14273 6.37376 7.19892 6.38823C7.19892 6.54383 7.33896 6.51505 7.46888 6.51505C7.46888 6.31743 7.6984 6.6792 7.72096 6.74845C7.68984 6.74845 7.77464 6.94995 7.79331 7.01842C7.75752 7.00597 7.74585 7.01842 7.75752 7.05421C7.87189 7.09622 8.05239 7.08455 8.08195 6.96396C7.97225 6.96396 8.00882 6.8387 8.00882 6.76556C7.9843 6.75384 7.96387 6.735 7.95021 6.7115C7.93654 6.688 7.93026 6.66094 7.93219 6.63382C7.93412 6.60671 7.94417 6.5808 7.96103 6.55948C7.97789 6.53816 8.00078 6.5224 8.02672 6.51427C8.02672 6.61619 8.39783 6.45047 8.18854 6.37111C8.22123 6.3115 8.23836 6.2446 8.23836 6.17661C8.23836 6.10862 8.22123 6.04173 8.18854 5.98211C8.13564 5.91909 8.06873 5.98211 8.04228 5.88797C8.18387 5.85296 8.07962 5.58299 8.07806 5.45695C8.12319 5.43984 8.23989 5.48574 8.23989 5.45695C8.37838 5.45695 8.60944 5.63278 8.69036 5.42039C8.92376 5.5262 8.73781 5.62656 8.979 5.54643C9.0567 5.6749 9.16127 5.78504 9.28553 5.8693C9.28553 5.88175 9.27853 5.95955 9.33844 5.95955C9.33844 6.01712 9.30265 5.92687 9.30265 6.03112C9.3361 6.03112 9.51971 6.06769 9.51971 5.99611C9.63564 5.99611 9.71811 5.85374 9.71811 5.74482C9.79124 5.69736 9.91805 6.14005 10.006 6.14005C10.0705 6.24041 10.2767 6.38667 10.2767 6.48159C10.3203 6.52594 10.3662 6.51349 10.3662 6.64342C10.4206 6.64342 10.5288 6.42791 10.5288 6.62552C10.5774 6.6402 10.6221 6.66557 10.6597 6.69976C10.6972 6.73395 10.7267 6.7761 10.7459 6.82314C10.6159 6.82314 10.7389 6.94917 10.6727 6.94917C10.6727 7.07366 10.3942 6.97485 10.3312 6.96707C10.2448 7.35607 9.72433 7.07599 9.40924 7.17557C9.17191 7.30502 8.99216 7.51923 8.90586 7.77542C9.10659 7.77542 9.19528 7.60115 9.37267 7.54202C9.51894 7.54202 9.54772 7.45332 9.6792 7.41676C9.6792 7.45332 9.71499 7.43387 9.71499 7.47044C9.45825 7.47044 9.61463 7.63616 9.68932 7.75675C9.72443 7.81796 9.77929 7.86541 9.84492 7.89134C9.82004 7.93423 9.7997 7.97961 9.78424 8.02672C9.73522 8.04305 9.6403 8.07884 9.62163 8.11696C9.33144 8.14886 9.47459 8.12941 9.49404 8.06017C9.50415 8.08507 9.60841 8.06017 9.60452 8.06017C9.5874 7.97303 9.56095 7.98237 9.58662 7.93491C9.43102 7.93491 9.35322 8.00727 9.22563 8.00727C9.20462 8.05006 9.09414 8.1512 9.04591 8.1512C9.00728 8.29358 8.93251 8.42356 8.82884 8.52853C8.82884 8.49897 8.5721 8.68958 8.59544 8.68958C8.53864 8.78216 8.4764 8.77905 8.45073 8.92298C8.40882 9.01455 8.3785 9.11099 8.36048 9.21007C8.24845 9.28787 8.20488 9.5874 8.01738 9.5874C7.90146 9.8208 7.69295 9.78735 7.69295 10.0908C7.75881 10.2475 7.799 10.4138 7.81199 10.5833C7.83922 10.7101 7.88123 10.8423 7.71162 10.8447C7.69995 10.826 7.58092 10.6463 7.6027 10.6463C7.57884 10.5089 7.53006 10.3771 7.45877 10.2573C7.38719 10.1577 7.25571 10.2728 7.15223 10.2293C7.10789 10.1406 6.80835 10.1211 6.70255 10.1211C6.71966 10.188 6.76868 10.209 6.7749 10.2829C6.70531 10.3272 6.62395 10.3495 6.5415 10.3467C6.3859 10.325 6.40379 10.2028 6.23029 10.2199C6.10006 10.2336 5.97974 10.2957 5.89325 10.394C5.80675 10.4924 5.76043 10.6196 5.76349 10.7505C5.73276 10.9289 5.73276 11.1113 5.76349 11.2897C5.76349 11.4453 5.88953 11.5519 5.88953 11.667C6.01167 11.667 6.14938 11.9362 6.26842 11.9362C6.28164 12.0311 6.20851 12.0467 6.41235 12.0451C6.41235 12.035 6.5236 11.9751 6.53839 11.9012C6.39757 11.867 6.53839 11.6849 6.62863 11.6499C6.62863 11.7783 6.80835 11.6071 6.80835 11.5962C6.82858 11.5877 7.00675 11.5239 7.00675 11.5239C7.00675 11.3784 7.14212 11.5379 7.04254 11.5962C6.94528 11.5962 6.95229 11.758 6.8986 11.758C6.87526 11.8732 6.82936 11.9743 6.80291 12.0864C6.76868 12.2248 6.88071 12.242 6.84492 12.3688C6.98878 12.3826 7.13364 12.3826 7.27749 12.3688C7.27886 12.3434 7.27263 12.3182 7.2596 12.2964C7.46888 12.2964 7.27749 12.6917 7.40431 12.6917C7.40431 12.841 7.47666 12.957 7.47666 13.0511C7.525 13.0751 7.56377 13.1148 7.58666 13.1637C7.60954 13.2126 7.6152 13.2678 7.6027 13.3203C7.72251 13.3358 7.98081 13.367 7.98081 13.2121C8.16287 13.2121 8.17609 13.3358 8.16209 13.4634C8.52542 13.4634 8.29746 13.104 8.44917 13.104C8.46318 13.0449 8.48807 13.034 8.52697 13.0729C8.60478 13.1126 8.65768 12.9951 8.71681 12.9624C8.74694 12.9417 8.7793 12.9245 8.81328 12.9111C8.86463 12.9422 8.86852 12.9328 8.89108 12.9671C8.99446 12.9567 9.09272 12.9171 9.17428 12.8527C9.3042 12.8683 9.26219 13.1476 9.50493 13.1639C9.64054 13.1885 9.78007 13.1802 9.91183 13.1398C9.93284 13.1258 10.0099 13.1888 10.0184 13.2176C10.0962 13.2176 10.0962 13.2884 10.1281 13.2868C10.1309 13.2938 10.1362 13.2994 10.143 13.3026C10.1498 13.3058 10.1576 13.3063 10.1647 13.3039C10.1748 13.3351 10.2425 13.3436 10.2736 13.4292C10.2736 13.507 10.4354 13.521 10.4354 13.5724C10.5514 13.6307 10.3958 13.6502 10.5739 13.7007C10.6684 13.7416 10.7673 13.7712 10.8688 13.7886C10.9022 13.6603 11.0119 13.8058 11.0672 13.8058C11.096 13.8641 11.1107 13.8198 11.1387 13.8781C11.306 14.0174 11.1955 13.9637 11.2648 14.1115C11.3426 14.1636 11.3706 14.3449 11.3924 14.4531C11.3278 14.4531 11.3737 14.6997 11.3737 14.723C11.2959 14.723 11.5729 14.8709 11.5729 14.6865C11.6872 14.7051 11.7619 14.8296 11.8428 14.8296C11.7954 14.9385 11.9689 15.0202 11.9689 14.8483C12.14 14.8654 12.0941 15.1206 12.0778 15.2077C12.2046 15.2077 12.2412 15.1369 12.3493 15.1237C12.4659 15.0437 12.6032 14.9991 12.7446 14.9953C12.8431 14.9952 12.9406 15.0146 13.0317 15.0522C13.1227 15.0899 13.2055 15.1451 13.2751 15.2148C13.3448 15.2844 13.4 15.3672 13.4377 15.4582C13.4753 15.5492 13.4947 15.6468 13.4946 15.7453C13.493 15.9224 13.428 16.0931 13.3114 16.2265C13.1948 16.3598 13.0343 16.4469 12.8589 16.472C12.8294 16.5076 12.7979 16.5416 12.7648 16.5739C12.7648 16.6097 12.7562 16.9684 12.7461 16.9684C12.7461 17.0407 12.6917 17.4352 12.638 17.4352C12.638 17.6382 12.5049 17.6748 12.4582 17.8662C12.3486 17.944 12.0521 18.0825 12.007 18.1712C11.9222 18.1712 11.8592 18.2435 11.7736 18.2435C11.7619 18.2684 11.5775 18.4419 11.611 18.4419C11.5978 18.5695 11.6211 18.869 11.5519 18.9531C11.5052 19.0083 11.4383 19.0029 11.4678 19.0892C11.3667 19.0892 11.4741 19.1616 11.3122 19.1616C11.2443 19.1734 11.1812 19.2046 11.1306 19.2516C11.0801 19.2985 11.0443 19.3592 11.0275 19.4261C11.0302 19.4938 11.0156 19.5612 10.9851 19.6217C10.9546 19.6823 10.9092 19.7341 10.8532 19.7723C10.8532 19.8237 10.6198 19.8384 10.6198 19.9707C10.6416 19.9707 10.6198 20.215 10.6198 20.2399C10.5177 20.2479 10.4219 20.2923 10.3498 20.3651C10.1164 20.3651 10.1429 20.3893 9.98963 20.4912C9.98963 20.5223 9.96785 20.6343 9.93595 20.6343C9.93595 20.8164 9.80602 20.6507 9.70255 20.7433C9.74378 20.7433 9.79668 20.9222 9.7749 20.9222C9.7749 21.0778 9.67687 21.0941 9.57651 21.2101C9.52905 21.2412 9.48392 21.3719 9.45047 21.3719C9.45047 21.4785 9.39757 21.5749 9.39757 21.6769C9.42013 21.6769 9.39757 21.7228 9.41468 21.7656C9.46525 21.7516 9.46681 21.694 9.48704 21.694C9.48704 21.6037 9.63019 21.7469 9.54072 21.7469C9.46292 21.8597 9.38512 21.8613 9.34233 22.0169C9.2972 22.0169 9.2583 22.0604 9.22563 22.111C11.3738 22.7085 13.6568 22.6024 15.7404 21.8083C17.8239 21.0142 19.5984 19.5738 20.8039 17.6981C20.8095 17.4935 20.8369 17.2901 20.8856 17.0913C20.9588 17.145 21.014 17.2469 21.0654 17.0913C20.9354 17.0656 20.9673 17.0205 21.0117 16.9123C21.0825 16.9535 21.1632 16.9747 21.2451 16.9738C21.27 16.9271 21.2894 16.8781 21.3143 16.8314C21.2412 16.7746 21.3423 16.6268 21.3773 16.6984C21.396 16.6626 21.4123 16.6253 21.4295 16.5887C21.4209 16.5887 21.4232 16.5887 21.4116 16.5887C21.4116 16.5233 21.4232 16.5319 21.466 16.4984C21.4656 16.5026 21.4656 16.5068 21.466 16.5109C22.1441 15.1012 22.497 13.5573 22.4984 11.993C22.4984 11.9401 22.4907 11.8887 22.4899 11.8374C22.4704 11.9105 22.4339 11.993 22.3817 12.0086C22.3817 12.056 21.8457 12.2894 21.8776 12.3859C21.7835 12.3859 21.4512 12.48 21.3906 12.6014C21.2606 12.6204 21.1369 12.6697 21.0296 12.7453C20.695 12.7453 20.7588 12.3509 20.5978 12.3509L20.5986 12.3548ZM22.1234 8.24923H21.729C21.729 8.24923 21.7228 8.24456 21.7197 8.23911C21.6994 8.23911 21.6146 8.0485 21.6473 8.00571C21.6689 8.00595 21.6905 8.00751 21.7119 8.01038C21.6784 7.92791 21.6411 7.847 21.6045 7.7653C21.5311 7.83415 21.4391 7.88011 21.34 7.89757C21.34 7.92869 21.1805 8.23911 21.34 8.23911C21.3408 8.2445 21.3423 8.24975 21.3447 8.25467C21.2472 8.26056 21.1559 8.30446 21.0905 8.37693C21.0251 8.44941 20.9907 8.54467 20.9948 8.64222C20.9989 8.73978 21.0411 8.83184 21.1123 8.8986C21.1836 8.96536 21.2782 9.0015 21.3758 8.99923H21.5236C21.5329 9.06769 21.5695 9.12682 21.701 9.15483C21.7422 9.32832 22.0511 9.38823 22.0978 9.20773C21.9671 9.20773 22.0099 9.08247 22.02 8.99767H22.125C22.2245 8.99767 22.3198 8.95816 22.3902 8.88783C22.4605 8.81751 22.5 8.72213 22.5 8.62267C22.5 8.52321 22.4605 8.42783 22.3902 8.3575C22.3198 8.28718 22.2245 8.24767 22.125 8.24767L22.1234 8.24923ZM21.0288 13.1258C21.0552 13.1258 21.228 13.1258 21.228 13.0923C21.4048 13.0933 21.5809 13.0687 21.7508 13.0192C21.7508 13.2526 21.5547 13.3817 21.5882 13.6128C21.4582 13.6128 21.515 13.7466 21.515 13.7918C21.431 13.8439 21.4186 13.938 21.3167 13.9901C21.3167 14.0944 21.0832 14.2671 21.014 14.3558C20.9448 14.4445 20.7028 14.6289 20.6701 14.7557C20.6787 14.7254 20.2414 15.2108 20.3434 15.2108C20.3434 15.3019 20.2204 16.0192 20.3792 16.0192C20.3792 16.0822 20.5145 16.6844 20.4321 16.6844C20.4321 16.8781 20.306 16.9956 20.306 17.1512C20.2446 17.1932 20.1566 17.2165 20.1263 17.278C20.0158 17.278 19.9629 17.5114 19.91 17.5114C19.91 17.7612 19.8369 17.9463 19.8369 18.2303C19.8571 18.2303 19.6929 18.6349 19.6929 18.6605C19.5599 18.75 19.2261 19.0698 19.2261 19.2363C19.2261 19.2363 18.9927 19.5646 18.9562 19.6136C18.746 19.6334 18.5394 19.6819 18.3423 19.7575C18.2272 19.7575 17.9284 19.8486 17.8561 19.7396C17.8561 19.6253 17.7938 19.4806 17.7837 19.3257C17.7285 19.3257 17.7191 19.0923 17.6577 19.0923C17.5458 18.8529 17.4494 18.6065 17.369 18.3548C17.3583 18.2504 17.3339 18.1479 17.2967 18.0498C17.2967 17.8024 17.1162 17.5962 17.1162 17.3675C17.0633 17.3675 16.9528 16.8649 17.008 16.8649C17.0355 16.619 17.0792 16.3752 17.1387 16.1351C17.1673 15.8842 17.1407 15.6301 17.0609 15.3906C17.0298 15.3906 16.9263 15.2186 16.9162 15.1751C16.8478 15.1192 16.7939 15.0475 16.7594 14.9662C16.7248 14.8848 16.7106 14.7963 16.7178 14.7082C16.8128 14.5065 16.8505 14.2826 16.8268 14.0609C16.6846 14.0001 16.528 13.9815 16.3755 14.0073C16.2596 13.7739 15.4785 13.9178 15.2575 13.9178C15.2575 14.0454 14.7129 13.8929 14.6631 13.7918C14.5301 13.7918 14.2671 13.5101 14.2671 13.3786C14.0735 13.1741 13.9423 12.9185 13.889 12.6419C13.763 12.5788 13.8011 12.3361 13.8703 12.3361C13.8655 12.2058 13.8409 12.077 13.7972 11.9541C13.7754 11.8763 13.8703 11.7985 13.8703 11.7067C13.853 11.4853 13.904 11.264 14.0166 11.0726C14.0693 10.9864 14.1166 10.897 14.1582 10.805C14.236 10.6167 14.2554 10.7956 14.3566 10.6276C14.4531 10.5794 14.5122 10.4191 14.6094 10.3405C14.653 10.2829 14.6546 10.2588 14.6094 10.2145C14.6704 10.1088 14.713 9.99359 14.7355 9.87371C14.8763 9.67765 14.7767 9.76712 14.9152 9.78346C14.9665 9.72822 15.0506 9.58507 15.1315 9.58507C15.1522 9.5513 15.1815 9.52355 15.2163 9.50458C15.2511 9.48561 15.2902 9.47607 15.3299 9.47692C15.3299 9.58507 15.624 9.44191 15.6543 9.44191C15.7787 9.32526 15.936 9.24974 16.1048 9.22563C16.1048 9.1027 16.7435 9.25986 16.8447 9.24352V9.18984C16.9808 9.22174 17.2337 9.76945 17.2049 9.89005C17.2949 9.88133 17.3856 9.88133 17.4756 9.89005C17.4756 10.006 17.6942 10.0348 17.7946 10.0402C17.9331 10.0472 18.3392 10.0262 18.3392 9.83636C18.3651 9.83389 18.3912 9.83745 18.4154 9.84677C18.4397 9.85608 18.4615 9.8709 18.479 9.89005C18.4966 9.9092 18.5095 9.93217 18.5167 9.95714C18.5239 9.98211 18.5252 10.0084 18.5205 10.034C18.6419 10.0472 19.3646 10.062 19.3133 10.2129C19.4191 10.2129 19.4463 10.3934 19.5467 10.3934C19.5265 10.5179 19.6727 10.8423 19.7801 10.8423C19.7853 10.9838 19.8433 11.1181 19.9427 11.2189C20.0155 11.4407 20.146 11.6391 20.3208 11.7938C20.2531 11.9214 20.4235 12.0272 20.4655 12.1533C20.4554 12.1533 20.5021 12.3415 20.555 12.3696C20.555 12.4971 20.8234 13.0169 20.9704 13.0169C20.9806 13.0799 20.8327 13.1087 21.0241 13.1227L21.0288 13.1258ZM17.1387 9.10192C17.1668 8.99456 17.2298 9.0778 17.2881 9.09725C17.4266 9.14238 17.3792 9.09725 17.4818 9.04824C17.4818 9.34155 17.3138 9.11904 17.1387 9.10192ZM16.7591 8.56276C16.8322 8.56276 16.8532 8.89264 16.6509 8.83195C16.6509 8.75026 16.5988 8.59855 16.7054 8.59855C16.7365 8.72614 16.7591 8.67635 16.7591 8.56276ZM16.6719 8.34803C16.7552 8.38382 16.7918 8.37215 16.7801 8.31224C16.8898 8.34803 16.7661 8.42661 16.7443 8.51064C16.6859 8.45773 16.7031 8.43439 16.6719 8.34803ZM14.7409 6.74611C14.5635 6.70021 14.923 6.64809 14.9393 6.60296C14.9257 6.60287 14.9123 6.59948 14.9003 6.59307C14.8883 6.58667 14.878 6.57745 14.8704 6.5662C14.8627 6.55495 14.8579 6.54201 14.8564 6.52849C14.8548 6.51497 14.8566 6.50128 14.8615 6.48859C14.8887 6.42635 14.9331 6.56639 14.9946 6.53216C15.0677 6.52438 15.2108 6.41624 15.1369 6.6263C15.063 6.83636 14.9938 6.99508 14.7238 6.99897C14.6273 6.90172 14.7238 6.85037 14.7417 6.74689L14.7409 6.74611ZM15.4085 6.00934C15.5539 6.00934 15.4264 6.11748 15.3945 6.11748C15.4193 6.1276 15.3898 6.21396 15.3898 6.24274C15.5252 6.24274 15.5267 6.15872 15.6232 6.1346C15.603 6.25519 15.4676 6.27853 15.5998 6.38201C15.6699 6.43647 15.7407 6.50104 15.7134 6.58429C15.8854 6.58429 15.911 6.74923 15.8753 6.94373C15.9702 6.94373 15.9663 6.9484 15.9663 6.8527C16.0589 6.87838 16.0519 6.96162 15.9663 6.96162C15.8807 7.13045 15.6551 7.12267 15.4995 7.12267C15.4995 6.99196 15.473 6.98418 15.3524 7.02075C15.1875 7.07132 15.3167 6.88927 15.3198 6.7998C15.3377 6.7998 15.694 6.81613 15.4816 6.74611C15.4707 6.55239 15.4271 6.49482 15.2482 6.49482C15.2482 6.36256 15.2015 6.37267 15.1797 6.22796C15.1486 6.01401 15.347 6.24274 15.4131 6.00934H15.4085ZM15.354 7.17635C15.354 7.2207 15.2637 7.25415 15.2459 7.19347C15.263 7.19969 15.27 7.19347 15.263 7.17635H15.354ZM13.8758 5.24689H13.1258C13.0263 5.24689 12.9309 5.20738 12.8606 5.13706C12.7903 5.06673 12.7508 4.97135 12.7508 4.87189C12.7508 4.77244 12.7903 4.67705 12.8606 4.60673C12.9309 4.5364 13.0263 4.49689 13.1258 4.49689H13.8758C13.9752 4.49689 14.0706 4.5364 14.1409 4.60673C14.2113 4.67705 14.2508 4.77244 14.2508 4.87189C14.2508 4.97135 14.2113 5.06673 14.1409 5.13706C14.0706 5.20738 13.9752 5.24689 13.8758 5.24689ZM9.50649 11.8849C9.5485 11.8849 9.59751 11.9012 9.59751 11.9385C9.5415 11.9409 9.4707 11.993 9.50571 11.8872L9.50649 11.8849ZM8.82262 11.9214C8.79228 11.9782 8.54954 11.9689 8.51608 11.9028C8.60633 11.9028 8.67557 11.9393 8.76816 11.9028C8.76816 11.853 8.72692 11.8133 8.6958 11.7596C8.79383 11.7596 8.90431 11.8374 9.0389 11.832C9.0389 11.7487 9.00234 11.8498 9.0389 11.7417C9.12565 11.783 9.19566 11.8527 9.2373 11.9393C9.09998 11.9229 8.9616 11.9172 8.8234 11.9222L8.82262 11.9214ZM8.02827 11.492C7.90382 11.48 7.78822 11.4224 7.70384 11.3301C7.79331 11.3301 7.88123 11.3706 7.93724 11.2765C8.16598 11.2998 8.18621 11.457 8.36982 11.457C8.40405 11.5176 8.60322 11.6569 8.41105 11.6756C8.3366 11.6823 8.26172 11.6688 8.19424 11.6367C8.12676 11.6045 8.06917 11.5548 8.02749 11.4927L8.02827 11.492ZM8.1722 11.9953C8.10529 11.9953 7.99482 12.0249 8.04617 11.8864C8.13408 11.8989 8.17609 11.9354 8.1722 11.9953ZM8.29824 11.9774L8.1901 11.9953C8.20021 11.9121 8.27879 11.8195 8.29824 11.9774ZM8.96499 12.7671C8.95099 12.8177 8.95332 12.82 8.89342 12.82C8.89964 12.7967 8.90431 12.7733 8.91053 12.7484L8.96499 12.7671ZM7.34285 11.2765L7.39653 11.2943C7.41987 11.3838 7.46888 11.3395 7.52257 11.3122C7.52257 11.4142 7.28138 11.4468 7.34285 11.2765Z" fill="#88D1FF"/>
</svg>
