<svg width="33" height="27" viewBox="0 0 33 27" fill="none" xmlns="http://www.w3.org/2000/svg">
<path d="M30 1.67801e-05H3.00002C2.60568 -0.00130429 2.21498 0.0753914 1.85041 0.225688C1.48583 0.375984 1.15459 0.596911 0.875751 0.875751C0.596911 1.15459 0.375984 1.48583 0.225687 1.85041C0.0753913 2.21498 -0.00130429 2.60568 1.67801e-05 3.00002V21C1.67801e-05 21.7957 0.316087 22.5587 0.878697 23.1213C1.44131 23.6839 2.20437 24 3.00002 24H10.5V27H22.5V24H30C30.7931 23.9961 31.5523 23.6782 32.1116 23.1161C32.671 22.5539 32.985 21.7931 32.985 21L33 3.00002C33 2.20437 32.6839 1.44131 32.1213 0.878697C31.5587 0.316087 30.7957 1.67801e-05 30 1.67801e-05ZM30 21H3.00002V3.00002H30V21ZM22.5 12L12 18V6.00002L22.5 12Z" fill="#00478F"/>
</svg>
