<svg width="27" height="16" viewBox="0 0 27 16" fill="none" xmlns="http://www.w3.org/2000/svg">
<path d="M1.24609 7.27051C0.693809 7.27051 0.246094 7.71822 0.246094 8.27051C0.246094 8.82279 0.693809 9.27051 1.24609 9.27051V7.27051ZM25.9532 8.97761C26.3437 8.58709 26.3437 7.95393 25.9532 7.5634L19.5892 1.19944C19.1987 0.808916 18.5655 0.808916 18.175 1.19944C17.7845 1.58996 17.7845 2.22313 18.175 2.61365L23.8319 8.27051L18.175 13.9274C17.7845 14.3179 17.7845 14.9511 18.175 15.3416C18.5655 15.7321 19.1987 15.7321 19.5892 15.3416L25.9532 8.97761ZM1.24609 9.27051H25.2461V7.27051H1.24609V9.27051Z" fill="#0063A2"/>
</svg>
