<svg width="1268" height="443" viewBox="0 0 1268 443" fill="none" xmlns="http://www.w3.org/2000/svg">
<path d="M411.538 427C408.481 427 406 429.304 406 432.142C406 436.142 411.538 443 411.538 443C411.538 443 417.077 436.142 417.077 432.142C417.077 429.304 414.596 427 411.538 427ZM411.538 434.344C411.181 434.344 410.832 434.238 410.536 434.039C410.239 433.841 410.007 433.559 409.871 433.229C409.734 432.899 409.698 432.536 409.768 432.186C409.838 431.836 410.01 431.514 410.262 431.262C410.514 431.01 410.836 430.838 411.186 430.768C411.536 430.698 411.899 430.734 412.229 430.871C412.559 431.007 412.841 431.239 413.039 431.536C413.238 431.832 413.344 432.181 413.344 432.538C413.344 433.017 413.153 433.476 412.815 433.815C412.476 434.153 412.017 434.344 411.538 434.344Z" fill="white"/>

<circle cx="172.5" cy="119.5" r="3.5" fill="white"/>
<path d="M172.308 111C167.721 111 164 114.456 164 118.713C164 124.713 172.308 135 172.308 135C172.308 135 180.615 124.713 180.615 118.714C180.615 114.456 176.894 111 172.308 111ZM172.308 122.015C171.772 122.015 171.249 121.857 170.803 121.559C170.358 121.262 170.011 120.839 169.806 120.344C169.601 119.849 169.548 119.305 169.652 118.779C169.757 118.254 170.014 117.772 170.393 117.393C170.772 117.014 171.254 116.757 171.779 116.652C172.305 116.548 172.849 116.601 173.344 116.806C173.839 117.011 174.262 117.358 174.559 117.803C174.857 118.249 175.015 118.772 175.015 119.308C175.015 120.026 174.73 120.715 174.222 121.222C173.715 121.73 173.026 122.015 172.308 122.015Z" fill="#88D1FF"/>

<circle cx="529.5" cy="112.5" r="3.5" fill="white"/>
<path d="M529.308 104C524.721 104 521 107.456 521 111.713C521 117.713 529.308 128 529.308 128C529.308 128 537.615 117.713 537.615 111.714C537.615 107.456 533.894 104 529.308 104ZM529.308 115.015C528.772 115.015 528.249 114.857 527.803 114.559C527.358 114.262 527.011 113.839 526.806 113.344C526.601 112.849 526.548 112.305 526.652 111.779C526.757 111.254 527.014 110.772 527.393 110.393C527.772 110.014 528.254 109.757 528.779 109.652C529.305 109.548 529.849 109.601 530.344 109.806C530.839 110.011 531.262 110.358 531.559 110.803C531.857 111.249 532.015 111.772 532.015 112.308C532.015 113.026 531.73 113.715 531.222 114.222C530.715 114.73 530.026 115.015 529.308 115.015Z" fill="#88D1FF"/>

<circle cx="579.5" cy="107.5" r="3.5" fill="white"/>
<path d="M579.308 99C574.721 99 571 102.456 571 106.713C571 112.713 579.308 123 579.308 123C579.308 123 587.615 112.713 587.615 106.714C587.615 102.456 583.894 99 579.308 99ZM579.308 110.015C578.772 110.015 578.249 109.857 577.803 109.559C577.358 109.262 577.011 108.839 576.806 108.344C576.601 107.849 576.548 107.305 576.652 106.779C576.757 106.254 577.014 105.772 577.393 105.393C577.772 105.014 578.254 104.757 578.779 104.652C579.305 104.548 579.849 104.601 580.344 104.806C580.839 105.011 581.262 105.358 581.559 105.803C581.857 106.249 582.015 106.772 582.015 107.308C582.015 108.026 581.73 108.715 581.222 109.222C580.715 109.73 580.026 110.015 579.308 110.015Z" fill="#88D1FF"/>

<circle cx="735.5" cy="151.5" r="3.5" fill="white"/>
<path d="M735.308 143C730.721 143 727 146.456 727 150.713C727 156.713 735.308 167 735.308 167C735.308 167 743.615 156.713 743.615 150.714C743.615 146.456 739.894 143 735.308 143ZM735.308 154.015C734.772 154.015 734.249 153.857 733.803 153.559C733.358 153.262 733.011 152.839 732.806 152.344C732.601 151.849 732.548 151.305 732.652 150.779C732.757 150.254 733.014 149.772 733.393 149.393C733.772 149.014 734.254 148.757 734.779 148.652C735.305 148.548 735.849 148.601 736.344 148.806C736.839 149.011 737.262 149.358 737.559 149.803C737.857 150.249 738.015 150.772 738.015 151.308C738.015 152.026 737.73 152.715 737.222 153.222C736.715 153.73 736.026 154.015 735.308 154.015Z" fill="#88D1FF"/>

<circle cx="706.5" cy="139.5" r="3.5" fill="white"/>
<path d="M706.308 131C701.721 131 698 134.456 698 138.713C698 144.713 706.308 155 706.308 155C706.308 155 714.615 144.713 714.615 138.714C714.615 134.456 710.894 131 706.308 131ZM706.308 142.015C705.772 142.015 705.249 141.857 704.803 141.559C704.358 141.262 704.011 140.839 703.806 140.344C703.601 139.849 703.548 139.305 703.652 138.779C703.757 138.254 704.014 137.772 704.393 137.393C704.772 137.014 705.254 136.757 705.779 136.652C706.305 136.548 706.849 136.601 707.344 136.806C707.839 137.011 708.262 137.358 708.559 137.803C708.857 138.249 709.015 138.772 709.015 139.308C709.015 140.026 708.73 140.715 708.222 141.222C707.715 141.73 707.026 142.015 706.308 142.015Z" fill="#88D1FF"/>

<circle cx="727.5" cy="131.5" r="3.5" fill="white"/>
<path d="M727.308 123C722.721 123 719 126.456 719 130.713C719 136.713 727.308 147 727.308 147C727.308 147 735.615 136.713 735.615 130.714C735.615 126.456 731.894 123 727.308 123ZM727.308 134.015C726.772 134.015 726.249 133.857 725.803 133.559C725.358 133.262 725.011 132.839 724.806 132.344C724.601 131.849 724.548 131.305 724.652 130.779C724.757 130.254 725.014 129.772 725.393 129.393C725.772 129.014 726.254 128.757 726.779 128.652C727.305 128.548 727.849 128.601 728.344 128.806C728.839 129.011 729.262 129.358 729.559 129.803C729.857 130.249 730.015 130.772 730.015 131.308C730.015 132.026 729.73 132.715 729.222 133.222C728.715 133.73 728.026 134.015 727.308 134.015Z" fill="#88D1FF"/>

<circle cx="684.5" cy="107.5" r="3.5" fill="white"/>
<path d="M684.308 99C679.721 99 676 102.456 676 106.713C676 112.713 684.308 123 684.308 123C684.308 123 692.615 112.713 692.615 106.714C692.615 102.456 688.894 99 684.308 99ZM684.308 110.015C683.772 110.015 683.249 109.857 682.803 109.559C682.358 109.262 682.011 108.839 681.806 108.344C681.601 107.849 681.548 107.305 681.652 106.779C681.757 106.254 682.014 105.772 682.393 105.393C682.772 105.014 683.254 104.757 683.779 104.652C684.305 104.548 684.849 104.601 685.344 104.806C685.839 105.011 686.262 105.358 686.559 105.803C686.857 106.249 687.015 106.772 687.015 107.308C687.015 108.026 686.73 108.715 686.222 109.222C685.715 109.73 685.026 110.015 684.308 110.015Z" fill="#88D1FF"/>

<circle cx="703.5" cy="95.5" r="3.5" fill="white"/>
<path d="M703.308 87C698.721 87 695 90.456 695 94.7128C695 100.713 703.308 111 703.308 111C703.308 111 711.615 100.713 711.615 94.7136C711.615 90.456 707.894 87 703.308 87ZM703.308 98.0154C702.772 98.0154 702.249 97.8566 701.803 97.5591C701.358 97.2615 701.011 96.8386 700.806 96.3439C700.601 95.8491 700.548 95.3047 700.652 94.7794C700.757 94.2542 701.014 93.7717 701.393 93.3931C701.772 93.0144 702.254 92.7565 702.779 92.652C703.305 92.5476 703.849 92.6012 704.344 92.8061C704.839 93.011 705.262 93.3581 705.559 93.8034C705.857 94.2487 706.015 94.7722 706.015 95.3077C706.015 96.0258 705.73 96.7145 705.222 97.2223C704.715 97.7301 704.026 98.0154 703.308 98.0154Z" fill="#88D1FF"/>

<circle cx="673.5" cy="111.5" r="3.5" fill="white"/>
<path d="M673.308 103C668.721 103 665 106.456 665 110.713C665 116.713 673.308 127 673.308 127C673.308 127 681.615 116.713 681.615 110.714C681.615 106.456 677.894 103 673.308 103ZM673.308 114.015C672.772 114.015 672.249 113.857 671.803 113.559C671.358 113.262 671.011 112.839 670.806 112.344C670.601 111.849 670.548 111.305 670.652 110.779C670.757 110.254 671.014 109.772 671.393 109.393C671.772 109.014 672.254 108.757 672.779 108.652C673.305 108.548 673.849 108.601 674.344 108.806C674.839 109.011 675.262 109.358 675.559 109.803C675.857 110.249 676.015 110.772 676.015 111.308C676.015 112.026 675.73 112.715 675.222 113.222C674.715 113.73 674.026 114.015 673.308 114.015Z" fill="#88D1FF"/>

<circle cx="613.5" cy="216.5" r="3.5" fill="white"/>
<path d="M613.308 208C608.721 208 605 211.456 605 215.713C605 221.713 613.308 232 613.308 232C613.308 232 621.615 221.713 621.615 215.714C621.615 211.456 617.894 208 613.308 208ZM613.308 219.015C612.772 219.015 612.249 218.857 611.803 218.559C611.358 218.262 611.011 217.839 610.806 217.344C610.601 216.849 610.548 216.305 610.652 215.779C610.757 215.254 611.014 214.772 611.393 214.393C611.772 214.014 612.254 213.757 612.779 213.652C613.305 213.548 613.849 213.601 614.344 213.806C614.839 214.011 615.262 214.358 615.559 214.803C615.857 215.249 616.015 215.772 616.015 216.308C616.015 217.026 615.73 217.715 615.222 218.222C614.715 218.73 614.026 219.015 613.308 219.015Z" fill="#88D1FF"/>

<circle cx="769.5" cy="45.5" r="3.5" fill="white"/>
<path d="M769.308 37C764.721 37 761 40.456 761 44.7128C761 50.7132 769.308 61 769.308 61C769.308 61 777.615 50.7132 777.615 44.7136C777.615 40.456 773.894 37 769.308 37ZM769.308 48.0154C768.772 48.0154 768.249 47.8566 767.803 47.5591C767.358 47.2615 767.011 46.8386 766.806 46.3439C766.601 45.8491 766.548 45.3047 766.652 44.7794C766.757 44.2542 767.014 43.7717 767.393 43.3931C767.772 43.0144 768.254 42.7565 768.779 42.652C769.305 42.5476 769.849 42.6012 770.344 42.8061C770.839 43.011 771.262 43.3581 771.559 43.8034C771.857 44.2487 772.015 44.7722 772.015 45.3077C772.015 46.0258 771.73 46.7145 771.222 47.2223C770.715 47.7301 770.026 48.0154 769.308 48.0154Z" fill="#88D1FF"/>

<circle cx="935.5" cy="131.5" r="3.5" fill="white"/>
<path d="M935.308 123C930.721 123 927 126.456 927 130.713C927 136.713 935.308 147 935.308 147C935.308 147 943.615 136.713 943.615 130.714C943.615 126.456 939.894 123 935.308 123ZM935.308 134.015C934.772 134.015 934.249 133.857 933.803 133.559C933.358 133.262 933.011 132.839 932.806 132.344C932.601 131.849 932.548 131.305 932.652 130.779C932.757 130.254 933.014 129.772 933.393 129.393C933.772 129.014 934.254 128.757 934.779 128.652C935.305 128.548 935.849 128.601 936.344 128.806C936.839 129.011 937.262 129.358 937.559 129.803C937.857 130.249 938.015 130.772 938.015 131.308C938.015 132.026 937.73 132.715 937.222 133.222C936.715 133.73 936.026 134.015 935.308 134.015Z" fill="#88D1FF"/>

<circle cx="979.5" cy="153.5" r="3.5" fill="white"/>
<path d="M979.308 145C974.721 145 971 148.456 971 152.713C971 158.713 979.308 169 979.308 169C979.308 169 987.615 158.713 987.615 152.714C987.615 148.456 983.894 145 979.308 145ZM979.308 156.015C978.772 156.015 978.249 155.857 977.803 155.559C977.358 155.262 977.011 154.839 976.806 154.344C976.601 153.849 976.548 153.305 976.652 152.779C976.757 152.254 977.014 151.772 977.393 151.393C977.772 151.014 978.254 150.757 978.779 150.652C979.305 150.548 979.849 150.601 980.344 150.806C980.839 151.011 981.262 151.358 981.559 151.803C981.857 152.249 982.015 152.772 982.015 153.308C982.015 154.026 981.73 154.715 981.222 155.222C980.715 155.73 980.026 156.015 979.308 156.015Z" fill="#88D1FF"/>

<circle cx="997.5" cy="177.5" r="3.5" fill="white"/>
<path d="M997.308 169C992.721 169 989 172.456 989 176.713C989 182.713 997.308 193 997.308 193C997.308 193 1005.62 182.713 1005.62 176.714C1005.62 172.456 1001.89 169 997.308 169ZM997.308 180.015C996.772 180.015 996.249 179.857 995.803 179.559C995.358 179.262 995.011 178.839 994.806 178.344C994.601 177.849 994.548 177.305 994.652 176.779C994.757 176.254 995.014 175.772 995.393 175.393C995.772 175.014 996.254 174.757 996.779 174.652C997.305 174.548 997.849 174.601 998.344 174.806C998.839 175.011 999.262 175.358 999.559 175.803C999.857 176.249 1000.02 176.772 1000.02 177.308C1000.02 178.026 999.73 178.715 999.222 179.222C998.715 179.73 998.026 180.015 997.308 180.015Z" fill="#88D1FF"/>

<circle cx="231.5" cy="83.5" r="3.5" fill="white"/>
<path d="M231.308 75C226.721 75 223 78.456 223 82.7128C223 88.7132 231.308 99 231.308 99C231.308 99 239.615 88.7132 239.615 82.7136C239.615 78.456 235.894 75 231.308 75ZM231.308 86.0154C230.772 86.0154 230.249 85.8566 229.803 85.5591C229.358 85.2615 229.011 84.8386 228.806 84.3439C228.601 83.8491 228.548 83.3047 228.652 82.7794C228.757 82.2542 229.014 81.7717 229.393 81.3931C229.772 81.0144 230.254 80.7565 230.779 80.652C231.305 80.5476 231.849 80.6012 232.344 80.8061C232.839 81.011 233.262 81.3581 233.559 81.8034C233.857 82.2487 234.015 82.7722 234.015 83.3077C234.015 84.0258 233.73 84.7145 233.222 85.2223C232.715 85.7301 232.026 86.0154 231.308 86.0154Z" fill="#88D1FF"/>

<circle cx="250.5" cy="147.5" r="3.5" fill="white"/>
<path d="M250.308 139C245.721 139 242 142.456 242 146.713C242 152.713 250.308 163 250.308 163C250.308 163 258.615 152.713 258.615 146.714C258.615 142.456 254.894 139 250.308 139ZM250.308 150.015C249.772 150.015 249.249 149.857 248.803 149.559C248.358 149.262 248.011 148.839 247.806 148.344C247.601 147.849 247.548 147.305 247.652 146.779C247.757 146.254 248.014 145.772 248.393 145.393C248.772 145.014 249.254 144.757 249.779 144.652C250.305 144.548 250.849 144.601 251.344 144.806C251.839 145.011 252.262 145.358 252.559 145.803C252.857 146.249 253.015 146.772 253.015 147.308C253.015 148.026 252.73 148.715 252.222 149.222C251.715 149.73 251.026 150.015 250.308 150.015Z" fill="#88D1FF"/>

<circle cx="300.5" cy="275.5" r="3.5" fill="white"/>
<path d="M300.308 267C295.721 267 292 270.456 292 274.713C292 280.713 300.308 291 300.308 291C300.308 291 308.615 280.713 308.615 274.714C308.615 270.456 304.894 267 300.308 267ZM300.308 278.015C299.772 278.015 299.249 277.857 298.803 277.559C298.358 277.262 298.011 276.839 297.806 276.344C297.601 275.849 297.548 275.305 297.652 274.779C297.757 274.254 298.014 273.772 298.393 273.393C298.772 273.014 299.254 272.757 299.779 272.652C300.305 272.548 300.849 272.601 301.344 272.806C301.839 273.011 302.262 273.358 302.559 273.803C302.857 274.249 303.015 274.772 303.015 275.308C303.015 276.026 302.73 276.715 302.222 277.222C301.715 277.73 301.026 278.015 300.308 278.015Z" fill="#88D1FF"/>

<circle cx="292.5" cy="249.5" r="3.5" fill="white"/>
<path d="M292.308 241C287.721 241 284 244.456 284 248.713C284 254.713 292.308 265 292.308 265C292.308 265 300.615 254.713 300.615 248.714C300.615 244.456 296.894 241 292.308 241ZM292.308 252.015C291.772 252.015 291.249 251.857 290.803 251.559C290.358 251.262 290.011 250.839 289.806 250.344C289.601 249.849 289.548 249.305 289.652 248.779C289.757 248.254 290.014 247.772 290.393 247.393C290.772 247.014 291.254 246.757 291.779 246.652C292.305 246.548 292.849 246.601 293.344 246.806C293.839 247.011 294.262 247.358 294.559 247.803C294.857 248.249 295.015 248.772 295.015 249.308C295.015 250.026 294.73 250.715 294.222 251.222C293.715 251.73 293.026 252.015 292.308 252.015Z" fill="#88D1FF"/>

<circle cx="268.5" cy="244.5" r="3.5" fill="white"/>
<path d="M268.308 236C263.721 236 260 239.456 260 243.713C260 249.713 268.308 260 268.308 260C268.308 260 276.615 249.713 276.615 243.714C276.615 239.456 272.894 236 268.308 236ZM268.308 247.015C267.772 247.015 267.249 246.857 266.803 246.559C266.358 246.262 266.011 245.839 265.806 245.344C265.601 244.849 265.548 244.305 265.652 243.779C265.757 243.254 266.014 242.772 266.393 242.393C266.772 242.014 267.254 241.757 267.779 241.652C268.305 241.548 268.849 241.601 269.344 241.806C269.839 242.011 270.262 242.358 270.559 242.803C270.857 243.249 271.015 243.772 271.015 244.308C271.015 245.026 270.73 245.715 270.222 246.222C269.715 246.73 269.026 247.015 268.308 247.015Z" fill="#88D1FF"/>

<circle cx="327.5" cy="220.5" r="3.5" fill="white"/>
<path d="M327.308 212C322.721 212 319 215.456 319 219.713C319 225.713 327.308 236 327.308 236C327.308 236 335.615 225.713 335.615 219.714C335.615 215.456 331.894 212 327.308 212ZM327.308 223.015C326.772 223.015 326.249 222.857 325.803 222.559C325.358 222.262 325.011 221.839 324.806 221.344C324.601 220.849 324.548 220.305 324.652 219.779C324.757 219.254 325.014 218.772 325.393 218.393C325.772 218.014 326.254 217.757 326.779 217.652C327.305 217.548 327.849 217.601 328.344 217.806C328.839 218.011 329.262 218.358 329.559 218.803C329.857 219.249 330.015 219.772 330.015 220.308C330.015 221.026 329.73 221.715 329.222 222.222C328.715 222.73 328.026 223.015 327.308 223.015Z" fill="#88D1FF"/>

<circle cx="224.5" cy="295.5" r="3.5" fill="white"/>
<path d="M224.308 287C219.721 287 216 290.456 216 294.713C216 300.713 224.308 311 224.308 311C224.308 311 232.615 300.713 232.615 294.714C232.615 290.456 228.894 287 224.308 287ZM224.308 298.015C223.772 298.015 223.249 297.857 222.803 297.559C222.358 297.262 222.011 296.839 221.806 296.344C221.601 295.849 221.548 295.305 221.652 294.779C221.757 294.254 222.014 293.772 222.393 293.393C222.772 293.014 223.254 292.757 223.779 292.652C224.305 292.548 224.849 292.601 225.344 292.806C225.839 293.011 226.262 293.358 226.559 293.803C226.857 294.249 227.015 294.772 227.015 295.308C227.015 296.026 226.73 296.715 226.222 297.222C225.715 297.73 225.026 298.015 224.308 298.015Z" fill="#88D1FF"/>

<path d="M266.308 273C261.721 273 258 276.456 258 280.713C258 286.713 266.308 297 266.308 297C266.308 297 274.615 286.713 274.615 280.714C274.615 276.456 270.894 273 266.308 273ZM266.308 284.015C265.772 284.015 265.249 283.857 264.803 283.559C264.358 283.262 264.011 282.839 263.806 282.344C263.601 281.849 263.548 281.305 263.652 280.779C263.757 280.254 264.014 279.772 264.393 279.393C264.772 279.014 265.254 278.757 265.779 278.652C266.305 278.548 266.849 278.601 267.344 278.806C267.839 279.011 268.262 279.358 268.559 279.803C268.857 280.249 269.015 280.772 269.015 281.308C269.015 282.026 268.73 282.715 268.222 283.222C267.715 283.73 267.026 284.015 266.308 284.015Z" fill="white"/>
</svg>
