<svg width="265" height="190" viewBox="0 0 265 190" fill="none" xmlns="http://www.w3.org/2000/svg">
<g clip-path="url(#clip0_499_424)">
<path d="M252.319 107.106C252.319 107.106 275.835 153.912 204.764 150.906C159.622 148.999 148.686 179.299 122.9 162.566C96.6777 145.547 228.423 93.6161 252.309 107.104L252.319 107.106Z" fill="#88D1FF"/>
<path d="M10.8008 57.6326C7.72504 102.908 39.646 152.793 83.8845 162.9C97.247 165.952 113.141 167.406 131.993 166.37C232.285 160.832 272.143 68.5187 245.203 45.299C230.687 32.783 216.317 47.7536 178.972 49.1966C122.484 51.3754 16.3074 -23.2034 10.806 57.6437L10.8008 57.6326Z" fill="#00478F"/>
<path d="M52.3731 36.4414C51.0961 38.1515 49.6771 39.7576 48.1628 41.2572C41.7717 47.5767 19.062 71.1074 19.1583 93.4988C19.2434 112.557 2.23526 107.512 4.54102 94.3565C8.56733 71.3473 33.4418 45.7275 28.5088 24.599C20.0891 -11.4309 77.4809 2.85066 52.3717 36.4505L52.3731 36.4414Z" fill="#88D1FF"/>
</g>
<defs>
<clipPath id="clip0_499_424">
<rect width="265" height="190" fill="white"/>
</clipPath>
</defs>
</svg>
