<svg width="310" height="200" viewBox="0 0 310 200" fill="none" xmlns="http://www.w3.org/2000/svg">
<path d="M1.72073 143.036C1.72073 143.036 8.13353 193.135 77.3351 188.418C139.35 184.177 136.263 138.8 194.903 170.172C194.903 170.172 122.135 70.085 66.7302 88.6909C11.3108 107.294 1.71768 143.051 1.71768 143.051L1.72073 143.036Z" fill="#88D1FF"/>
<path d="M306.25 158.706C302.803 155.894 297.724 156.41 294.912 159.856C292.101 163.303 292.616 168.382 296.063 171.194C299.509 174.005 304.589 173.49 307.4 170.043C310.212 166.597 309.697 161.517 306.25 158.706Z" fill="#88D1FF"/>
<path d="M143.184 172.878C155.639 184.166 170.681 192.373 187.169 195.682C209.255 200.129 240.284 199.528 264.11 169.637C339.095 75.6347 224.899 -40.8652 110.334 14.4081C-4.23084 69.6813 -15.7923 164.198 25.0481 159.406C63.6282 154.879 91.4769 125.979 143.189 172.864L143.184 172.878Z" fill="#00478F"/>
</svg>
