<svg width="330" height="220" viewBox="0 0 330 220" fill="none" xmlns="http://www.w3.org/2000/svg">
<g clip-path="url(#clip0_499_406)">
<path d="M132.046 146.807C132.046 146.807 159.512 175.654 111.785 194.835C64.8889 213.685 62.513 172.35 29.3081 160.255C-3.89684 148.161 -12.7214 115.9 29.6342 122.453C71.9898 129.005 94.5038 104.71 132.046 146.807Z" fill="#88D1FF"/>
<path d="M240.3 159.66C240.17 159.66 240.04 159.61 239.95 159.51C239.75 159.31 239.75 159 239.95 158.8L252.77 145.98C252.97 145.78 253.28 145.78 253.48 145.98C253.68 146.18 253.68 146.49 253.48 146.69L240.66 159.51C240.56 159.61 240.43 159.66 240.31 159.66H240.3Z" fill="#88D1FF"/>
<path d="M235.69 170.33C235.56 170.33 235.43 170.28 235.34 170.18C235.14 169.98 235.14 169.67 235.34 169.47L263.44 141.37C263.64 141.17 263.95 141.17 264.15 141.37C264.35 141.57 264.35 141.88 264.15 142.08L236.05 170.18C235.95 170.28 235.82 170.33 235.7 170.33H235.69Z" fill="#88D1FF"/>
<path d="M234.55 177.54C234.42 177.54 234.29 177.49 234.2 177.39C234 177.19 234 176.88 234.2 176.68L270.73 140.15C270.93 139.95 271.24 139.95 271.44 140.15C271.64 140.35 271.64 140.66 271.44 140.86L234.91 177.39C234.81 177.49 234.68 177.54 234.56 177.54H234.55Z" fill="#88D1FF"/>
<path d="M234.5 183.67C234.37 183.67 234.24 183.62 234.15 183.52C233.95 183.32 233.95 183.01 234.15 182.81L276.8 140.16C277 139.96 277.31 139.96 277.51 140.16C277.71 140.36 277.71 140.67 277.51 140.87L234.86 183.52C234.76 183.62 234.63 183.67 234.51 183.67H234.5Z" fill="#88D1FF"/>
<path d="M235.28 188.95C235.15 188.95 235.02 188.9 234.93 188.8C234.73 188.6 234.73 188.29 234.93 188.09L282.07 140.95C282.27 140.75 282.58 140.75 282.78 140.95C282.98 141.15 282.98 141.46 282.78 141.66L235.64 188.8C235.54 188.9 235.41 188.95 235.29 188.95H235.28Z" fill="#88D1FF"/>
<path d="M236.62 193.68C236.49 193.68 236.36 193.63 236.27 193.53C236.07 193.33 236.07 193.02 236.27 192.82L286.79 142.3C286.99 142.1 287.3 142.1 287.5 142.3C287.7 142.5 287.7 142.81 287.5 143.01L236.98 193.53C236.88 193.63 236.75 193.68 236.63 193.68H236.62Z" fill="#88D1FF"/>
<path d="M238.41 197.95C238.28 197.95 238.15 197.9 238.06 197.8C237.86 197.6 237.86 197.29 238.06 197.09L291.06 144.09C291.26 143.89 291.57 143.89 291.77 144.09C291.97 144.29 291.97 144.6 291.77 144.8L238.77 197.8C238.67 197.9 238.54 197.95 238.42 197.95H238.41Z" fill="#88D1FF"/>
<path d="M240.6 201.83C240.47 201.83 240.34 201.78 240.25 201.68C240.05 201.48 240.05 201.17 240.25 200.97L294.94 146.28C295.14 146.08 295.45 146.08 295.65 146.28C295.85 146.48 295.85 146.79 295.65 146.99L240.96 201.68C240.86 201.78 240.73 201.83 240.61 201.83H240.6Z" fill="#88D1FF"/>
<path d="M243.14 205.36C243.01 205.36 242.88 205.31 242.79 205.21C242.59 205.01 242.59 204.7 242.79 204.5L298.47 148.82C298.67 148.62 298.98 148.62 299.18 148.82C299.38 149.02 299.38 149.33 299.18 149.53L243.5 205.21C243.4 205.31 243.27 205.36 243.15 205.36H243.14Z" fill="#88D1FF"/>
<path d="M246.02 208.55C245.89 208.55 245.76 208.5 245.67 208.4C245.47 208.2 245.47 207.89 245.67 207.69L301.66 151.7C301.86 151.5 302.17 151.5 302.37 151.7C302.57 151.9 302.57 152.21 302.37 152.41L246.38 208.4C246.28 208.5 246.15 208.55 246.03 208.55H246.02Z" fill="#88D1FF"/>
<path d="M249.22 211.42C249.09 211.42 248.96 211.37 248.87 211.27C248.67 211.07 248.67 210.76 248.87 210.56L304.52 154.91C304.72 154.71 305.03 154.71 305.23 154.91C305.43 155.11 305.43 155.42 305.23 155.62L249.58 211.27C249.48 211.37 249.35 211.42 249.23 211.42H249.22Z" fill="#88D1FF"/>
<path d="M252.76 213.95C252.63 213.95 252.5 213.9 252.41 213.8C252.21 213.6 252.21 213.29 252.41 213.09L307.06 158.44C307.26 158.24 307.57 158.24 307.77 158.44C307.97 158.64 307.97 158.95 307.77 159.15L253.12 213.8C253.02 213.9 252.89 213.95 252.77 213.95H252.76Z" fill="#88D1FF"/>
<path d="M256.65 216.12C256.52 216.12 256.39 216.07 256.3 215.97C256.1 215.77 256.1 215.46 256.3 215.26L309.23 162.33C309.43 162.13 309.74 162.13 309.94 162.33C310.14 162.53 310.14 162.84 309.94 163.04L257.01 215.97C256.91 216.07 256.78 216.12 256.66 216.12H256.65Z" fill="#88D1FF"/>
<path d="M260.94 217.91C260.81 217.91 260.68 217.86 260.59 217.76C260.39 217.56 260.39 217.25 260.59 217.05L311.02 166.62C311.22 166.42 311.53 166.42 311.73 166.62C311.93 166.82 311.93 167.13 311.73 167.33L261.3 217.76C261.2 217.86 261.07 217.91 260.95 217.91H260.94Z" fill="#88D1FF"/>
<path d="M265.68 219.23C265.55 219.23 265.42 219.18 265.33 219.08C265.13 218.88 265.13 218.57 265.33 218.37L312.34 171.36C312.54 171.16 312.85 171.16 313.05 171.36C313.25 171.56 313.25 171.87 313.05 172.07L266.04 219.08C265.94 219.18 265.81 219.23 265.69 219.23H265.68Z" fill="#88D1FF"/>
<path d="M270.99 219.99C270.86 219.99 270.73 219.94 270.64 219.84C270.44 219.64 270.44 219.33 270.64 219.13L313.09 176.68C313.29 176.48 313.6 176.48 313.8 176.68C314 176.88 314 177.19 313.8 177.39L271.35 219.84C271.25 219.94 271.12 219.99 271 219.99H270.99Z" fill="#88D1FF"/>
<path d="M277.1 219.95C276.97 219.95 276.84 219.9 276.75 219.8C276.55 219.6 276.55 219.29 276.75 219.09L313.09 182.75C313.29 182.55 313.6 182.55 313.8 182.75C314 182.95 314 183.26 313.8 183.46L277.46 219.8C277.36 219.9 277.23 219.95 277.11 219.95H277.1Z" fill="#88D1FF"/>
<path d="M284.41 218.7C284.28 218.7 284.15 218.65 284.06 218.55C283.86 218.35 283.86 218.04 284.06 217.84L311.81 190.09C312.01 189.89 312.32 189.89 312.52 190.09C312.72 190.29 312.72 190.6 312.52 190.8L284.77 218.55C284.67 218.65 284.54 218.7 284.42 218.7H284.41Z" fill="#88D1FF"/>
<path d="M295.38 213.81C295.25 213.81 295.12 213.76 295.03 213.66C294.83 213.46 294.83 213.15 295.03 212.95L307.08 200.9C307.28 200.7 307.59 200.7 307.79 200.9C307.99 201.1 307.99 201.41 307.79 201.61L295.74 213.66C295.64 213.76 295.51 213.81 295.39 213.81H295.38Z" fill="#88D1FF"/>
<path d="M222.839 191.413C250.024 189.068 280.875 177.767 304.56 150.799C357.606 90.3923 316.857 2.88257 231.559 5.10886C146.261 7.33514 133.729 48.696 84.0955 31.385C-15.3685 -3.29597 -23.0417 212.622 222.86 191.411L222.839 191.413Z" fill="#00478F"/>
</g>
<defs>
<clipPath id="clip0_499_406">
<rect width="330" height="220" fill="white"/>
</clipPath>
</defs>
</svg>
