<svg width="310" height="220" viewBox="0 0 310 220" fill="none" xmlns="http://www.w3.org/2000/svg">
<g clip-path="url(#clip0_499_435)">
<path opacity="0.5" d="M96.3776 57.2556C75.6775 56.2581 51.0155 61.6385 29.5939 79.5045C-18.3948 119.541 0.256366 189.498 64.5034 196.482C128.75 203.466 143.766 173.633 178.636 191.694C248.493 227.872 283.619 66.2722 96.3874 57.2432L96.3776 57.2556Z" fill="#88D1FF"/>
<path d="M271.521 31.9782C270.027 31.1682 268.517 30.4206 266.976 29.7197C265.575 29.0811 264.159 28.4892 262.711 27.9441C241.886 20.0162 217.777 21.6828 196.624 29.3303C182.601 34.3924 169.013 42.0088 154.117 42.476C150.818 42.5851 147.565 42.3203 144.343 41.8219C143.362 41.6661 142.397 41.4948 141.432 41.3079C129.074 38.8158 117.167 33.0217 104.84 29.6886C84.7774 24.2683 62.5979 25.6701 44.1695 35.2957C25.7411 44.9058 11.5462 63.0669 8.43331 83.6421C8.43331 83.6421 -10.0574 161.753 85.7891 173.373C86.7386 173.482 87.7191 173.591 88.6841 173.7C89.5402 173.793 90.3962 173.887 91.2679 173.964C131.284 177.593 125.65 212.965 167.503 218.495C167.69 218.526 167.877 218.541 168.063 218.573C187.799 221.096 207.084 212.919 219.333 197.764C220.22 196.673 221.061 195.552 221.87 194.384C222.897 192.92 223.878 191.409 224.765 189.82C230.088 180.382 241.372 166.348 264.657 146.256C281.031 132.144 297.125 117.083 302.541 96.6009C309.125 71.6957 294.09 44.3139 271.49 31.9937L271.521 31.9782Z" fill="#00478F"/>
<path d="M150.428 36.5883C156.171 30.9344 161.105 24.5017 167.253 19.2683C174.382 13.2095 182.833 8.77045 191.783 6.12261C218.383 -1.74301 245.916 7.83592 262.726 27.9439C264.158 28.489 265.574 29.0809 266.991 29.7195C252.827 10.5616 229.605 -1.02654 204.951 1.29421C189.37 2.75831 174.46 9.25329 163.051 20.016C155.767 26.8692 149.899 35.2644 141.696 41.1208C141.618 41.1831 141.525 41.2298 141.432 41.2921C142.397 41.4946 143.362 41.6503 144.342 41.8061C146.459 40.2174 148.482 38.4885 150.412 36.5883H150.428Z" fill="#88D1FF"/>
</g>
<defs>
<clipPath id="clip0_499_435">
<rect width="310" height="220" fill="white"/>
</clipPath>
</defs>
</svg>
