<svg width="280" height="200" viewBox="0 0 280 200" fill="none" xmlns="http://www.w3.org/2000/svg">
<path d="M204.499 129.19C204.369 129.19 204.239 129.14 204.149 129.04C203.949 128.84 203.949 128.53 204.149 128.33L216.969 115.51C217.169 115.31 217.479 115.31 217.679 115.51C217.879 115.71 217.879 116.02 217.679 116.22L204.859 129.04C204.759 129.14 204.629 129.19 204.509 129.19H204.499Z" fill="#88D1FF"/>
<path d="M199.889 139.86C199.759 139.86 199.629 139.81 199.539 139.71C199.339 139.51 199.339 139.2 199.539 139L227.639 110.9C227.839 110.7 228.149 110.7 228.349 110.9C228.549 111.1 228.549 111.41 228.349 111.61L200.249 139.71C200.149 139.81 200.019 139.86 199.899 139.86H199.889Z" fill="#88D1FF"/>
<path d="M198.749 147.07C198.619 147.07 198.489 147.02 198.399 146.92C198.199 146.72 198.199 146.41 198.399 146.21L234.929 109.68C235.129 109.48 235.439 109.48 235.639 109.68C235.839 109.88 235.839 110.19 235.639 110.39L199.109 146.92C199.009 147.02 198.879 147.07 198.759 147.07H198.749Z" fill="#88D1FF"/>
<path d="M198.699 153.2C198.569 153.2 198.439 153.15 198.349 153.05C198.149 152.85 198.149 152.54 198.349 152.34L240.999 109.69C241.199 109.49 241.509 109.49 241.709 109.69C241.909 109.89 241.909 110.2 241.709 110.4L199.059 153.05C198.959 153.15 198.829 153.2 198.709 153.2H198.699Z" fill="#88D1FF"/>
<path d="M199.479 158.48C199.349 158.48 199.219 158.43 199.129 158.33C198.929 158.13 198.929 157.82 199.129 157.62L246.269 110.48C246.469 110.28 246.779 110.28 246.979 110.48C247.179 110.68 247.179 110.99 246.979 111.19L199.839 158.33C199.739 158.43 199.609 158.48 199.489 158.48H199.479Z" fill="#88D1FF"/>
<path d="M200.819 163.21C200.689 163.21 200.559 163.16 200.469 163.06C200.269 162.86 200.269 162.55 200.469 162.35L250.989 111.83C251.189 111.63 251.499 111.63 251.699 111.83C251.899 112.03 251.899 112.34 251.699 112.54L201.179 163.06C201.079 163.16 200.949 163.21 200.829 163.21H200.819Z" fill="#88D1FF"/>
<path d="M202.609 167.48C202.479 167.48 202.349 167.43 202.259 167.33C202.059 167.13 202.059 166.82 202.259 166.62L255.259 113.62C255.459 113.42 255.769 113.42 255.969 113.62C256.169 113.82 256.169 114.13 255.969 114.33L202.969 167.33C202.869 167.43 202.739 167.48 202.619 167.48H202.609Z" fill="#88D1FF"/>
<path d="M204.799 171.36C204.669 171.36 204.539 171.31 204.449 171.21C204.249 171.01 204.249 170.7 204.449 170.5L259.139 115.81C259.339 115.61 259.649 115.61 259.849 115.81C260.049 116.01 260.049 116.32 259.849 116.52L205.159 171.21C205.059 171.31 204.929 171.36 204.809 171.36H204.799Z" fill="#88D1FF"/>
<path d="M207.339 174.89C207.209 174.89 207.079 174.84 206.989 174.74C206.789 174.54 206.789 174.23 206.989 174.03L262.669 118.35C262.869 118.15 263.179 118.15 263.379 118.35C263.579 118.55 263.579 118.86 263.379 119.06L207.699 174.74C207.599 174.84 207.469 174.89 207.349 174.89H207.339Z" fill="#88D1FF"/>
<path d="M210.219 178.08C210.089 178.08 209.959 178.03 209.869 177.93C209.669 177.73 209.669 177.42 209.869 177.22L265.859 121.23C266.059 121.03 266.369 121.03 266.569 121.23C266.769 121.43 266.769 121.74 266.569 121.94L210.579 177.93C210.479 178.03 210.349 178.08 210.229 178.08H210.219Z" fill="#88D1FF"/>
<path d="M213.419 180.95C213.289 180.95 213.159 180.9 213.069 180.8C212.869 180.6 212.869 180.29 213.069 180.09L268.719 124.44C268.919 124.24 269.229 124.24 269.429 124.44C269.629 124.64 269.629 124.95 269.429 125.15L213.779 180.8C213.679 180.9 213.549 180.95 213.429 180.95H213.419Z" fill="#88D1FF"/>
<path d="M216.959 183.48C216.829 183.48 216.699 183.43 216.609 183.33C216.409 183.13 216.409 182.82 216.609 182.62L271.259 127.97C271.459 127.77 271.769 127.77 271.969 127.97C272.169 128.17 272.169 128.48 271.969 128.68L217.319 183.33C217.219 183.43 217.089 183.48 216.969 183.48H216.959Z" fill="#88D1FF"/>
<path d="M220.849 185.65C220.719 185.65 220.589 185.6 220.499 185.5C220.299 185.3 220.299 184.99 220.499 184.79L273.429 131.86C273.629 131.66 273.939 131.66 274.139 131.86C274.339 132.06 274.339 132.37 274.139 132.57L221.209 185.5C221.109 185.6 220.979 185.65 220.859 185.65H220.849Z" fill="#88D1FF"/>
<path d="M225.139 187.44C225.009 187.44 224.879 187.39 224.789 187.29C224.589 187.09 224.589 186.78 224.789 186.58L275.219 136.15C275.419 135.95 275.729 135.95 275.929 136.15C276.129 136.35 276.129 136.66 275.929 136.86L225.499 187.29C225.399 187.39 225.269 187.44 225.149 187.44H225.139Z" fill="#88D1FF"/>
<path d="M229.879 188.76C229.749 188.76 229.619 188.71 229.529 188.61C229.329 188.41 229.329 188.1 229.529 187.9L276.539 140.89C276.739 140.69 277.049 140.69 277.249 140.89C277.449 141.09 277.449 141.4 277.249 141.6L230.239 188.61C230.139 188.71 230.009 188.76 229.889 188.76H229.879Z" fill="#88D1FF"/>
<path d="M235.189 189.52C235.059 189.52 234.929 189.47 234.839 189.37C234.639 189.17 234.639 188.86 234.839 188.66L277.289 146.21C277.489 146.01 277.799 146.01 277.999 146.21C278.199 146.41 278.199 146.72 277.999 146.92L235.549 189.37C235.449 189.47 235.319 189.52 235.199 189.52H235.189Z" fill="#88D1FF"/>
<path d="M241.299 189.48C241.169 189.48 241.039 189.43 240.949 189.33C240.749 189.13 240.749 188.82 240.949 188.62L277.289 152.28C277.489 152.08 277.799 152.08 277.999 152.28C278.199 152.48 278.199 152.79 277.999 152.99L241.659 189.33C241.559 189.43 241.429 189.48 241.309 189.48H241.299Z" fill="#88D1FF"/>
<path d="M248.609 188.23C248.479 188.23 248.349 188.18 248.259 188.08C248.059 187.88 248.059 187.57 248.259 187.37L276.009 159.62C276.209 159.42 276.519 159.42 276.719 159.62C276.919 159.82 276.919 160.13 276.719 160.33L248.969 188.08C248.869 188.18 248.739 188.23 248.619 188.23H248.609Z" fill="#88D1FF"/>
<path d="M259.579 183.34C259.449 183.34 259.319 183.29 259.229 183.19C259.029 182.99 259.029 182.68 259.229 182.48L271.279 170.43C271.479 170.23 271.789 170.23 271.989 170.43C272.189 170.63 272.189 170.94 271.989 171.14L259.939 183.19C259.839 183.29 259.709 183.34 259.589 183.34H259.579Z" fill="#88D1FF"/>
<path d="M109.672 198.382C85.6613 195.169 75.1882 193.628 27.348 142.254C-80.6726 26.1935 202.924 -30.0705 250.607 16.1763C277.759 42.511 277.332 121.1 232.505 132.331C179.746 145.549 163.752 205.651 109.672 198.395V198.382Z" fill="#00478F"/>
</svg>
