<svg width="28" height="16" viewBox="0 0 28 16" fill="none" xmlns="http://www.w3.org/2000/svg">
<g clip-path="url(#clip0_406_386)">
<path d="M27.827 0H0.400391V16H27.827V0Z" fill="#BE1636"/>
<path d="M27.827 7.98584H0.400391V15.9858H27.827V7.98584Z" fill="#020303"/>
<path d="M12.8908 7.72005L13.73 7.10467L14.5832 7.72005L14.2615 6.72704L15.1006 6.11166H14.0657L13.73 5.11865L13.4083 6.11166H12.3594L13.2125 6.72704L12.8908 7.72005Z" fill="#F1D62F"/>
<path d="M18.2457 12.6297C18.1198 12.4339 17.9659 12.28 17.7701 12.0982C17.5743 11.9304 17.2946 11.7206 17.0848 11.5248L16.6932 11.9863V12.0563C17.1268 12.1262 17.2666 12.28 17.4345 12.4339C17.6722 12.6716 17.7701 12.9514 17.924 13.0633C18.2037 13.2591 18.4135 12.9234 18.2317 12.6297M17.2107 11.9024C17.2107 11.9024 17.1547 11.8744 17.1547 11.8465C17.1547 11.8185 17.1827 11.7905 17.2107 11.7905C17.2387 11.7905 17.2666 11.8185 17.2666 11.8465C17.2666 11.8744 17.2387 11.9024 17.2107 11.9024ZM17.6023 12.2521C17.6023 12.2521 17.5464 12.2241 17.5464 12.1961C17.5464 12.1681 17.5743 12.1402 17.6023 12.1402C17.6303 12.1402 17.6582 12.1542 17.6582 12.1961C17.6582 12.2381 17.6303 12.2521 17.6023 12.2521ZM17.952 12.6017C17.952 12.6017 17.896 12.5737 17.896 12.5458C17.896 12.5038 17.924 12.4898 17.952 12.4898C17.9799 12.4898 17.9939 12.5178 17.9939 12.5458C17.9939 12.5737 17.9799 12.6017 17.952 12.6017Z" fill="#F1D62F"/>
<path d="M14.7492 10.9514C14.4275 11.0633 14.0918 11.1192 13.7282 11.1192C12.9729 11.1192 12.3016 10.8395 11.7561 10.3919L11.3086 10.9514C11.5044 11.1052 11.7142 11.2451 11.924 11.3709L11.7701 11.6647C12.0079 11.7905 12.2596 11.9024 12.5254 11.9723L12.6233 11.6647C12.861 11.7346 13.1128 11.7905 13.3645 11.8185L13.3366 12.1402C13.6023 12.1681 13.882 12.1681 14.1478 12.1402L14.1198 11.8185C14.3715 11.7905 14.6233 11.7486 14.861 11.6786L14.9589 11.9863C15.0848 11.9444 15.2107 11.9024 15.3366 11.8465L15.1687 11.1891L14.7631 10.9514H14.7492Z" fill="#F1D62F"/>
<path d="M16.8471 8.00031C16.8471 8.95136 16.4135 9.80451 15.7422 10.3779L16.6093 10.9793C16.7212 10.8674 16.8331 10.7556 16.931 10.6297L16.6932 10.4199C16.8471 10.2241 16.9869 10.0143 17.1128 9.79052L17.3925 9.94437C17.5184 9.70661 17.6303 9.45486 17.7002 9.18913L17.3925 9.09122C17.4624 8.85346 17.5184 8.6157 17.5324 8.34996L17.854 8.37794C17.882 8.1122 17.882 7.83248 17.854 7.56675L17.5324 7.59472C17.5044 7.34297 17.4624 7.09122 17.3925 6.85346L17.7002 6.75556C17.6163 6.48982 17.5184 6.23808 17.3925 6.00031L17.0988 6.15416C16.9869 5.93038 16.8331 5.72059 16.6792 5.52479L16.931 5.315C16.7631 5.10521 16.5673 4.90941 16.3575 4.74157L16.1478 5.00731C15.952 4.85346 15.7422 4.7136 15.5324 4.58773L15.6862 4.29402C15.4485 4.16815 15.1967 4.07024 14.931 3.98633L14.8331 4.30801C14.6093 4.23808 14.3715 4.19612 14.1198 4.16815L14.0499 4.88143C15.6163 5.04927 16.8471 6.34996 16.8471 7.97234" fill="#F1D62F"/>
<path d="M15.6303 10.7975C14.8051 10.2101 13.952 9.60871 13.2387 8.93738C13.2387 8.93738 13.2387 8.92339 13.2387 8.90941C13.2387 8.90941 13.2526 8.90941 13.2666 8.90941C13.9799 9.58073 14.8331 10.1821 15.6582 10.7556C16.0638 11.0353 16.4834 11.343 16.889 11.6367L17.0149 11.4968C15.6443 10.5178 12.3995 8.26605 12.3575 7.44087C11.7142 8.69962 12.5254 9.44087 13.0429 9.73458C14.3715 10.4898 15.2666 10.9933 16.6513 11.9164L16.861 11.6647C16.4554 11.3709 16.0499 11.0633 15.6303 10.7835" fill="#F1D62F"/>
</g>
<defs>
<clipPath id="clip0_406_386">
<rect width="27.4266" height="16" fill="white" transform="translate(0.400391)"/>
</clipPath>
</defs>
</svg>
