<svg width="29" height="16" viewBox="0 0 29 16" fill="none" xmlns="http://www.w3.org/2000/svg">
<g clip-path="url(#clip0_406_435)">
<path d="M28.2518 16H0.839844V0H28.2518V16Z" fill="#449635"/>
<path d="M8.60753 11.464C8.58168 11.0892 8.54291 10.4301 8.86601 10.3654C9.25373 10.3267 9.03402 11.0116 9.17619 11.1409C9.20204 11.2055 9.25373 11.2055 9.25373 11.128V10.5464C9.25373 10.3525 9.37005 10.3008 9.47344 10.262C9.57683 10.262 9.64146 10.262 9.68023 10.1587C9.69315 9.82262 9.719 9.4866 9.73192 9.15057C9.73192 9.15057 9.96456 9.08595 9.97748 9.71923C9.97748 10.094 9.89994 10.4042 9.95163 10.4818C9.95163 10.5464 10.0421 10.5593 10.1067 10.5205C10.2101 10.4559 10.2489 10.3654 10.404 10.4042C10.6366 10.4688 10.7788 10.5851 10.7917 10.7661C10.7917 10.9341 10.7529 11.115 10.6883 11.283C10.6883 11.3218 10.6366 11.3994 10.6495 11.4252C10.6883 11.3606 10.7529 11.3606 10.7658 11.4252C10.7271 11.5545 10.6625 11.6837 10.5591 11.7354C10.4815 11.8129 10.3523 11.7871 10.3006 11.632C10.2877 11.464 10.3652 11.2443 10.4944 11.0763C10.5203 11.0116 10.5591 10.8953 10.5461 10.7919C10.4815 10.7532 10.4169 10.7661 10.3523 10.8307C10.3523 10.8307 10.1584 10.9729 10.1584 10.9987C10.2101 11.3218 10.1584 11.3606 10.1455 11.4511C10.1326 11.5674 10.0679 11.6191 10.0163 11.6966C9.96456 11.7483 9.91286 11.7483 9.87409 11.6966C9.79654 11.5545 9.83532 11.2443 9.88701 11.1021C9.92578 10.9729 10.0033 10.8953 9.96456 10.8953C9.93871 10.8178 9.88701 10.8436 9.84824 10.9212C9.79654 11.0892 9.78362 11.3477 9.78362 11.464C9.7707 11.6061 9.74485 11.9163 9.65438 11.9939C9.60268 12.0714 9.51221 12.0326 9.48637 11.9551C9.48637 11.8129 9.48637 11.6708 9.48637 11.5415C9.55099 11.3089 9.57683 11.1021 9.60268 10.8695C9.60268 10.5593 9.42175 10.7273 9.43467 10.8953C9.48637 11.1021 9.46052 11.4252 9.43467 11.5028C9.40882 11.5932 9.37005 11.6061 9.29251 11.5932C9.22788 11.5932 9.0728 11.4252 9.03402 11.1538C9.03402 11.1538 8.99525 11.0116 8.98233 10.8824C8.95648 10.7402 8.86601 10.6368 8.80139 10.9082C8.74969 11.1021 8.71092 11.5803 8.60753 11.4769" fill="white"/>
<path d="M9.64146 9.92602C9.30543 9.758 8.9694 9.60292 8.63338 9.44783C8.6463 9.68046 9.11157 10.0811 9.42175 10.094C9.62853 10.094 9.57684 10.0165 9.62853 9.93894" fill="white"/>
<path d="M10.9209 12.0456C10.9209 12.0456 10.8822 12.0456 10.8563 12.0326C10.7788 12.0068 10.7012 11.9292 10.7271 11.8C10.8175 11.2184 10.8822 10.7661 10.9856 10.1845C10.9985 10.1199 10.9468 10.0294 10.8692 10.0294C10.74 10.1199 10.7142 10.2879 10.4944 10.2879C10.3394 10.2879 10.1584 10.1199 10.1326 9.95187C10.1067 9.82262 10.0938 9.68046 10.1326 9.56414C10.2489 9.4349 10.3781 9.44783 10.4944 9.47367C10.5849 9.51245 10.6625 9.60292 10.7012 9.58999C10.7271 9.55122 10.7012 9.24104 10.2489 9.00841C9.97748 8.89209 9.75777 8.85332 9.64146 9.07303C9.56391 9.21519 9.64146 9.74508 9.47344 9.61584C8.94356 8.25881 10.7012 8.06495 10.908 9.56414C10.908 9.60292 10.9597 9.64169 10.9856 9.64169C10.9985 9.64169 11.0114 9.61584 11.0114 9.58999C10.9726 8.24589 9.65438 8.15542 9.42175 8.56899C9.37005 8.67238 9.3442 8.89209 9.3442 9.02133C9.3442 9.09888 9.31835 9.15057 9.29251 9.1635C9.24081 9.20227 9.16326 9.09888 9.15034 8.91794C9.12449 8.77577 9.13742 8.737 9.13742 8.59484C9.20204 7.52214 10.908 7.98741 11.1923 8.86624C11.3216 9.31859 11.1923 9.66754 11.2311 9.70631C11.3991 9.52537 11.6447 9.69338 11.6964 9.74508C11.7222 9.77093 11.7739 9.79678 11.8127 9.74508C11.9419 9.65461 12.1746 9.69338 12.2263 9.8614C12.2521 10.0294 12.278 10.1974 12.278 10.3654C12.1875 10.3396 12.1229 10.3137 12.097 10.2879C12.097 10.2879 12.097 10.275 12.097 10.262C12.097 10.2233 12.0841 10.1716 12.0712 10.1199C12.0712 10.1199 12.0712 10.1199 12.0712 10.107C12.0712 10.107 12.0712 10.107 12.0583 10.107C12.0324 10.094 11.9807 10.107 11.9678 10.1457C11.929 10.3267 11.761 10.3525 11.6576 10.0682C11.593 10.0165 11.4637 10.0036 11.4508 10.0682C11.4637 10.262 11.3862 10.2879 11.2311 10.1974C11.1794 10.5851 11.1277 10.947 11.076 11.3218C11.1406 11.3218 11.2053 11.2701 11.257 11.3477C11.1923 11.5545 11.0631 11.9551 10.9856 11.9939C10.9856 11.9939 10.9856 11.9939 10.9856 12.0068C10.9856 12.0068 10.9726 12.0068 10.9597 12.0068M10.4815 9.91309C10.4815 9.91309 10.5591 9.91309 10.572 9.84847C10.572 9.8097 10.572 9.77093 10.5591 9.74508C10.5591 9.74508 10.5074 9.73216 10.4686 9.73216C10.4298 9.73216 10.404 9.73216 10.3911 9.77093C10.3911 9.8097 10.4169 9.83555 10.4298 9.87432C10.4298 9.87432 10.4557 9.90017 10.4815 9.90017" fill="white"/>
<path d="M12.11 12.0714C12.11 12.0714 12.0195 12.0585 11.9936 12.0326C11.9032 11.9422 11.8902 11.8129 11.9549 11.7354C12.0195 11.7095 12.0841 11.632 12.0453 11.6061C11.8515 11.3994 11.3604 11.0633 11.3345 10.9987C11.3345 10.9987 11.6705 10.9729 11.6964 10.9987C11.7998 11.0375 12.3038 11.6061 12.3038 11.6061C12.278 11.632 12.2521 11.6449 12.2263 11.6708C12.2004 11.6966 12.2004 11.7225 12.2263 11.7354C12.3555 11.8129 12.3167 11.968 12.2521 12.0456C12.2004 12.0714 12.1487 12.0714 12.097 12.0714M12.0712 11.8905C12.0712 11.8905 12.1358 11.8646 12.1487 11.8259C12.1746 11.7871 12.1487 11.7483 12.1358 11.7354C12.097 11.7354 12.0583 11.7612 12.0453 11.8C12.0324 11.8517 12.0453 11.8905 12.0712 11.8905Z" fill="white"/>
<path d="M8.68507 8.96964C8.49121 8.67238 8.47829 8.22004 8.58168 8.0908C8.63338 8.02618 8.72385 8.00033 8.78847 8.02618C8.90478 8.07787 8.95648 8.31051 8.93063 8.40098C8.89186 8.4656 8.86601 8.47852 8.81432 8.4139C8.73677 8.24589 8.698 8.3622 8.68507 8.4656C8.67215 8.64653 8.68507 8.80162 8.71092 8.93086C8.73677 9.0601 8.71092 9.02133 8.67215 8.96964" fill="white"/>
<path d="M16.7109 9.44783C16.53 9.83555 16.2715 10.2233 16.194 10.3654C16.1164 10.5205 15.509 11.3864 15.4185 11.4898C15.2247 11.7225 15.7416 11.3864 15.3539 11.8517C15.2117 11.9809 15.1988 11.9809 15.0825 12.0843C15.0179 12.136 14.8757 12.2007 14.8499 12.0843C14.8369 11.968 14.8499 11.9034 14.8628 11.8C14.8757 11.7354 14.9662 11.6191 15.0179 11.5674C15.6253 10.7402 16.1681 9.91309 16.698 8.86624C16.7885 8.90502 16.7626 9.37028 16.7109 9.4349" fill="white"/>
<path d="M15.9096 8.1425C15.9096 8.1425 16.0001 7.92279 16.1552 7.93571C16.4266 7.96156 16.6592 8.11665 16.8789 8.51729C16.9306 8.60776 17.034 8.81455 17.0469 8.96964C17.0599 9.87432 16.9953 10.5722 16.866 11.2313C16.866 11.296 16.866 11.3735 16.866 11.3864C16.8789 11.4123 16.9436 11.3864 16.9694 11.4381C17.0211 11.4898 16.8531 11.8776 16.7497 12.0326C16.7238 12.0973 16.7109 12.149 16.6463 12.0326C16.5946 11.9292 16.5429 11.7612 16.5558 11.6061C16.6851 10.7144 16.7238 9.93894 16.8143 9.04718C16.8143 8.95671 16.8143 8.82747 16.7497 8.7887C16.5429 8.56899 16.2327 8.29758 15.8967 8.16834" fill="white"/>
<path d="M19.5542 8.1425C19.3604 8.02618 19.3604 7.89694 19.5154 7.89694C19.7869 7.92279 20.11 7.94863 20.3297 8.28466C20.3943 8.37513 20.4589 8.63361 20.4589 8.7887C20.4848 9.69338 20.4589 10.5722 20.3167 11.2313C20.3167 11.296 20.278 11.4381 20.2909 11.464C20.3038 11.5028 20.3943 11.464 20.4331 11.5028C20.4848 11.5415 20.2004 11.9034 20.11 12.0456C20.0712 12.1102 20.0712 12.1619 20.0066 12.0456C19.9419 11.9551 19.929 11.7742 19.9549 11.6191C20.097 10.6498 20.2004 9.71923 20.2263 8.86624C20.2263 8.7887 20.2133 8.737 20.1746 8.64653C20.0841 8.53022 19.9936 8.40098 19.9161 8.33636C19.8256 8.27174 19.6447 8.20712 19.5801 8.15542" fill="white"/>
<path d="M19.6964 9.00841C19.6964 9.22812 19.6964 9.4349 19.6964 9.60292C19.6964 9.77093 19.6059 10.4042 19.5801 10.5334C19.5542 10.6756 19.5284 10.8695 19.4896 11.0375C19.4767 11.1021 19.4508 11.3089 19.4508 11.3218C19.4637 11.3606 19.5284 11.3218 19.5542 11.3735C19.6059 11.4252 19.3991 11.9292 19.2957 12.0843C19.257 12.149 19.1923 12.1231 19.1148 12.0197C19.0373 11.9422 19.0631 11.7871 19.089 11.632C19.2828 10.6239 19.425 9.56414 19.3991 8.60776C19.3991 8.53022 19.6835 8.85332 19.6835 9.00841" fill="white"/>
<path d="M18.2618 10.262C18.1326 10.262 17.887 10.4947 17.8095 10.6368C17.7836 10.7144 17.8095 10.7919 17.8224 10.8436C17.8741 10.8695 17.9387 10.9082 17.9904 10.8695C17.9904 10.8695 18.0421 10.7919 18.0292 10.7919C18.0938 10.7661 18.1196 10.779 18.1326 10.8049C18.1326 10.8436 18.1196 10.8824 18.1196 10.9341C18.1455 11.0763 18.3135 11.1021 18.3652 11.0116C18.404 10.9599 18.4298 10.8436 18.4298 10.7661C18.4298 10.7273 18.3652 10.7661 18.3264 10.7661C18.2877 10.7661 18.2747 10.7144 18.2747 10.6756C18.2747 10.5722 18.2489 10.4042 18.2489 10.2879" fill="white"/>
<path d="M16.0259 8.76285C16.0647 9.07303 16.0259 9.69338 16.013 9.87432C16.013 10.3008 15.9355 11.128 15.8967 11.2701C15.8579 11.5286 16.0001 11.2443 15.9872 11.3994C15.9355 11.6578 15.7933 11.8388 15.6253 12.0714C15.5736 12.149 15.5736 12.1619 15.4831 12.0456C15.3927 11.8388 15.4831 11.6837 15.4831 11.5157C15.6124 10.9858 15.677 10.4818 15.7158 10.0036C15.7416 9.51245 15.7545 8.90502 15.7158 8.38805C15.8062 8.38805 15.9484 8.54314 16.0001 8.76285" fill="white"/>
<path d="M20.11 9.25397C19.8902 9.61584 19.5671 10.0294 19.4896 10.1845C19.3991 10.3267 18.6754 11.3994 18.5849 11.5028C18.3135 11.7742 18.7012 11.5545 18.5332 11.7742C18.3911 11.9292 18.3394 11.9809 18.223 12.0843C18.1584 12.1231 18.1196 12.2007 18.0938 12.0843C18.0938 11.968 18.0809 11.8259 18.0938 11.7354C18.0938 11.6837 18.1455 11.5803 18.1972 11.5157C18.8434 10.7144 19.5542 9.74508 20.1229 8.72408C20.2004 8.76285 20.1746 9.22812 20.1229 9.29274" fill="white"/>
<path d="M17.5122 5.00195C17.3184 4.95025 17.3313 4.75639 17.4476 4.66592C15.4444 4.66592 12.3684 4.69177 11.7093 4.69177C11.3345 4.69177 10.1713 4.73054 10.1455 4.73054C10.3911 4.36867 10.7529 4.29112 11.2311 4.2782C12.1229 4.2782 16.2457 4.2782 17.4088 4.2782C17.3313 4.13603 17.4088 3.9034 17.4864 3.8517C17.5639 3.83878 17.6027 3.89048 17.6285 3.92925C17.7448 3.92925 18.4557 3.9034 18.5203 3.92925C18.5591 3.86463 18.6108 3.80001 18.6883 3.81293C18.8305 3.83878 18.9468 3.86463 18.9597 4.16188C18.9597 4.16188 18.9468 4.66592 18.6108 4.64007C18.5332 4.64007 18.3135 4.61422 18.3135 4.61422C18.055 4.64007 17.8741 4.64007 17.5898 4.653C17.6156 4.67884 17.6544 4.82101 17.6027 4.87271C17.6027 4.87271 17.5639 4.88563 17.5381 4.88563C17.5251 4.89855 17.5122 4.95025 17.5122 4.9761V5.00195ZM17.6415 4.2782C17.9387 4.2782 18.2101 4.2782 18.4944 4.26527C18.5461 4.2265 18.5203 4.13603 18.4944 4.12311C18.404 4.12311 18.3394 4.12311 18.2489 4.12311C18.2489 4.12311 18.2489 4.12311 18.2489 4.13603C18.223 4.20065 18.068 4.20065 18.0292 4.13603V4.12311C17.8999 4.11019 17.7836 4.12311 17.6544 4.13603C17.6156 4.1748 17.6285 4.26527 17.6673 4.29112" fill="white"/>
<path d="M12.446 11.7742C12.2521 11.2184 12.5623 10.611 12.7691 10.6627C12.9242 10.5981 13.0146 10.8953 13.0793 11.2184C13.118 11.3089 13.1568 11.3218 13.1827 11.2701C13.1827 10.8436 13.2085 10.7532 13.3248 10.6239C13.5704 10.4301 13.7642 10.5981 13.7901 10.6239C13.803 10.6368 13.9839 10.8178 13.9839 10.8178C14.0227 10.8565 14.0744 10.8695 14.139 10.8178C14.1907 10.7661 14.1907 10.6756 14.32 10.611C14.4234 10.5593 14.6431 10.5981 14.6948 10.6885C14.7723 10.8049 14.7852 10.8436 14.8111 10.8953C14.8628 10.9599 14.9532 10.9341 14.9532 10.9082C14.9532 10.8695 14.9016 10.8307 14.9274 10.7661C14.992 10.7273 15.0049 10.7532 15.0437 10.7661C15.173 10.8307 15.2634 11.1021 15.2634 11.1021C15.2634 11.2055 15.2117 11.1926 15.173 11.1667C15.1213 11.1409 15.1213 11.128 15.0825 11.1021C15.0308 11.1021 14.9016 11.0504 14.8499 11.1409C14.7852 11.2443 14.7852 11.3994 14.7465 11.5157C14.7465 11.5157 14.6689 11.6837 14.7465 11.6966C14.7852 11.6966 14.8628 11.6708 14.8757 11.7354C14.9145 11.8 14.7852 11.9809 14.7077 12.0714C14.6301 12.149 14.5268 12.1619 14.4363 12.0714C14.3717 12.0068 14.3846 11.9422 14.3587 11.8776C14.3458 11.8 14.3587 11.7095 14.4234 11.6061C14.488 11.4769 14.6172 11.296 14.5785 11.0633C14.5785 11.0633 14.5138 10.947 14.3846 10.9599C14.3329 10.9729 14.2424 10.9987 14.2037 11.3218C14.1649 11.5803 14.2037 11.9292 14.1003 12.0973C14.0615 12.2007 14.0356 12.2911 13.9322 12.1231C13.9064 12.0585 13.803 11.9551 13.8806 11.7483C13.9452 11.6191 13.971 11.3994 13.9452 11.1538C13.8935 11.0892 13.8935 11.0633 13.8289 10.9858C13.7384 10.8953 13.6608 10.9212 13.5833 10.9599C13.5187 10.9987 13.467 11.0246 13.4411 11.1538C13.4411 11.3735 13.4541 11.7354 13.4153 11.8129C13.3636 11.9292 13.2602 11.8905 13.2214 11.8517C13.0146 11.6708 12.9242 11.3606 12.8595 11.115C12.8079 10.9341 12.7432 10.9858 12.7045 11.0633C12.6011 11.1538 12.6011 11.8905 12.4718 11.7742" fill="white"/>
<path d="M13.1051 10.611C13.1051 10.611 13.0793 10.5851 13.0405 10.5593C12.9759 10.4947 12.9759 10.443 12.9759 10.3267C12.9759 10.3137 13.0793 10.0165 13.1697 9.8097C13.2343 9.58999 13.286 9.35736 13.2473 9.1118C13.1051 8.80162 12.8208 8.53022 12.5494 8.38805C12.4072 8.34928 12.2909 8.34928 12.2521 8.38805C12.1746 8.43975 12.1746 8.54314 12.1746 8.55607C12.4072 8.71115 12.6657 8.8404 12.8725 9.27981C12.9371 9.44783 12.95 9.55122 12.8854 9.79678C12.8595 9.88724 12.8337 9.96479 12.7691 10.0294C12.8079 10.0423 12.9112 9.96479 12.9242 10.0294C12.8983 10.1587 12.8208 10.3137 12.7303 10.4042C12.6528 10.4818 12.5623 10.4818 12.4848 10.4171C12.3943 10.3654 12.3814 10.1974 12.4201 10.0553C12.4718 9.95187 12.5881 9.92602 12.6786 9.70631C12.6786 9.70631 12.7045 9.53829 12.6657 9.47367C12.6269 9.35736 12.1746 8.99548 12.1358 8.98256C12.1358 8.98256 12.1358 9.02133 12.1358 9.0601C12.1358 9.12472 12.1616 9.27981 12.1616 9.30566C12.0066 9.20227 11.9549 8.90502 11.929 8.81455C11.5413 8.55607 11.1148 8.34928 10.8563 8.07788C10.7271 7.87109 11.761 8.31051 11.8773 8.3622C11.9032 8.33636 11.9032 8.25881 11.9678 8.16834C12.0712 8.02618 12.3038 7.93571 12.5235 7.98741C12.8983 8.11665 13.1051 8.37513 13.3248 8.65946C13.3507 8.69823 13.4024 8.737 13.4541 8.69823C13.6091 8.3622 14.0356 8.12957 14.5914 8.10372C14.7206 8.25881 14.656 8.33636 14.6043 8.37513C14.5914 8.37513 14.3329 8.49145 14.2812 8.59484C14.2553 8.68531 14.32 8.77577 14.4492 8.82747C14.8111 8.86624 15.16 8.91794 15.4961 9.03426C15.4961 9.15057 15.5607 9.31859 15.6124 9.39613C15.6382 9.44783 15.6641 9.44783 15.677 9.46075L15.6253 9.49952H14.488C14.488 9.49952 14.4621 9.52537 14.4492 9.52537V9.5383C14.4492 9.5383 14.4751 9.55122 14.488 9.56414C14.7594 9.60292 15.2505 9.68046 15.2764 10.1457C15.2764 10.3913 15.173 10.5464 14.8757 10.5851C14.656 10.5593 14.5009 10.3525 14.5268 10.1199C14.5268 10.0553 14.5526 9.93894 14.488 9.92602C14.0615 9.88725 13.6091 9.62876 13.5962 9.4349C13.5962 9.4349 13.5316 9.4866 13.5445 9.55122C13.5316 9.87432 13.4153 10.2491 13.2602 10.5334C13.2085 10.5981 13.1697 10.6239 13.1568 10.6239L13.1051 10.611ZM14.7723 10.1974C14.7723 10.1974 14.824 10.1974 14.8628 10.1716C14.9145 10.1457 14.9403 10.107 14.9274 10.0811C14.9016 10.0553 14.8499 10.0682 14.8111 10.0811C14.7723 10.107 14.7335 10.1457 14.7465 10.1716V10.1845C14.7465 10.1845 14.7594 10.1845 14.7723 10.1845M13.7125 9.22812H13.7255C13.8547 9.18935 14.0356 9.18934 14.2037 9.17642C14.3329 9.17642 14.3975 9.0601 14.2812 9.02133C14.1649 8.98256 14.0356 8.94379 14.0356 8.76285C14.0486 8.67238 14.0356 8.63361 14.0356 8.60776C14.0098 8.60776 13.9581 8.63361 13.9322 8.64653C13.8547 8.69823 13.6479 8.82747 13.6091 9.1118C13.6091 9.17642 13.6479 9.22812 13.7255 9.24104" fill="white"/>
<path d="M10.0421 11.7612C10.1713 11.6966 10.4169 11.7225 10.4169 11.9422C10.4169 11.9551 10.4169 12.0197 10.4169 12.0456C10.3911 12.1102 10.3135 12.0973 10.3006 12.0326C10.3006 12.0197 10.3006 11.9809 10.3006 11.968C10.3006 11.968 10.2489 11.968 10.2489 12.0197C10.2489 12.0456 10.2489 12.0585 10.223 12.0714C10.223 12.0714 10.2101 12.0714 10.1972 12.0714C10.1843 12.0714 10.1843 12.0714 10.1713 12.0456C10.1713 12.0326 10.1713 12.0068 10.1713 11.9939C10.1713 11.968 10.1713 11.968 10.1455 11.9551C10.1455 11.9551 10.1455 11.9551 10.1196 11.9551C10.1196 11.9551 10.1067 11.968 10.1067 11.9809C10.1067 11.9809 10.1067 12.0197 10.1067 12.0326C10.1067 12.0326 10.0938 12.0456 10.0679 12.0456C9.9904 12.0456 9.99041 11.968 9.99041 11.9292C9.99041 11.9292 9.99041 11.7742 10.0809 11.7354" fill="white"/>
<path d="M13.8935 10.1328C14.0227 10.0682 14.3329 10.107 14.2683 10.3137C14.2683 10.3267 14.2683 10.3913 14.2683 10.4171C14.2424 10.4818 14.1649 10.4688 14.152 10.4042C14.152 10.3784 14.152 10.3525 14.152 10.3396C14.152 10.3396 14.1003 10.3396 14.1003 10.3913C14.1003 10.4171 14.1003 10.4301 14.0873 10.443C14.0873 10.443 14.0744 10.443 14.0615 10.443C14.0486 10.443 14.0486 10.443 14.0356 10.4171C14.0356 10.4042 14.0356 10.3913 14.0356 10.3654C14.0356 10.3396 14.0356 10.3396 14.0098 10.3267C13.9969 10.3267 14.0098 10.3267 13.9839 10.3267C13.9839 10.3267 13.971 10.3396 13.971 10.3525C13.971 10.3654 13.971 10.3913 13.971 10.4042C13.971 10.4042 13.9452 10.4171 13.9322 10.4171C13.8676 10.4171 13.8547 10.3396 13.8676 10.3008C13.8676 10.3008 13.8676 10.1457 13.9581 10.107" fill="white"/>
<path d="M16.1423 10.8049C16.2715 10.7402 16.5171 10.7661 16.5041 10.9858C16.5041 10.9987 16.5041 11.0633 16.5041 11.0892C16.4783 11.1538 16.4007 11.1409 16.3878 11.0763C16.3878 11.0633 16.3878 11.0246 16.3878 11.0116C16.3878 11.0116 16.3361 11.0116 16.3361 11.0633C16.3361 11.0763 16.3361 11.1021 16.3103 11.115C16.3103 11.115 16.2974 11.115 16.2844 11.115C16.2844 11.115 16.2715 11.115 16.2586 11.0892C16.2586 11.0763 16.2586 11.0504 16.2586 11.0375C16.2586 11.0246 16.2586 11.0116 16.2327 11.0116C16.2198 11.0116 16.2198 11.0116 16.2069 11.0116C16.2069 11.0116 16.194 11.0246 16.194 11.0375C16.194 11.0504 16.194 11.0763 16.194 11.0892C16.194 11.0892 16.1681 11.0892 16.1552 11.1021C16.0906 11.1021 16.0776 11.0246 16.0906 10.9858C16.0906 10.9858 16.0906 10.8307 16.181 10.7919" fill="white"/>
<path d="M17.3054 9.1118C17.0728 8.85332 17.1762 8.42683 17.2279 8.33636C17.3054 8.18127 17.37 8.0908 17.5122 8.01326C17.6544 7.90986 17.7448 7.97448 17.8095 8.05203C17.9387 8.19419 17.9516 8.54314 18.0033 8.62069C18.0421 8.74993 18.1584 8.72408 18.2101 8.67238C18.2618 8.59484 18.3264 8.54314 18.404 8.50437C18.5332 8.40098 18.6754 8.37513 18.8305 8.47852C18.9339 8.53022 18.9985 8.60776 19.0502 8.74993C19.1148 8.93086 19.076 9.88724 19.0631 10.3654C19.0631 10.4042 18.9339 11.0246 18.9339 11.0375C18.9339 11.0504 18.9209 11.3606 18.8951 11.4252C18.8951 11.464 18.8951 11.464 18.9209 11.464C18.9468 11.4381 18.9597 11.4252 18.9726 11.4252C19.0114 11.4252 19.0373 11.4769 19.0114 11.5286C18.908 11.7225 18.8046 11.9163 18.7012 12.1102C18.6754 12.136 18.6495 12.1619 18.5978 12.1102C18.5591 12.0714 18.5203 12.0197 18.5203 11.9422C18.5203 11.8 18.5591 11.6578 18.5591 11.5286C18.5978 11.296 18.6495 11.0633 18.6883 10.8178C18.7271 10.3137 18.74 9.8614 18.7788 9.35736C18.7788 9.15057 18.7012 8.86624 18.6366 8.8404C18.6366 8.8404 18.5461 8.7887 18.4815 8.8404C18.4298 8.86624 18.2489 9.15057 18.2489 9.15057C18.1584 9.24104 18.0938 9.21519 18.0292 9.15057C17.8482 8.96964 17.7578 8.64653 17.6415 8.4139C17.6027 8.3622 17.5122 8.32343 17.4088 8.4139C17.1503 8.76285 17.3054 9.26689 17.2667 9.13765" fill="white"/>
<path d="M16.2069 12.0326C16.3232 11.9809 16.4007 11.7483 16.3749 11.632C16.349 11.4898 16.2844 11.3347 16.2457 11.3477C16.194 11.3606 16.2844 11.4898 16.2327 11.6191C16.2069 11.7095 16.0518 11.8517 16.0647 11.9034C16.0259 11.9939 16.1293 12.0456 16.2069 12.0197" fill="white"/>
<path d="M17.6932 8.96964C17.719 9.25397 17.6673 9.4349 17.6673 9.60292C17.6673 9.77093 17.4734 11.1409 17.4476 11.2701C17.4088 11.5157 17.6285 11.3089 17.6027 11.4381C17.5251 11.6191 17.3313 11.8776 17.2796 12.0326C17.2408 12.0973 17.2537 12.1619 17.1762 12.0456C17.0986 11.8 17.0728 11.6061 17.0986 11.4511C17.2925 10.443 17.4864 9.52537 17.4605 8.56899C17.551 8.56899 17.6544 8.77577 17.7061 8.98256" fill="white"/>
<path d="M19.7093 11.6966C19.8127 11.6449 19.8773 11.3477 19.8644 11.2572C19.8385 11.1021 19.7869 10.9341 19.7481 10.9599C19.6964 10.9729 19.7481 11.1926 19.7352 11.2572C19.7093 11.3477 19.5671 11.5157 19.5801 11.5674C19.5542 11.6708 19.6447 11.7225 19.7093 11.6966Z" fill="white"/>
<path d="M11.7222 9.51245C11.8256 9.47368 11.8773 9.25397 11.8773 9.18935C11.8644 9.07303 11.7998 8.95671 11.761 8.96964C11.7222 8.98256 11.761 9.13765 11.761 9.18935C11.761 9.30566 11.6059 9.37028 11.6188 9.42198C11.593 9.51245 11.6705 9.52537 11.7481 9.51245" fill="white"/>
<path d="M8.9694 12.1102C9.12449 12.0585 9.12449 11.8388 9.12449 11.7742C9.11157 11.6578 9.04695 11.5286 9.00818 11.5415C8.9694 11.5544 9.00818 11.7225 8.99525 11.7612C8.9694 11.8388 8.84016 11.9551 8.86601 11.9939C8.84016 12.0714 8.91771 12.1102 8.98233 12.0973" fill="white"/>
<path d="M11.9678 11.0633C11.8515 10.9987 11.8127 10.8178 11.8773 10.7015C11.9419 10.611 12.0453 10.6498 12.0583 10.6498C12.1746 10.6368 12.2392 10.8695 12.2392 10.8695C12.2392 10.8695 12.2392 10.9341 12.11 10.8178C12.0583 10.8178 12.0453 10.8178 12.0324 10.8566C12.0195 10.9212 12.0324 10.9729 12.0453 11.0375C12.0712 11.0892 12.0195 11.128 11.9549 11.0763" fill="white"/>
<path d="M12.8337 12.2007C12.8337 12.2007 12.6528 12.0456 12.6528 11.9034C12.6528 11.8259 12.6398 11.8259 12.6915 11.7742C12.7303 11.7225 12.7691 11.7225 12.8466 11.7742C12.8854 11.8 12.8983 11.8259 12.9242 11.8776C12.9371 11.968 12.8337 11.8388 12.8208 11.9292C12.7949 12.0197 12.8725 12.0585 12.9371 12.149C12.9371 12.2136 12.9371 12.2523 12.8595 12.2007" fill="white"/>
<path d="M13.5445 12.0714L13.4928 11.7225C13.4799 11.632 13.5833 11.5932 13.635 11.7095C13.7125 11.9163 13.7125 11.9939 13.7125 12.0843C13.6867 12.2136 13.5962 12.2136 13.5445 12.0714Z" fill="white"/>
<path d="M17.9775 9.82262L18.5978 10.262C18.6625 10.2879 18.6495 10.0423 18.6108 10.0423C18.6108 9.99064 18.0163 9.57707 17.9646 9.58999C17.9387 9.57707 17.8999 9.758 17.9646 9.8097" fill="white"/>
<path d="M18.5332 9.82262C18.6366 9.77093 18.6883 9.46075 18.6754 9.37028C18.6754 9.20227 18.572 9.07303 18.5332 9.08595C18.4815 9.1118 18.5332 9.29274 18.5203 9.35736C18.4944 9.44783 18.404 9.62876 18.4169 9.66754C18.3911 9.77093 18.4686 9.83555 18.5461 9.8097" fill="white"/>
<path d="M14.9016 8.4656L15.0696 8.62069C15.1342 8.65946 15.1859 8.59484 15.1859 8.59484C15.1859 8.54314 15.1471 8.47852 15.16 8.40098C15.16 8.3622 15.1859 8.33636 15.2376 8.34928C15.341 8.42683 15.4314 8.42682 15.5219 8.42682C15.5995 8.42682 15.5995 8.29758 15.5478 8.29758C15.3668 8.25881 15.2893 8.20712 15.16 8.15542C15.0954 8.11665 15.0437 8.15542 15.0437 8.16834C15.0437 8.16834 15.0049 8.20712 15.0437 8.28466C15.0437 8.34928 15.0179 8.38805 14.9662 8.37513C14.9274 8.34928 14.8886 8.33636 14.8757 8.37513C14.8757 8.4139 14.8757 8.42682 14.8886 8.45267" fill="white"/>
<path d="M19.1665 8.29758C19.1665 8.29758 19.2053 8.23296 19.1665 8.18127C19.1277 8.1425 19.089 8.11665 19.0502 8.07788C19.0373 8.0391 19.0243 7.98741 19.076 7.97448C19.1923 7.94863 19.4508 8.11665 19.4508 8.11665C19.5025 8.1425 19.4767 8.20712 19.4767 8.20712C19.4508 8.23296 19.3862 8.22004 19.3474 8.22004C19.3345 8.22004 19.2699 8.22004 19.2957 8.28466C19.3216 8.32343 19.3216 8.33636 19.3474 8.37513C19.3604 8.4139 19.3474 8.43975 19.2828 8.4656C19.2182 8.47852 19.1923 8.4656 19.1148 8.4656C19.076 8.4656 19.0631 8.43975 19.0502 8.38805C19.0502 8.32343 19.1019 8.32343 19.1406 8.29758" fill="white"/>
</g>
<defs>
<clipPath id="clip0_406_435">
<rect width="27.412" height="16" fill="white" transform="matrix(1 0 0 -1 0.839844 16)"/>
</clipPath>
</defs>
</svg>
