<svg width="28" height="16" viewBox="0 0 28 16" fill="none" xmlns="http://www.w3.org/2000/svg">
<g clip-path="url(#clip0_406_350)">
<path d="M27.4419 0H0V16H27.4419V0Z" fill="#3C9342"/>
<path d="M4.22656 8.00023L13.7149 14.06L23.2166 8.00023L13.7149 1.94043L4.22656 8.00023Z" fill="#F0C429"/>
<path d="M17.7148 8C17.7148 10.206 15.9208 12 13.7148 12C11.5089 12 9.71484 10.206 9.71484 8C9.71484 5.79402 11.5089 4 13.7148 4C15.9208 4 17.7148 5.79402 17.7148 8Z" fill="#2F2B68"/>
<path d="M11.4291 6.28571C10.964 6.28571 10.4989 6.32558 10.0471 6.37874C9.96734 6.57807 9.8876 6.77741 9.83445 6.99003C10.3527 6.89701 10.8843 6.85714 11.4291 6.85714C13.768 6.85714 15.9208 7.74751 17.5288 9.19601C17.5952 8.98339 17.6484 8.77076 17.675 8.55814C15.9873 7.13621 13.8079 6.28571 11.4291 6.28571Z" fill="white"/>
<path fill-rule="evenodd" clip-rule="evenodd" d="M10.3129 6.83056C10.4059 6.83056 10.4723 6.72425 10.459 6.61794C10.459 6.51163 10.366 6.43189 10.273 6.44518C10.18 6.44518 10.1135 6.5515 10.1268 6.65781C10.1268 6.76412 10.2198 6.84385 10.3261 6.83056M10.3261 6.76412C10.3261 6.76412 10.4192 6.69767 10.4059 6.63123C10.4059 6.56478 10.3527 6.51163 10.2863 6.52492C10.2331 6.52492 10.1932 6.59136 10.1932 6.65781C10.1932 6.72425 10.2597 6.76412 10.3129 6.76412" fill="#3C9342"/>
<path fill-rule="evenodd" clip-rule="evenodd" d="M10.6185 6.80399H10.6849V6.65781H10.8311C10.8311 6.65781 10.9507 6.59136 10.9374 6.52492C10.9374 6.45847 10.871 6.40532 10.8045 6.4186H10.5786L10.6052 6.81728L10.6185 6.80399ZM10.8178 6.59136C10.8178 6.59136 10.8577 6.5515 10.8577 6.52492C10.8577 6.49834 10.8311 6.48505 10.8045 6.48505H10.6584V6.59136H10.8178Z" fill="#3C9342"/>
<path d="M10.9374 6.77741C10.9374 6.77741 10.9374 6.60465 10.8444 6.60465H10.7381C10.8577 6.60465 10.871 6.72425 10.871 6.77741" fill="#3C9342"/>
<path fill-rule="evenodd" clip-rule="evenodd" d="M11.2697 6.77741C11.3627 6.77741 11.4291 6.69767 11.4291 6.60465V6.55149C11.4291 6.45847 11.3494 6.39203 11.2564 6.39203H11.0836V6.77741H11.2697ZM11.1633 6.69767H11.2697C11.2697 6.69767 11.376 6.64452 11.376 6.59136V6.55149C11.376 6.55149 11.3228 6.44518 11.2697 6.44518H11.1633V6.69767Z" fill="#3C9342"/>
<path d="M11.5753 6.76412L11.9208 6.77741L11.9341 6.71096L11.655 6.69767V6.60465H11.8677V6.53821H11.655V6.45847L11.9208 6.47176V6.39203L11.6019 6.37874L11.5753 6.76412Z" fill="#3C9342"/>
<path d="M12.067 6.7907H12.1334L12.16 6.52492L12.1999 6.7907L12.2663 6.80399L12.3594 6.55149L12.3461 6.80399L12.4125 6.81728L12.4391 6.43189H12.3461L12.2531 6.68439L12.1999 6.4186L12.0936 6.40532L12.067 6.7907Z" fill="#3C9342"/>
<path d="M12.8511 6.87043L13.1434 6.92359V6.85714L12.9308 6.81728L12.9441 6.73754L13.1301 6.76412V6.69767L12.9574 6.6711L12.9707 6.60465L13.1833 6.64452V6.57807L12.9175 6.53821L12.8511 6.87043Z" fill="#3C9342"/>
<path fill-rule="evenodd" clip-rule="evenodd" d="M13.582 7.01661H13.6484L13.6883 6.89701L13.8344 6.93688C13.9009 6.95017 13.9673 6.9103 13.9806 6.84385C13.9939 6.77741 13.954 6.71096 13.9009 6.69767L13.6883 6.64452L13.582 7.01661ZM13.7016 6.83056L13.8344 6.87043C13.8344 6.87043 13.8876 6.87043 13.8876 6.83056C13.8876 6.80399 13.8876 6.77741 13.8477 6.77741L13.7148 6.73754L13.6883 6.83056H13.7016Z" fill="#3C9342"/>
<path fill-rule="evenodd" clip-rule="evenodd" d="M14.0471 7.13621L14.1135 7.16279L14.1534 7.0299L14.2996 7.06977C14.2996 7.06977 14.4325 7.05648 14.4457 6.99003C14.4723 6.92359 14.4325 6.85714 14.366 6.84385L14.1534 6.77741L14.0338 7.13621H14.0471ZM14.18 6.95017L14.3129 6.99003C14.3129 6.99003 14.366 6.99003 14.3793 6.96345C14.3793 6.93688 14.3793 6.9103 14.3527 6.89701L14.2198 6.85714L14.1932 6.95017H14.18Z" fill="#3C9342"/>
<path d="M14.3527 7.24252C14.3527 7.24252 14.4059 7.08306 14.3261 7.05648L14.2331 7.0299C14.3394 7.06977 14.3128 7.17608 14.2863 7.22924" fill="#3C9342"/>
<path fill-rule="evenodd" clip-rule="evenodd" d="M14.6717 7.34884C14.7647 7.37542 14.8577 7.32226 14.8976 7.22924C14.9374 7.12292 14.8976 7.01661 14.8045 6.99003C14.7115 6.95017 14.6185 7.00332 14.5786 7.10963C14.5388 7.20266 14.5786 7.30897 14.6717 7.34884ZM14.6982 7.28239C14.6982 7.28239 14.8045 7.2691 14.8311 7.20266C14.8577 7.13621 14.8311 7.06977 14.778 7.05648C14.7248 7.0299 14.6584 7.06977 14.6451 7.13621C14.6185 7.20266 14.6451 7.2691 14.6982 7.28239Z" fill="#3C9342"/>
<path fill-rule="evenodd" clip-rule="evenodd" d="M15.1235 7.53488C15.2032 7.57475 15.3095 7.53488 15.3627 7.42857C15.4026 7.33555 15.3627 7.21595 15.2829 7.18937C15.1899 7.1495 15.0969 7.18937 15.057 7.29568C15.0172 7.3887 15.057 7.50831 15.1368 7.53488M15.1633 7.46844C15.1633 7.46844 15.2697 7.46844 15.2962 7.40199C15.3228 7.34884 15.2962 7.2691 15.2564 7.25581C15.2032 7.22924 15.1368 7.25581 15.1235 7.32226C15.0969 7.3887 15.1235 7.45515 15.1633 7.46844Z" fill="#3C9342"/>
<path d="M15.2165 7.36213L15.3494 7.42857L15.3228 7.46844L15.1899 7.41528L15.2165 7.36213Z" fill="#3C9342"/>
<path d="M15.2962 7.40199L15.3494 7.42857L15.2697 7.60133L15.2298 7.57475L15.2962 7.40199Z" fill="#3C9342"/>
<path fill-rule="evenodd" clip-rule="evenodd" d="M15.4026 7.65449L15.469 7.68106L15.5354 7.54817L15.6683 7.61462C15.6683 7.61462 15.8012 7.61462 15.8278 7.56146C15.8544 7.50831 15.8278 7.42857 15.7746 7.40199L15.5753 7.30897L15.4026 7.65449ZM15.562 7.49502L15.6949 7.56146C15.6949 7.56146 15.7481 7.56146 15.7614 7.53488C15.7614 7.50831 15.7614 7.48173 15.7481 7.46844L15.6152 7.40199L15.5753 7.49502H15.562Z" fill="#3C9342"/>
<path d="M15.6949 7.80066C15.6949 7.80066 15.7746 7.6412 15.6949 7.61462L15.6019 7.56146C15.7082 7.61462 15.655 7.72093 15.6285 7.77409" fill="#3C9342"/>
<path d="M15.8278 7.8804L16.1334 8.03987L16.16 7.98671L15.9208 7.85382L15.974 7.7608L16.16 7.86711L16.1999 7.81395L16.0006 7.70764L16.0404 7.6412L16.2663 7.77409L16.3062 7.70764L16.0138 7.54817L15.8278 7.8804Z" fill="#3C9342"/>
<path d="M16.3859 8.06645C16.3859 8.06645 16.3859 8.13289 16.4258 8.15947C16.479 8.18605 16.5055 8.18605 16.5188 8.15947C16.5587 8.09302 16.3195 8 16.3992 7.8804C16.4657 7.78738 16.572 7.85382 16.6119 7.8804C16.6517 7.90698 16.7182 7.97342 16.665 8.05316L16.5986 8C16.5986 8 16.5986 7.93355 16.5587 7.90698C16.5188 7.8804 16.4923 7.86711 16.4657 7.90698C16.4258 7.96013 16.665 8.05316 16.5986 8.17276C16.5454 8.25249 16.4524 8.21262 16.3992 8.17276C16.3461 8.13289 16.2663 8.05316 16.3195 7.97342L16.3992 8.01329L16.3859 8.06645Z" fill="#3C9342"/>
<path d="M16.7979 8.33223C16.7979 8.33223 16.7979 8.39867 16.8378 8.43854C16.8776 8.4784 16.9175 8.4784 16.9308 8.45183C16.9707 8.38538 16.7315 8.27907 16.8245 8.17276C16.8909 8.07973 16.9972 8.15947 17.0371 8.18605C17.077 8.21262 17.1434 8.29236 17.077 8.3588L17.0105 8.30565C17.0105 8.30565 17.0105 8.2392 16.9707 8.21262C16.9308 8.18605 16.9175 8.17276 16.8909 8.21262C16.8511 8.26578 17.077 8.37209 17.0105 8.49169C16.9574 8.57143 16.8643 8.53156 16.8112 8.49169C16.758 8.45183 16.6783 8.37209 16.7315 8.29236L16.8112 8.34552L16.7979 8.33223Z" fill="#3C9342"/>
<path fill-rule="evenodd" clip-rule="evenodd" d="M17.1833 8.77076C17.2497 8.82392 17.3693 8.81063 17.4358 8.7309C17.5022 8.65116 17.4889 8.53156 17.4358 8.4784C17.356 8.41196 17.2497 8.43854 17.1833 8.51827C17.1168 8.59801 17.1301 8.71761 17.1966 8.77076M17.2364 8.71761C17.2364 8.71761 17.356 8.74419 17.3959 8.69103C17.4358 8.63787 17.4358 8.57143 17.3959 8.53156C17.356 8.49169 17.2896 8.50498 17.2497 8.55814C17.2099 8.6113 17.2099 8.67774 17.2497 8.71761" fill="#3C9342"/>
<path d="M10.4457 7.10963L10.3926 7.28239L10.4856 7.30897L10.4457 7.10963Z" fill="white"/>
<path d="M10.4457 7.10963L10.5122 7.28239L10.4192 7.30897L10.4457 7.10963Z" fill="white"/>
<path d="M10.6185 7.22924H10.4457V7.32226L10.6185 7.22924Z" fill="white"/>
<path d="M10.6185 7.22924L10.4723 7.33555L10.4192 7.2691L10.6185 7.22924Z" fill="white"/>
<path d="M10.2863 7.22924L10.4325 7.33555L10.4723 7.2691L10.2863 7.22924Z" fill="white"/>
<path d="M10.2863 7.22924H10.459V7.32226L10.2863 7.22924Z" fill="white"/>
<path d="M10.5521 7.42857L10.4989 7.25581L10.4192 7.28239L10.5521 7.42857Z" fill="white"/>
<path d="M10.5521 7.42857L10.4192 7.32226L10.4723 7.25581L10.5521 7.42857Z" fill="white"/>
<path d="M10.3527 7.42857L10.4856 7.32226L10.4457 7.25581L10.3527 7.42857Z" fill="white"/>
<path d="M10.3527 7.42857L10.4059 7.25581L10.4856 7.28239L10.3527 7.42857Z" fill="white"/>
<path d="M10.8045 8.79734L10.7514 8.95681L10.8311 8.98339L10.8045 8.79734Z" fill="white"/>
<path d="M10.8045 8.79734L10.8577 8.95681L10.778 8.98339L10.8045 8.79734Z" fill="white"/>
<path d="M10.964 8.91694H10.7913V8.99668L10.964 8.91694Z" fill="white"/>
<path d="M10.964 8.91694L10.8311 9.00997L10.778 8.94352L10.964 8.91694Z" fill="white"/>
<path d="M10.6451 8.91694L10.778 9.00997L10.8311 8.94352L10.6451 8.91694Z" fill="white"/>
<path d="M10.6451 8.91694H10.8178V8.99668L10.6451 8.91694Z" fill="white"/>
<path d="M10.9109 9.10299L10.8577 8.94352L10.778 8.9701L10.9109 9.10299Z" fill="white"/>
<path d="M10.9109 9.10299L10.7647 8.99668L10.8178 8.93023L10.9109 9.10299Z" fill="white"/>
<path d="M10.6982 9.10299L10.8444 8.99668L10.7913 8.93023L10.6982 9.10299Z" fill="white"/>
<path d="M10.6982 9.10299L10.7514 8.94352L10.8444 8.9701L10.6982 9.10299Z" fill="white"/>
<path d="M10.3129 9.2093L10.2863 9.31561L10.3394 9.34219L10.3129 9.2093Z" fill="white"/>
<path d="M10.3129 9.2093L10.3527 9.31561L10.2996 9.34219L10.3129 9.2093Z" fill="white"/>
<path d="M10.4192 9.28904H10.3129V9.34219L10.4192 9.28904Z" fill="white"/>
<path d="M10.4192 9.28904L10.3394 9.35548L10.2996 9.31562L10.4192 9.28904Z" fill="white"/>
<path d="M10.2065 9.28904L10.2996 9.35548L10.3394 9.31562L10.2065 9.28904Z" fill="white"/>
<path d="M10.2065 9.28904H10.3261V9.34219L10.2065 9.28904Z" fill="white"/>
<path d="M10.3793 9.42193L10.3527 9.31561L10.2996 9.3289L10.3793 9.42193Z" fill="white"/>
<path d="M10.3793 9.42193L10.2863 9.35548L10.3261 9.30233L10.3793 9.42193Z" fill="white"/>
<path d="M10.2464 9.42193L10.3394 9.35548L10.3129 9.30233L10.2464 9.42193Z" fill="white"/>
<path d="M10.2464 9.42193L10.2863 9.31561L10.3394 9.3289L10.2464 9.42193Z" fill="white"/>
<path d="M11.2032 8.63787L11.1766 8.71761L11.2165 8.7309L11.2032 8.63787Z" fill="white"/>
<path d="M11.2032 8.63787L11.2165 8.71761L11.1899 8.7309L11.2032 8.63787Z" fill="white"/>
<path d="M11.2829 8.69103H11.1899V8.74419L11.2829 8.69103Z" fill="white"/>
<path d="M11.2829 8.69103L11.2032 8.74419L11.1899 8.71761L11.2829 8.69103Z" fill="white"/>
<path d="M11.1235 8.69103L11.1899 8.74419L11.2032 8.71761L11.1235 8.69103Z" fill="white"/>
<path d="M11.1235 8.69103H11.2032V8.74419L11.1235 8.69103Z" fill="white"/>
<path d="M11.2431 8.78405L11.2165 8.70432L11.1899 8.71761L11.2431 8.78405Z" fill="white"/>
<path d="M11.2431 8.78405L11.1766 8.74419L11.2032 8.70432L11.2431 8.78405Z" fill="white"/>
<path d="M11.1501 8.78405L11.2165 8.74419L11.1899 8.70432L11.1501 8.78405Z" fill="white"/>
<path d="M11.1501 8.78405L11.1766 8.70432L11.2165 8.71761L11.1501 8.78405Z" fill="white"/>
<path d="M11.6418 9.22259L11.6019 9.35548L11.655 9.38206L11.6418 9.22259Z" fill="white"/>
<path d="M11.6418 9.22259L11.6816 9.35548L11.6152 9.38206L11.6418 9.22259Z" fill="white"/>
<path d="M11.7746 9.31561H11.6285V9.39535L11.7746 9.31561Z" fill="white"/>
<path d="M11.7746 9.31561L11.655 9.40864L11.6152 9.34219L11.7746 9.31561Z" fill="white"/>
<path d="M11.5089 9.31561L11.6152 9.40864L11.655 9.34219L11.5089 9.31561Z" fill="white"/>
<path d="M11.5089 9.31561H11.6418V9.39535L11.5089 9.31561Z" fill="white"/>
<path d="M11.7215 9.47508L11.6816 9.34219L11.6152 9.36877L11.7215 9.47508Z" fill="white"/>
<path d="M11.7215 9.47508L11.6019 9.39535L11.655 9.34219L11.7215 9.47508Z" fill="white"/>
<path d="M11.562 9.47508L11.6683 9.39535L11.6285 9.34219L11.562 9.47508Z" fill="white"/>
<path d="M11.562 9.47508L11.6019 9.34219L11.6683 9.36877L11.562 9.47508Z" fill="white"/>
<path d="M11.5222 9.62126L11.4823 9.75415L11.5487 9.78073L11.5222 9.62126Z" fill="white"/>
<path d="M11.5222 9.62126L11.562 9.75415L11.4956 9.78073L11.5222 9.62126Z" fill="white"/>
<path d="M11.655 9.71429H11.5089V9.79402L11.655 9.71429Z" fill="white"/>
<path d="M11.655 9.71429L11.5354 9.80731L11.4956 9.74086L11.655 9.71429Z" fill="white"/>
<path d="M11.3893 9.71429L11.4956 9.80731L11.5354 9.74086L11.3893 9.71429Z" fill="white"/>
<path d="M11.3893 9.71429H11.5222V9.79402L11.3893 9.71429Z" fill="white"/>
<path d="M11.6019 9.87375L11.562 9.74086L11.4956 9.76744L11.6019 9.87375Z" fill="white"/>
<path d="M11.6019 9.87375L11.4823 9.79402L11.5354 9.74086L11.6019 9.87375Z" fill="white"/>
<path d="M11.4291 9.87375L11.5487 9.79402L11.5089 9.74086L11.4291 9.87375Z" fill="white"/>
<path d="M11.4291 9.87375L11.4823 9.74086L11.5487 9.76744L11.4291 9.87375Z" fill="white"/>
<path d="M14.964 6.59136L14.9109 6.75083L14.9906 6.77741L14.964 6.59136Z" fill="white"/>
<path d="M14.964 6.59136L15.0172 6.75083L14.9241 6.77741L14.964 6.59136Z" fill="white"/>
<path d="M15.1235 6.71096H14.9507V6.7907L15.1235 6.71096Z" fill="white"/>
<path d="M15.1235 6.71096L14.9906 6.80399L14.9374 6.73754L15.1235 6.71096Z" fill="white"/>
<path d="M14.7913 6.71096L14.9374 6.80399L14.9906 6.73754L14.7913 6.71096Z" fill="white"/>
<path d="M14.7913 6.71096H14.964V6.7907L14.7913 6.71096Z" fill="white"/>
<path d="M15.057 6.89701L15.0039 6.73754L14.9241 6.76412L15.057 6.89701Z" fill="white"/>
<path d="M15.057 6.89701L14.9241 6.80399L14.9773 6.73754L15.057 6.89701Z" fill="white"/>
<path d="M14.8577 6.89701L14.9906 6.80399L14.9507 6.73754L14.8577 6.89701Z" fill="white"/>
<path d="M14.8577 6.89701L14.9109 6.73754L14.9906 6.76412L14.8577 6.89701Z" fill="white"/>
<path d="M16.5188 9.23588L16.4657 9.39535L16.5454 9.42193L16.5188 9.23588Z" fill="white"/>
<path d="M16.5188 9.23588L16.572 9.39535L16.4923 9.42193L16.5188 9.23588Z" fill="white"/>
<path d="M16.6916 9.35548H16.5055V9.43522L16.6916 9.35548Z" fill="white"/>
<path d="M16.6916 9.35548L16.5454 9.46179L16.4923 9.38206L16.6916 9.35548Z" fill="white"/>
<path d="M16.3594 9.35548L16.4923 9.46179L16.5454 9.38206L16.3594 9.35548Z" fill="white"/>
<path d="M16.3594 9.35548H16.5321V9.43522L16.3594 9.35548Z" fill="white"/>
<path d="M16.6251 9.54153L16.572 9.38206L16.4923 9.40864L16.6251 9.54153Z" fill="white"/>
<path d="M16.6251 9.54153L16.4923 9.44851L16.5321 9.38206L16.6251 9.54153Z" fill="white"/>
<path d="M16.4258 9.54153L16.5587 9.44851L16.5055 9.38206L16.4258 9.54153Z" fill="white"/>
<path d="M16.4258 9.54153L16.479 9.38206L16.5587 9.40864L16.4258 9.54153Z" fill="white"/>
<path d="M17.077 9.3289L17.0371 9.43522L17.1035 9.46179L17.077 9.3289Z" fill="white"/>
<path d="M17.077 9.3289L17.1168 9.43522L17.0504 9.46179L17.077 9.3289Z" fill="white"/>
<path d="M17.1833 9.40864H17.077V9.46179L17.1833 9.40864Z" fill="white"/>
<path d="M17.1833 9.40864L17.0903 9.47508L17.0637 9.43522L17.1833 9.40864Z" fill="white"/>
<path d="M16.9707 9.40864L17.0637 9.47508L17.1035 9.43522L16.9707 9.40864Z" fill="white"/>
<path d="M16.9707 9.40864H17.077V9.46179L16.9707 9.40864Z" fill="white"/>
<path d="M17.1434 9.54153L17.1168 9.43522L17.0504 9.44851L17.1434 9.54153Z" fill="white"/>
<path d="M17.1434 9.54153L17.0504 9.47508L17.0903 9.42193L17.1434 9.54153Z" fill="white"/>
<path d="M17.0105 9.54153L17.1035 9.47508L17.0637 9.42193L17.0105 9.54153Z" fill="white"/>
<path d="M17.0105 9.54153L17.0504 9.43522L17.0903 9.44851L17.0105 9.54153Z" fill="white"/>
<path d="M16.6916 9.62126L16.6384 9.75415L16.7049 9.78073L16.6916 9.62126Z" fill="white"/>
<path d="M16.6916 9.62126L16.7315 9.75415L16.665 9.78073L16.6916 9.62126Z" fill="white"/>
<path d="M16.8245 9.71429H16.6783V9.79402L16.8245 9.71429Z" fill="white"/>
<path d="M16.8245 9.71429L16.7049 9.80731L16.665 9.74086L16.8245 9.71429Z" fill="white"/>
<path d="M16.5454 9.71429L16.665 9.80731L16.7049 9.74086L16.5454 9.71429Z" fill="white"/>
<path d="M16.5454 9.71429H16.6916V9.79402L16.5454 9.71429Z" fill="white"/>
<path d="M16.7713 9.87375L16.7315 9.74086L16.6517 9.76744L16.7713 9.87375Z" fill="white"/>
<path d="M16.7713 9.87375L16.6517 9.79402L16.6916 9.74086L16.7713 9.87375Z" fill="white"/>
<path d="M16.5986 9.87375L16.7182 9.79402L16.6783 9.74086L16.5986 9.87375Z" fill="white"/>
<path d="M16.5986 9.87375L16.6384 9.74086L16.7182 9.76744L16.5986 9.87375Z" fill="white"/>
<path d="M15.7215 10.4585L15.6816 10.5914L15.7481 10.6179L15.7215 10.4585Z" fill="white"/>
<path d="M15.7215 10.4585L15.7614 10.5914L15.6949 10.6179L15.7215 10.4585Z" fill="white"/>
<path d="M15.8544 10.5515H15.7215V10.6312L15.8544 10.5515Z" fill="white"/>
<path d="M15.8544 10.5515L15.7348 10.6445L15.6949 10.5781L15.8544 10.5515Z" fill="white"/>
<path d="M15.5886 10.5515L15.7082 10.6445L15.7348 10.5781L15.5886 10.5515Z" fill="white"/>
<path d="M15.5886 10.5515H15.7348V10.6312L15.5886 10.5515Z" fill="white"/>
<path d="M15.8012 10.711L15.7614 10.5781L15.6949 10.6047L15.8012 10.711Z" fill="white"/>
<path d="M15.8012 10.711L15.6816 10.6312L15.7215 10.5781L15.8012 10.711Z" fill="white"/>
<path d="M15.6418 10.711L15.7481 10.6312L15.7082 10.5781L15.6418 10.711Z" fill="white"/>
<path d="M15.6418 10.711L15.6816 10.5781L15.7481 10.6047L15.6418 10.711Z" fill="white"/>
<path d="M15.7215 10.8837L15.6816 10.99L15.7348 11.0166L15.7215 10.8837Z" fill="white"/>
<path d="M15.7215 10.8837L15.7481 10.99L15.6949 11.0166L15.7215 10.8837Z" fill="white"/>
<path d="M15.8278 10.9635H15.7082V11.0299L15.8278 10.9635Z" fill="white"/>
<path d="M15.8278 10.9635L15.7348 11.0299L15.6949 10.99L15.8278 10.9635Z" fill="white"/>
<path d="M15.6152 10.9635L15.6949 11.0299L15.7348 10.99L15.6152 10.9635Z" fill="white"/>
<path d="M15.6152 10.9635H15.7215V11.0299L15.6152 10.9635Z" fill="white"/>
<path d="M15.7879 11.0963L15.7481 10.99L15.6949 11.0033L15.7879 11.0963Z" fill="white"/>
<path d="M15.7879 11.0963L15.6949 11.0299L15.7215 10.9767L15.7879 11.0963Z" fill="white"/>
<path d="M15.655 11.0963L15.7348 11.0299L15.7082 10.9767L15.655 11.0963Z" fill="white"/>
<path d="M15.655 11.0963L15.6816 10.99L15.7348 11.0033L15.655 11.0963Z" fill="white"/>
<path d="M16.1202 10.1661L16.0803 10.2724L16.1334 10.299L16.1202 10.1661Z" fill="white"/>
<path d="M16.1202 10.1661L16.1467 10.2724L16.0936 10.299L16.1202 10.1661Z" fill="white"/>
<path d="M16.2265 10.2458H16.1069V10.3123L16.2265 10.2458Z" fill="white"/>
<path d="M16.2265 10.2458L16.1334 10.3123L16.0936 10.2724L16.2265 10.2458Z" fill="white"/>
<path d="M16.0138 10.2458L16.1069 10.3123L16.1334 10.2724L16.0138 10.2458Z" fill="white"/>
<path d="M16.0138 10.2458H16.1334L16.1334 10.3123L16.0138 10.2458Z" fill="white"/>
<path d="M16.1866 10.3787L16.1467 10.2724L16.0936 10.2857L16.1866 10.3787Z" fill="white"/>
<path d="M16.1866 10.3787L16.0936 10.3123L16.1334 10.2591L16.1866 10.3787Z" fill="white"/>
<path d="M16.0537 10.3787L16.1467 10.3123L16.1069 10.2591L16.0537 10.3787Z" fill="white"/>
<path d="M16.0537 10.3787L16.0936 10.2724L16.1467 10.2857L16.0537 10.3787Z" fill="white"/>
<path d="M16.4391 9.9402L16.3992 10.0731L16.4657 10.0997L16.4391 9.9402Z" fill="white"/>
<path d="M16.4391 9.9402L16.479 10.0731L16.4125 10.0997L16.4391 9.9402Z" fill="white"/>
<path d="M16.572 10.0332H16.4391V10.113L16.572 10.0332Z" fill="white"/>
<path d="M16.572 10.0332L16.4657 10.1262L16.4258 10.0598L16.572 10.0332Z" fill="white"/>
<path d="M16.3062 10.0332L16.4258 10.1262L16.4657 10.0598L16.3062 10.0332Z" fill="white"/>
<path d="M16.3062 10.0332H16.4391V10.113L16.3062 10.0332Z" fill="white"/>
<path d="M16.5188 10.1927L16.479 10.0598L16.4125 10.0864L16.5188 10.1927Z" fill="white"/>
<path d="M16.5188 10.1927L16.4125 10.113L16.4524 10.0598L16.5188 10.1927Z" fill="white"/>
<path d="M16.3594 10.1927L16.479 10.113L16.4258 10.0598L16.3594 10.1927Z" fill="white"/>
<path d="M16.3594 10.1927L16.3992 10.0598L16.4657 10.0864L16.3594 10.1927Z" fill="white"/>
<path d="M15.7082 10.0864L15.6683 10.206L15.7215 10.2193L15.7082 10.0864Z" fill="white"/>
<path d="M15.7082 10.0864L15.7348 10.206L15.6816 10.2193L15.7082 10.0864Z" fill="white"/>
<path d="M15.8145 10.1794H15.6949V10.2326L15.8145 10.1794Z" fill="white"/>
<path d="M15.8145 10.1794L15.7215 10.2458L15.6816 10.1927L15.8145 10.1794Z" fill="white"/>
<path d="M15.6019 10.1794L15.6816 10.2458L15.7215 10.1927L15.6019 10.1794Z" fill="white"/>
<path d="M15.6019 10.1794H15.7082V10.2326L15.6019 10.1794Z" fill="white"/>
<path d="M15.7746 10.299L15.7348 10.1927L15.6816 10.206L15.7746 10.299Z" fill="white"/>
<path d="M15.7746 10.299L15.6816 10.2326L15.7082 10.1927L15.7746 10.299Z" fill="white"/>
<path d="M15.6418 10.299L15.7348 10.2326L15.6949 10.1927L15.6418 10.299Z" fill="white"/>
<path d="M15.6418 10.299L15.6683 10.1927L15.7348 10.206L15.6418 10.299Z" fill="white"/>
<path d="M12.1999 8.02658L12.1467 8.15947L12.2132 8.18605L12.1999 8.02658Z" fill="white"/>
<path d="M12.1999 8.02658L12.2398 8.15947L12.1733 8.18605L12.1999 8.02658Z" fill="white"/>
<path d="M12.3328 8.1196H12.1866V8.19934L12.3328 8.1196Z" fill="white"/>
<path d="M12.3328 8.1196L12.2132 8.21262L12.1733 8.14618L12.3328 8.1196Z" fill="white"/>
<path d="M12.0537 8.1196L12.1733 8.21262L12.2132 8.14618L12.0537 8.1196Z" fill="white"/>
<path d="M12.0537 8.1196H12.1999V8.19934L12.0537 8.1196Z" fill="white"/>
<path d="M12.2796 8.27907L12.2398 8.14618L12.1733 8.17276L12.2796 8.27907Z" fill="white"/>
<path d="M12.2796 8.27907L12.16 8.19934L12.1999 8.13289L12.2796 8.27907Z" fill="white"/>
<path d="M12.1069 8.27907L12.2265 8.19934L12.1866 8.13289L12.1069 8.27907Z" fill="white"/>
<path d="M12.1069 8.27907L12.16 8.14618L12.2265 8.17276L12.1069 8.27907Z" fill="white"/>
<path d="M14.8045 7.68106L14.778 7.80066L14.8311 7.81395L14.8045 7.68106Z" fill="white"/>
<path d="M14.8045 7.68106L14.8444 7.80066L14.7913 7.81395L14.8045 7.68106Z" fill="white"/>
<path d="M14.9109 7.7608H14.8045V7.82724L14.9109 7.7608Z" fill="white"/>
<path d="M14.9109 7.7608L14.8178 7.84053L14.7913 7.78738L14.9109 7.7608Z" fill="white"/>
<path d="M14.6982 7.7608L14.7913 7.84053L14.8178 7.78738L14.6982 7.7608Z" fill="white"/>
<path d="M14.6982 7.7608H14.8178V7.82724L14.6982 7.7608Z" fill="white"/>
<path d="M14.871 7.89369L14.8444 7.78738L14.7913 7.80066L14.871 7.89369Z" fill="white"/>
<path d="M14.871 7.89369L14.778 7.82724L14.8178 7.77409L14.871 7.89369Z" fill="white"/>
<path d="M14.7381 7.89369L14.8311 7.82724L14.8045 7.77409L14.7381 7.89369Z" fill="white"/>
<path d="M14.7381 7.89369L14.778 7.78738L14.8311 7.80066L14.7381 7.89369Z" fill="white"/>
<path d="M13.7148 9.62126L13.6617 9.79402L13.7414 9.8206L13.7148 9.62126Z" fill="white"/>
<path d="M13.7148 9.62126L13.768 9.79402L13.6883 9.8206L13.7148 9.62126Z" fill="white"/>
<path d="M13.8876 9.74086H13.7148V9.83389L13.8876 9.74086Z" fill="white"/>
<path d="M13.8876 9.74086L13.7414 9.84718L13.7016 9.78073L13.8876 9.74086Z" fill="white"/>
<path d="M13.5554 9.74086L13.7016 9.84718L13.7414 9.78073L13.5554 9.74086Z" fill="white"/>
<path d="M13.5554 9.74086H13.7281V9.83389L13.5554 9.74086Z" fill="white"/>
<path d="M13.8212 9.9402L13.768 9.78073L13.6883 9.80731L13.8212 9.9402Z" fill="white"/>
<path d="M13.8212 9.9402L13.675 9.83389L13.7281 9.76744L13.8212 9.9402Z" fill="white"/>
<path d="M13.6218 9.9402L13.7547 9.83389L13.7016 9.76744L13.6218 9.9402Z" fill="white"/>
<path d="M13.6218 9.9402L13.675 9.78073L13.7547 9.80731L13.6218 9.9402Z" fill="white"/>
<path d="M14.18 8.86379L14.1401 8.99668L14.2065 9.02326L14.18 8.86379Z" fill="white"/>
<path d="M14.18 8.86379L14.2331 8.99668L14.1534 9.02326L14.18 8.86379Z" fill="white"/>
<path d="M14.3129 8.95681H14.18V9.03655L14.3129 8.95681Z" fill="white"/>
<path d="M14.3129 8.95681L14.2065 9.04983L14.1534 8.98339L14.3129 8.95681Z" fill="white"/>
<path d="M14.0471 8.95681L14.1667 9.04983L14.2065 8.98339L14.0471 8.95681Z" fill="white"/>
<path d="M14.0471 8.95681H14.1932V9.03655L14.0471 8.95681Z" fill="white"/>
<path d="M14.2597 9.11628L14.2198 8.98339L14.1534 9.00997L14.2597 9.11628Z" fill="white"/>
<path d="M14.2597 9.11628L14.1534 9.03654L14.1932 8.98339L14.2597 9.11628Z" fill="white"/>
<path d="M14.1002 9.11628L14.2065 9.03654L14.1667 8.98339L14.1002 9.11628Z" fill="white"/>
<path d="M14.1002 9.11628L14.1401 8.98339L14.2065 9.00997L14.1002 9.11628Z" fill="white"/>
<path d="M13.7148 8.50498L13.675 8.63787L13.7414 8.66445L13.7148 8.50498Z" fill="white"/>
<path d="M13.7148 8.50498L13.7547 8.63787L13.7016 8.66445L13.7148 8.50498Z" fill="white"/>
<path d="M13.861 8.59801H13.7148V8.67774L13.861 8.59801Z" fill="white"/>
<path d="M13.861 8.59801L13.7414 8.67774L13.7016 8.62458L13.861 8.59801Z" fill="white"/>
<path d="M13.582 8.59801L13.7016 8.67774L13.7414 8.62458L13.582 8.59801Z" fill="white"/>
<path d="M13.582 8.59801H13.7281V8.67774L13.582 8.59801Z" fill="white"/>
<path d="M13.8079 8.75748L13.7547 8.62458L13.6883 8.65116L13.8079 8.75748Z" fill="white"/>
<path d="M13.8079 8.75748L13.6883 8.67774L13.7281 8.62458L13.8079 8.75748Z" fill="white"/>
<path d="M13.6351 8.75748L13.7547 8.67774L13.7148 8.62458L13.6351 8.75748Z" fill="white"/>
<path d="M13.6351 8.75748L13.675 8.62458L13.7414 8.65116L13.6351 8.75748Z" fill="white"/>
<path d="M13.3162 8.89037L13.2763 8.99668L13.3295 9.02326L13.3162 8.89037Z" fill="white"/>
<path d="M13.3162 8.89037L13.356 8.99668L13.2896 9.02326L13.3162 8.89037Z" fill="white"/>
<path d="M13.4225 8.9701H13.3162V9.02326L13.4225 8.9701Z" fill="white"/>
<path d="M13.4225 8.9701L13.3295 9.03655L13.2896 8.98339L13.4225 8.9701Z" fill="white"/>
<path d="M13.2099 8.9701L13.3029 9.03655L13.3295 8.98339L13.2099 8.9701Z" fill="white"/>
<path d="M13.2099 8.9701H13.3162V9.02326L13.2099 8.9701Z" fill="white"/>
<path d="M13.3826 9.10299L13.356 8.98339L13.2896 9.00997L13.3826 9.10299Z" fill="white"/>
<path d="M13.3826 9.10299L13.2896 9.02326L13.3295 8.98339L13.3826 9.10299Z" fill="white"/>
<path d="M13.2497 9.10299L13.3428 9.02326L13.3029 8.98339L13.2497 9.10299Z" fill="white"/>
<path d="M13.2497 9.10299L13.2896 8.98339L13.3428 9.00997L13.2497 9.10299Z" fill="white"/>
<path d="M13.5155 9.19601L13.4889 9.27575L13.5288 9.28904L13.5155 9.19601Z" fill="white"/>
<path d="M13.5155 9.19601L13.5421 9.27575L13.5022 9.28904L13.5155 9.19601Z" fill="white"/>
<path d="M13.5952 9.26246H13.5155V9.30233L13.5952 9.26246Z" fill="white"/>
<path d="M13.5952 9.26246L13.5288 9.30233L13.5022 9.27575L13.5952 9.26246Z" fill="white"/>
<path d="M13.4358 9.26246L13.5022 9.30233L13.5288 9.27575L13.4358 9.26246Z" fill="white"/>
<path d="M13.4358 9.26246H13.5155V9.30233L13.4358 9.26246Z" fill="white"/>
<path d="M13.5687 9.34219L13.5421 9.27575H13.5022L13.5687 9.34219Z" fill="white"/>
<path d="M13.5687 9.34219L13.5022 9.30233L13.5288 9.26246L13.5687 9.34219Z" fill="white"/>
<path d="M13.4624 9.34219L13.5288 9.30233L13.5155 9.26246L13.4624 9.34219Z" fill="white"/>
<path d="M13.4624 9.34219L13.5022 9.27575H13.5288L13.4624 9.34219Z" fill="white"/>
<path d="M14.9109 10.5515L14.871 10.6844L14.9374 10.711L14.9109 10.5515Z" fill="white"/>
<path d="M14.9109 10.5515L14.964 10.6844L14.8843 10.711L14.9109 10.5515Z" fill="white"/>
<path d="M15.057 10.6578H14.9109V10.7243L15.057 10.6578Z" fill="white"/>
<path d="M15.057 10.6578L14.9374 10.7375L14.8976 10.6844L15.057 10.6578Z" fill="white"/>
<path d="M14.778 10.6578L14.8976 10.7375L14.9374 10.6844L14.778 10.6578Z" fill="white"/>
<path d="M14.778 10.6578H14.9241V10.7243L14.778 10.6578Z" fill="white"/>
<path d="M15.0039 10.8173L14.9507 10.6711L14.8843 10.6977L15.0039 10.8173Z" fill="white"/>
<path d="M15.0039 10.8173L14.8843 10.7243L14.9241 10.6711L15.0039 10.8173Z" fill="white"/>
<path d="M14.8311 10.8173L14.9507 10.7243L14.9109 10.6711L14.8311 10.8173Z" fill="white"/>
<path d="M14.8311 10.8173L14.871 10.6711L14.9507 10.6977L14.8311 10.8173Z" fill="white"/>
<path d="M15.2564 10.2326L15.2298 10.3389L15.2829 10.3522L15.2564 10.2326Z" fill="white"/>
<path d="M15.2564 10.2326L15.2962 10.3389L15.2431 10.3522L15.2564 10.2326Z" fill="white"/>
<path d="M15.3627 10.3123H15.2564V10.3654L15.3627 10.3123Z" fill="white"/>
<path d="M15.3627 10.3123L15.283 10.3787L15.2431 10.3256L15.3627 10.3123Z" fill="white"/>
<path d="M15.1501 10.3123L15.2431 10.3787L15.2829 10.3256L15.1501 10.3123Z" fill="white"/>
<path d="M15.1501 10.3123H15.2697V10.3654L15.1501 10.3123Z" fill="white"/>
<path d="M15.3228 10.4319L15.2962 10.3256L15.2431 10.3389L15.3228 10.4319Z" fill="white"/>
<path d="M15.3228 10.4319L15.2298 10.3654L15.2697 10.3256L15.3228 10.4319Z" fill="white"/>
<path d="M15.1899 10.4319L15.2829 10.3654L15.2431 10.3256L15.1899 10.4319Z" fill="white"/>
<path d="M15.1899 10.4319L15.2298 10.3256L15.2829 10.3389L15.1899 10.4319Z" fill="white"/>
<path d="M14.6052 10.1262L14.5653 10.2458L14.6185 10.2591L14.6052 10.1262Z" fill="white"/>
<path d="M14.6052 10.1262L14.6318 10.2458L14.5786 10.2591L14.6052 10.1262Z" fill="white"/>
<path d="M14.7115 10.206H14.5919V10.2724L14.7115 10.206Z" fill="white"/>
<path d="M14.7115 10.206L14.6185 10.2724L14.5786 10.2326L14.7115 10.206Z" fill="white"/>
<path d="M14.4856 10.206L14.5786 10.2724L14.6185 10.2326L14.4856 10.206Z" fill="white"/>
<path d="M14.4856 10.206H14.6052V10.2724L14.4856 10.206Z" fill="white"/>
<path d="M14.6717 10.3389L14.6318 10.2326L14.5786 10.2458L14.6717 10.3389Z" fill="white"/>
<path d="M14.6717 10.3389L14.5786 10.2724L14.6052 10.2326L14.6717 10.3389Z" fill="white"/>
<path d="M14.5388 10.3389L14.6185 10.2724L14.5919 10.2326L14.5388 10.3389Z" fill="white"/>
<path d="M14.5388 10.3389L14.5653 10.2326L14.6185 10.2458L14.5388 10.3389Z" fill="white"/>
<path d="M12.1069 9.95349L12.067 10.113L12.1467 10.1395L12.1069 9.95349Z" fill="white"/>
<path d="M12.1069 9.95349L12.16 10.113L12.0803 10.1395L12.1069 9.95349Z" fill="white"/>
<path d="M12.2796 10.0731H12.1069V10.1528L12.2796 10.0731Z" fill="white"/>
<path d="M12.2796 10.0731L12.1334 10.1794L12.0936 10.0997L12.2796 10.0731Z" fill="white"/>
<path d="M11.9474 10.0731L12.0936 10.1794L12.1334 10.0997L11.9474 10.0731Z" fill="white"/>
<path d="M11.9474 10.0731H12.1202V10.1528L11.9474 10.0731Z" fill="white"/>
<path d="M12.2132 10.2591L12.16 10.0997L12.0803 10.1262L12.2132 10.2591Z" fill="white"/>
<path d="M12.2132 10.2591L12.0803 10.1661L12.1202 10.0997L12.2132 10.2591Z" fill="white"/>
<path d="M12.0138 10.2591L12.1467 10.1661L12.0936 10.0997L12.0138 10.2591Z" fill="white"/>
<path d="M12.0138 10.2591L12.067 10.0997L12.1467 10.1262L12.0138 10.2591Z" fill="white"/>
<path d="M13.7148 11.0698L13.7016 11.1362H13.7281L13.7148 11.0698Z" fill="white"/>
<path d="M13.7148 11.0698L13.7414 11.1362H13.7148V11.0698Z" fill="white"/>
<path d="M13.768 11.1096H13.7148V11.1495L13.768 11.1096Z" fill="white"/>
<path d="M13.768 11.1096L13.7281 11.1495L13.7148 11.1229L13.768 11.1096Z" fill="white"/>
<path d="M13.6617 11.1096L13.7148 11.1495L13.7281 11.1229L13.6617 11.1096Z" fill="white"/>
<path d="M13.6617 11.1096H13.7148V11.1495L13.6617 11.1096Z" fill="white"/>
<path d="M13.7547 11.1761L13.7281 11.1229L13.7148 11.1362L13.7547 11.1761Z" fill="white"/>
<path d="M13.7547 11.1761L13.7016 11.1495L13.7148 11.1229L13.7547 11.1761Z" fill="white"/>
<path d="M13.6883 11.1761L13.7281 11.1495L13.7148 11.1229L13.6883 11.1761Z" fill="white"/>
<path d="M13.6883 11.1761L13.7016 11.1229L13.7281 11.1362L13.6883 11.1761Z" fill="white"/>
</g>
<defs>
<clipPath id="clip0_406_350">
<rect width="27.4419" height="16" fill="white"/>
</clipPath>
</defs>
</svg>
