<svg width="28" height="16" viewBox="0 0 28 16" fill="none" xmlns="http://www.w3.org/2000/svg">
<g clip-path="url(#clip0_406_336)">
<path d="M6.45545 0H0V16H6.45545V0Z" fill="#E51B27"/>
<path d="M27.4323 0H20.9769V16H27.4323V0Z" fill="#E51B27"/>
<path d="M20.9769 0H6.45545V16H20.9769V0Z" fill="white"/>
<path d="M13.7158 2.07275L12.7653 3.92094C12.6597 4.11896 12.4617 4.10576 12.2637 3.98695L11.5772 3.61731L12.0921 6.45559C12.1977 6.97044 11.8544 6.97044 11.6828 6.74602L10.4815 5.34668L10.2835 6.05955C10.2703 6.15196 10.1647 6.25757 10.0194 6.23117L8.5013 5.90114L8.89733 7.41929C8.98974 7.76252 9.04255 7.89454 8.80493 7.98695L8.26367 8.25097L10.8775 10.4688C10.9831 10.548 11.0359 10.6932 10.9963 10.8384L10.7719 11.6173C11.6696 11.5117 12.4749 11.4061 13.3726 11.3005C13.4518 11.3005 13.5838 11.3665 13.5838 11.4721L13.465 14.3368H13.9006L13.8346 11.4721C13.8346 11.3797 13.9534 11.3005 14.0326 11.3005C14.9303 11.4061 15.7356 11.5117 16.6465 11.6173L16.4221 10.8384C16.3825 10.7064 16.4353 10.548 16.5409 10.4688L19.1548 8.25097L18.6135 7.98695C18.3759 7.89454 18.4419 7.76252 18.5211 7.41929L18.9171 5.90114L17.399 6.23117C17.2538 6.25757 17.1482 6.15196 17.1218 6.05955L16.9237 5.34668L15.7224 6.74602C15.5508 6.97044 15.2076 6.97044 15.3132 6.45559L15.828 3.61731L15.1416 3.98695C14.9435 4.09256 14.7587 4.11896 14.6399 3.92094L13.6894 2.07275H13.7158Z" fill="#E51B27"/>
</g>
<defs>
<clipPath id="clip0_406_336">
<rect width="27.4191" height="16" fill="white"/>
</clipPath>
</defs>
</svg>
