<svg width="28" height="16" viewBox="0 0 28 16" fill="none" xmlns="http://www.w3.org/2000/svg">
<g clip-path="url(#clip0_406_398)">
<path d="M27.833 0H0.400391V16H27.833V0Z" fill="#CF2524"/>
<path d="M3.04132 5.79489L3.55515 4.19631L2.19922 3.19721H3.86916L4.39726 1.59863L4.92536 3.19721H6.59529L5.23936 4.19631L5.75319 5.79489L4.39726 4.79578L3.04132 5.79489Z" fill="#F7DE29"/>
<path d="M7.70748 6.65133L8.2784 6.8797L8.67804 6.40869L8.63523 7.02243L9.19187 7.2508L8.60668 7.39353L8.56386 8.00726L8.23558 7.49344L7.65039 7.63617L8.03576 7.16516L7.70748 6.65133Z" fill="#F7DE29"/>
<path d="M10.7771 3.58238L10.1776 3.48247L9.89213 4.02484L9.8065 3.4111L9.20703 3.29692L9.7494 3.04001L9.66377 2.42627L10.092 2.86873L10.6343 2.61182L10.3489 3.13992L10.7771 3.58238Z" fill="#F7DE29"/>
<path d="M9.50737 6.32311L9.69291 5.73791L9.19336 5.38109H9.8071L9.99265 4.7959L10.1925 5.38109H10.8062L10.3067 5.73791L10.4922 6.32311L9.99265 5.95201L9.50737 6.32311Z" fill="#F7DE29"/>
<path d="M7.7515 1.01319L8.29388 1.2701L8.72207 0.827637L8.63643 1.4271L9.19307 1.69829L8.59361 1.81247L8.52224 2.41194L8.22251 1.88384L7.62305 1.99802L8.03696 1.55556L7.7515 1.01319Z" fill="#F7DE29"/>
</g>
<defs>
<clipPath id="clip0_406_398">
<rect width="27.4326" height="16" fill="white" transform="translate(0.400391)"/>
</clipPath>
</defs>
</svg>
