<svg width="28" height="16" viewBox="0 0 28 16" fill="none" xmlns="http://www.w3.org/2000/svg">
<g clip-path="url(#clip0_406_339)">
<path d="M27.4324 0H0V16H27.4324V0Z" fill="white"/>
<path d="M7.99328 0H0V16H7.99328V0Z" fill="#304192"/>
<path d="M27.4324 7.99316H0V15.9999H27.4324V7.99316Z" fill="#C32C23"/>
<path d="M3.38538 3.90911L4.3392 4.20466L4.00334 2.00146L3.38538 3.90911Z" fill="white"/>
<path d="M3.66749 4.20466L4.62131 3.90911L4.00334 2.00146L3.66749 4.20466Z" fill="white"/>
<path d="M3.90931 3.38518V4.3793L5.89755 3.38518H3.90931Z" fill="white"/>
<path d="M3.69436 3.7479L4.28546 4.55394L5.91098 3.38518L3.69436 3.7479Z" fill="white"/>
<path d="M3.72123 4.55394L4.29889 3.7479L2.0957 3.38518L3.72123 4.55394Z" fill="white"/>
<path d="M2.0957 3.38518L4.09738 4.3793V3.38518H2.0957Z" fill="white"/>
<path d="M5.17211 5.61523L4.56758 3.72103L3.61376 4.01658L5.17211 5.61523Z" fill="white"/>
<path d="M5.17211 5.61523L3.56002 4.43303L4.15112 3.64042L5.17211 5.61523Z" fill="white"/>
<path d="M2.83458 5.61523L4.44667 4.43303L3.85557 3.64042L2.83458 5.61523Z" fill="white"/>
<path d="M2.83458 5.61523L3.43911 3.72103L4.39293 4.01658L2.83458 5.61523Z" fill="white"/>
</g>
<defs>
<clipPath id="clip0_406_339">
<rect width="27.4324" height="16" fill="white"/>
</clipPath>
</defs>
</svg>
