<svg width="27" height="16" viewBox="0 0 27 16" fill="none" xmlns="http://www.w3.org/2000/svg">
<g clip-path="url(#clip0_482_493)">
<path d="M0 0V16H26.6667V0H0Z" fill="#012169"/>
<path d="M0 0L26.6667 16ZM26.6667 0L0 16Z" fill="black"/>
<path fill-rule="evenodd" clip-rule="evenodd" d="M10.2244 7.99992L-0.822266 1.37191L0.824121 -1.37207L13.3343 6.13401L25.8444 -1.37207L27.4908 1.37191L16.4441 7.99992L27.4908 14.6279L25.8444 17.3719L13.3343 9.86582L0.824121 17.3719L-0.822266 14.6279L10.2244 7.99992Z" fill="white"/>
<mask id="mask0_482_493" style="mask-type:luminance" maskUnits="userSpaceOnUse" x="0" y="0" width="27" height="16">
<path d="M13.3333 8H26.6667V16L13.3333 8ZM13.3333 8V16H0L13.3333 8ZM13.3333 8H0V0L13.3333 8ZM13.3333 8V0H26.6667L13.3333 8Z" fill="white"/>
</mask>
<g mask="url(#mask0_482_493)">
<path d="M0 0L26.6667 16ZM26.6667 0L0 16Z" fill="black"/>
<path fill-rule="evenodd" clip-rule="evenodd" d="M11.2601 8.00011L-0.548828 0.914767L0.548763 -0.914551L13.3333 6.75617L26.1178 -0.914551L27.2154 0.914767L15.4065 8.00011L27.2154 15.0854L26.1178 16.9148L13.3333 9.24404L0.548763 16.9148L-0.548828 15.0854L11.2601 8.00011Z" fill="#C8102E"/>
</g>
<path d="M-0.533073 5.86644H11.2003V-0.533561H15.4669V5.86644H27.2003V10.1331H15.4669V16.5331H11.2003V10.1331H-0.533073V5.86644Z" fill="#C8102E"/>
<path fill-rule="evenodd" clip-rule="evenodd" d="M10.6669 -1.06689H16.0003V5.33311H27.7336V10.6664H16.0003V17.0664H10.6669V10.6664H-1.06641V5.33311H10.6669V-1.06689ZM11.7336 -0.000227839V6.39977H0.000260368V9.59977H11.7336V15.9998H14.9336V9.59977H26.6669V6.39977H14.9336V-0.000227839H11.7336Z" fill="white"/>
</g>
<defs>
<clipPath id="clip0_482_493">
<rect width="26.6667" height="16" fill="white"/>
</clipPath>
</defs>
</svg>
