<svg width="28" height="16" viewBox="0 0 28 16" fill="none" xmlns="http://www.w3.org/2000/svg">
<g clip-path="url(#clip0_406_374)">
<path d="M27.8269 0H0.400391V16H27.8269V0Z" fill="white"/>
<path d="M6.91129 3.60475C6.89704 3.90395 6.86855 4.1889 6.8258 4.47385C6.81156 4.57358 6.79731 4.65907 6.78306 4.74455C6.95403 4.71606 7.13925 4.71606 7.32447 4.71606C7.50969 4.71606 7.6949 4.71606 7.86587 4.74455C7.85163 4.65907 7.83738 4.55933 7.82313 4.47385C7.78039 4.1889 7.75189 3.90395 7.73765 3.60475C8.12233 3.61899 8.50701 3.67598 8.87745 3.74722C8.8632 3.562 8.84896 3.39103 8.84896 3.20582C8.84896 3.0206 8.84896 2.83538 8.87745 2.66441C8.50701 2.73565 8.12233 2.77839 7.73765 2.79264C7.73765 2.40795 7.79464 2.02327 7.86587 1.65283C7.6949 1.68133 7.50969 1.68133 7.32447 1.68133C7.13925 1.68133 6.95403 1.68133 6.78306 1.65283C6.8543 2.02327 6.89704 2.40795 6.92554 2.79264C6.54085 2.77839 6.15617 2.7214 5.77148 2.66441C5.79998 2.84963 5.81423 3.0206 5.81423 3.20582C5.81423 3.39103 5.81423 3.57625 5.77148 3.74722C6.14192 3.67598 6.5266 3.63324 6.92554 3.60475" fill="#D50E3B"/>
<path d="M20.5031 3.60475C20.4888 3.90395 20.4603 4.1889 20.4176 4.47385C20.4176 4.57358 20.3891 4.65907 20.3749 4.74455C20.5458 4.71606 20.731 4.71606 20.9163 4.71606C21.1015 4.71606 21.2867 4.71606 21.4577 4.74455C21.4434 4.65907 21.4292 4.55933 21.4149 4.47385C21.3722 4.1889 21.3437 3.90395 21.3294 3.60475C21.7141 3.61899 22.0988 3.67598 22.4692 3.74722C22.4408 3.562 22.4265 3.39103 22.4265 3.20582C22.4265 3.0206 22.4265 2.83538 22.4692 2.66441C22.0988 2.73565 21.7141 2.77839 21.3294 2.79264C21.3437 2.40795 21.4007 2.02327 21.4577 1.65283C21.2867 1.68133 21.1015 1.68133 20.9163 1.68133C20.731 1.68133 20.5458 1.68133 20.3749 1.65283C20.4461 2.02327 20.4888 2.40795 20.5173 2.79264C20.1326 2.77839 19.748 2.7214 19.3633 2.66441C19.3918 2.84963 19.406 3.0206 19.406 3.20582C19.406 3.39103 19.406 3.57625 19.3633 3.74722C19.7337 3.67598 20.1184 3.63324 20.5173 3.60475" fill="#D50E3B"/>
<path d="M7.72397 12.3952C7.72397 12.096 7.76672 11.811 7.80946 11.5261C7.82371 11.4406 7.83795 11.3409 7.8522 11.2554C7.68123 11.2839 7.49601 11.2839 7.3108 11.2839C7.12558 11.2839 6.94036 11.2839 6.76939 11.2554C6.76939 11.3409 6.79788 11.4406 6.81213 11.5261C6.85487 11.811 6.88337 12.096 6.89762 12.3952C6.49869 12.3809 6.12825 12.3239 5.75781 12.2669C5.78631 12.4379 5.78631 12.6231 5.78631 12.8084C5.78631 12.9936 5.78631 13.1788 5.75781 13.3498C6.12825 13.2785 6.51293 13.2358 6.89762 13.2215C6.88337 13.6062 6.82638 13.9909 6.76939 14.3613C6.94036 14.3328 7.12558 14.3328 7.3108 14.3328C7.49601 14.3328 7.68123 14.3328 7.8522 14.3613C7.78096 13.9909 7.73822 13.6062 7.72397 13.2215C8.10866 13.2358 8.49334 13.2785 8.86378 13.3498C8.84953 13.1788 8.83528 12.9936 8.83528 12.8084C8.83528 12.6231 8.83528 12.4379 8.86378 12.2669C8.49334 12.3382 8.10866 12.3809 7.72397 12.3952Z" fill="#D50E3B"/>
<path d="M21.3294 12.3952C21.3437 12.096 21.3722 11.811 21.4149 11.5261C21.4149 11.4406 21.4434 11.3409 21.4577 11.2554C21.2725 11.2839 21.0872 11.2839 20.9163 11.2839C20.7453 11.2839 20.5458 11.2839 20.3749 11.2554C20.3891 11.3409 20.4034 11.4406 20.4176 11.5261C20.4603 11.811 20.4888 12.096 20.5031 12.3952C20.1184 12.3809 19.7337 12.3239 19.3633 12.2669C19.3918 12.4379 19.3918 12.6231 19.3918 12.8084C19.3918 12.9936 19.3918 13.1788 19.3633 13.3498C19.7337 13.2785 20.1184 13.2358 20.5031 13.2215C20.4888 13.6062 20.4461 13.9909 20.3749 14.3613C20.5458 14.3328 20.731 14.3328 20.9163 14.3328C21.1015 14.3328 21.2867 14.3328 21.4577 14.3613C21.3864 13.9909 21.3437 13.6062 21.3294 13.2215C21.7141 13.2358 22.0988 13.2785 22.4692 13.3498C22.4408 13.1788 22.4265 12.9936 22.4265 12.8084C22.4265 12.6231 22.4265 12.4379 22.4692 12.2669C22.0988 12.3382 21.7141 12.3809 21.3294 12.3952Z" fill="#D50E3B"/>
<path d="M15.7317 0H12.5117V16H15.7317V0Z" fill="#D50E3B"/>
<path d="M27.8269 6.38281H0.400391V9.61701H27.8269V6.38281Z" fill="#D50E3B"/>
</g>
<defs>
<clipPath id="clip0_406_374">
<rect width="27.4265" height="16" fill="white" transform="translate(0.400391)"/>
</clipPath>
</defs>
</svg>
