<svg width="29" height="16" viewBox="0 0 29 16" fill="none" xmlns="http://www.w3.org/2000/svg">
<g clip-path="url(#clip0_406_427)">
<path d="M28.2665 16H0.839844V0H28.2665V16Z" fill="white"/>
<path d="M28.2665 4H0.839844V0H28.2665V4Z" fill="#E53734"/>
<path d="M28.2665 16H0.839844V12H28.2665V16Z" fill="#E53734"/>
<path d="M14.4402 12L14.3069 11.7867C14.2402 11.6667 14.0669 11.48 13.9202 11.3867C13.7735 11.2933 13.6135 11.1333 13.5469 11.0533L13.4269 10.9067L13.5602 10.9333C13.6402 10.96 13.7202 10.9867 13.7735 11C13.8135 11.0133 13.8535 11 13.8535 10.9733C13.8402 10.8933 13.6135 10.72 13.4269 10.64C13.2535 10.5733 13.0002 10.3867 12.9735 10.3067V10.2933C12.9869 10.28 13.0402 10.28 13.1069 10.2933C13.2135 10.32 13.2669 10.2933 13.3069 10.2267C13.3602 10.1067 13.3335 10.0667 13.2002 10.0667C13.0402 10.0667 12.8135 9.90667 12.7869 9.77333C12.7602 9.69333 12.6802 9.61333 12.4935 9.53333C12.1869 9.4 11.8002 9.13333 11.7735 9.05333C11.7735 8.94667 12.0269 8.94667 12.3869 9.06667C12.4669 9.09333 12.5069 9.06667 12.5735 8.93333C12.6535 8.76 12.6535 8.74667 12.4669 8.52C12.3469 8.36 12.2269 8.28 12.1069 8.25333C11.8669 8.2 11.8002 8.14667 11.4935 7.85333C11.3469 7.70667 11.2002 7.58667 11.1602 7.58667H11.1335C11.1335 7.58667 11.3202 7.45333 11.4135 7.45333C11.4802 7.45333 11.6402 7.53333 11.7735 7.61333C12.0002 7.77333 12.0135 7.77333 12.1069 7.69333C12.1602 7.64 12.2002 7.53333 12.2002 7.46667C12.2002 7.36 12.1469 7.30667 11.8402 7.16C11.6135 7.04 11.3469 6.85333 11.1469 6.64C10.8669 6.36 10.7869 6.30667 10.6802 6.33333C10.6002 6.34667 10.5602 6.36 10.5469 6.34667C10.5469 6.34667 10.5735 6.29333 10.6135 6.25333C10.6535 6.2 10.7602 6.17333 10.8269 6.17333C11.0402 6.17333 11.7069 6.42667 11.9202 6.57333C12.1069 6.72 12.3069 6.74667 12.4535 6.65333C12.6935 6.50667 12.2935 6.22667 11.5335 6C11.2535 5.92 11.0135 5.84 10.9869 5.81333C10.9869 5.81333 10.9869 5.74667 11.0269 5.69333C11.1069 5.58667 11.5069 5.58667 11.8402 5.69333C11.9735 5.73333 12.3069 5.86667 12.5869 6C13.0935 6.22667 13.0935 6.22667 13.2669 6.13333C13.6802 5.92 13.6402 5.54667 13.1469 4.93333C12.9335 4.66667 12.7469 4.54667 12.4002 4.46667C12.2669 4.44 12.0135 4.18667 12.0135 4.09333C12.0135 4.09333 12.0135 4.09333 12.0135 4.08H12.1069C12.1069 4.08 12.1469 4.10667 12.1602 4.13333C12.2669 4.28 12.4935 4.37333 12.7069 4.37333C12.9469 4.37333 13.2402 4.50667 13.4669 4.70667C13.6669 4.89333 13.8535 4.94667 14.0002 4.85333C14.0802 4.8 14.1602 4.8 14.2535 4.84C14.4269 4.90667 14.5202 4.86667 14.5202 4.74667C14.5202 4.69333 14.5869 4.61333 14.6669 4.56C14.7469 4.52 14.8935 4.4 14.9869 4.30667C15.0535 4.24 15.1069 4.2 15.1335 4.2H15.1469C15.1469 4.2 15.1202 4.30667 15.0669 4.38667C15.0402 4.44 15.0135 4.49333 15.0269 4.50667C15.0269 4.50667 15.2135 4.50667 15.4002 4.49333C15.7069 4.45333 15.7469 4.44 15.9335 4.22667C16.0269 4.12 16.0935 4.05333 16.1602 4.02667H16.2802C16.2802 4.02667 16.3202 4.05333 16.3335 4.08C16.3335 4.08 16.1335 4.30667 15.9202 4.48C15.4135 4.90667 15.3335 5.05333 15.3335 5.64C15.3335 5.98667 15.3469 6.08 15.4269 6.17333C15.5602 6.32 15.6269 6.30667 15.9335 6.14667C16.1735 6.02667 16.2402 6.01333 16.7869 6.02667C17.3602 6.04 17.3735 6.04 17.6669 5.86667C17.8269 5.77333 18.0269 5.64 18.1069 5.58667C18.2935 5.45333 18.4669 5.44 18.5069 5.56C18.5602 5.70667 18.2135 5.98667 17.5735 6.33333C16.9335 6.66667 16.8669 6.77333 17.1602 6.92C17.3335 7.01333 17.3335 7.01333 17.6002 6.85333C17.8135 6.73333 17.9069 6.72 18.0402 6.73333L18.2135 6.77333L17.8269 7.09333C17.6135 7.25333 17.4135 7.44 17.3735 7.49333C17.2535 7.64 17.0535 7.74667 16.8402 7.74667C16.7469 7.74667 16.6535 7.76 16.6269 7.78667C16.5735 7.89333 16.7469 7.94667 17.2535 7.97333C17.9335 8 18.0269 8.08 17.5602 8.22667C17.3735 8.28 17.0935 8.36 16.9335 8.4C16.7469 8.44 16.6402 8.48 16.6135 8.53333C16.6135 8.53333 16.6135 8.53333 16.6135 8.54667C16.6135 8.54667 16.6269 8.6 16.6402 8.61333C16.6669 8.65333 16.8269 8.64 17.0802 8.6C17.3735 8.56 17.5335 8.54667 17.5602 8.57333C17.5869 8.61333 17.4535 8.70667 17.1602 8.86667C16.8935 9.01333 16.5469 9.25333 16.4002 9.41333C16.2535 9.56 16.0135 9.73333 15.8935 9.8C15.7335 9.88 15.6802 9.93333 15.6935 9.98667C15.7335 10.0933 15.9869 10.0933 16.1602 9.98667C16.2269 9.94667 16.4002 9.90667 16.5469 9.90667H16.8135L16.6402 9.98667C16.4535 10.0533 15.9735 10.4 15.9335 10.48C15.9335 10.48 16.0669 10.5067 16.2002 10.48H16.4802L16.0935 10.76C15.8135 10.9867 15.6269 11.08 15.4269 11.12C15.2802 11.1467 15.1069 11.1867 15.0402 11.2C14.8802 11.24 14.6135 11.52 14.4935 11.7733L14.4002 11.9867L14.4402 12ZM13.5469 10.48C13.5469 10.48 13.6402 10.48 13.6535 10.4533C13.6535 10.4533 13.6535 10.44 13.6535 10.4267C13.6535 10.3867 13.5869 10.3333 13.5202 10.28C13.4802 10.24 13.4535 10.2267 13.4269 10.2267C13.4269 10.2267 13.4135 10.28 13.4135 10.3333C13.4135 10.44 13.4269 10.48 13.5202 10.48M14.8402 10.3467C14.9202 10.3467 14.9735 10.3067 14.9735 10.2533C14.9735 10.1867 14.9602 10.16 14.8402 10.16C14.7735 10.16 14.7335 10.16 14.7069 10.1867C14.7069 10.2 14.6935 10.2267 14.7069 10.2533C14.7069 10.32 14.7602 10.3467 14.8402 10.3467ZM14.4535 10.32C14.4535 10.32 14.5469 10.28 14.5469 10.2C14.5469 10.0933 14.5069 10.0667 14.3202 10.0133C14.2002 9.98667 14.0935 9.97333 14.0802 9.98667C14.0135 10.0533 14.0802 10.1467 14.2269 10.2267C14.3335 10.28 14.4002 10.3067 14.4535 10.32ZM15.3335 10.32C15.4269 10.32 15.4402 10.28 15.4002 10.1467C15.3869 10.0933 15.3202 10.0667 15.2535 10.0667C15.1602 10.0667 15.1335 10.08 15.1469 10.1867C15.1469 10.2667 15.2002 10.3067 15.2935 10.32C15.3069 10.32 15.3202 10.32 15.3202 10.32M13.8402 10.0533C13.9602 10.0533 13.8802 9.82667 13.7335 9.72C13.6002 9.62667 13.4535 9.58667 13.4135 9.62667C13.4135 9.62667 13.4135 9.62667 13.4135 9.64C13.4135 9.76 13.7069 10.0267 13.8402 10.04M14.9469 9.52C14.9469 9.52 15.0402 9.46667 15.0135 9.34667C15.0135 9.28 14.9469 9.24 14.8669 9.22667C14.8002 9.22667 14.7602 9.22667 14.7469 9.24C14.7469 9.24 14.7735 9.33333 14.8402 9.42667C14.8802 9.48 14.9202 9.50667 14.9602 9.50667M14.5202 9.48C14.6269 9.48 14.6535 9.37333 14.5469 9.32C14.5069 9.29333 14.4535 9.26667 14.4402 9.26667C14.4402 9.26667 14.3735 9.29333 14.3069 9.30667L14.1869 9.34667L14.3335 9.41333C14.4002 9.44 14.4935 9.46667 14.5335 9.48M15.4935 9.36C15.4935 9.36 15.6002 9.36 15.6535 9.32C15.7602 9.28 15.7735 9.24 15.7602 9.13333C15.7335 8.97333 15.6535 8.96 15.3735 9.05333C15.2402 9.09333 15.2135 9.12 15.2669 9.21333C15.3069 9.30667 15.4002 9.34667 15.5069 9.36M13.4002 9.32C13.6002 9.32 13.6402 9.28 13.5335 9.16C13.4935 9.12 13.4402 9.05333 13.3869 9.01333C13.3202 8.96 13.2935 8.96 13.2535 9.05333C13.2002 9.16 13.1869 9.22667 13.2135 9.28C13.2402 9.32 13.2935 9.33333 13.3869 9.33333M12.8402 9.24C12.9335 9.24 12.9869 9.2 13.0535 9.08L13.1469 8.90667L13.0002 8.85333C12.8669 8.8 12.8402 8.81333 12.7335 8.96C12.6669 9.06667 12.6402 9.12 12.6535 9.17333C12.6535 9.17333 12.6535 9.17333 12.6535 9.18667C12.6535 9.18667 12.7335 9.22667 12.8135 9.22667C12.8135 9.22667 12.8135 9.22667 12.8269 9.22667M16.0935 8.72C16.1869 8.72 16.2935 8.65333 16.2802 8.54667C16.2669 8.4 16.1069 8.36 15.9735 8.46667C15.8935 8.53333 15.8935 8.54667 15.9602 8.64C16.0002 8.69333 16.0402 8.72 16.0935 8.72ZM14.2402 8.45333C14.2402 8.45333 14.2535 8.45333 14.2669 8.45333C14.2669 8.45333 14.2935 8.4 14.2802 8.34667C14.2535 8.2 14.1602 8.16 14.1202 8.28C14.0802 8.38667 14.1202 8.46667 14.2135 8.46667M13.6002 8.36C13.6002 8.36 13.7069 8.33333 13.7735 8.28C13.8135 8.24 13.8402 8.2 13.8402 8.17333C13.8402 8.17333 13.7469 8.14667 13.6802 8.2C13.6269 8.25333 13.5735 8.30667 13.5735 8.33333C13.5735 8.33333 13.5869 8.37333 13.6135 8.38667M14.6002 8.36C14.6002 8.36 14.6402 8.34667 14.6669 8.30667C14.7069 8.25333 14.7602 8.17333 14.7735 8.10667C14.8135 7.96 14.7469 7.89333 14.6135 7.96C14.4669 8.02667 14.4402 8.14667 14.5202 8.28C14.5469 8.33333 14.5735 8.36 14.5869 8.36M14.9335 8.16C14.9335 8.16 15.0135 8.10667 15.0269 8.01333C15.0269 7.96 15.0269 7.92 15.0135 7.89333C14.9469 7.89333 14.9069 7.96 14.9069 8.06667C14.9069 8.12 14.9335 8.14667 14.9469 8.14667M12.7869 7.93333C12.8535 7.93333 12.9202 7.93333 12.9602 7.92C13.0269 7.92 13.0669 7.89333 13.0935 7.86667C13.0935 7.86667 13.0935 7.86667 13.0935 7.85333C13.0935 7.85333 13.0935 7.85333 13.0935 7.82667C13.0935 7.78667 13.0269 7.73333 12.9069 7.68C12.8135 7.62667 12.6535 7.57333 12.5602 7.56C12.4002 7.52 12.3735 7.53333 12.3069 7.69333C12.2669 7.77333 12.2269 7.86667 12.2269 7.88C12.2269 7.88 12.5469 7.96 12.7602 7.96M16.1069 7.46667C16.3069 7.46667 16.4002 7.34667 16.2002 7.18667C16.0669 7.08 15.8669 7.08 15.7469 7.18667C15.6535 7.25333 15.6669 7.26667 15.8269 7.37333C15.9335 7.44 16.0402 7.48 16.1202 7.48M16.8269 7.33333C16.8269 7.33333 16.9202 7.30667 16.9735 7.25333C17.0669 7.18667 17.0669 7.17333 16.9469 7.04C16.8935 6.97333 16.8269 6.90667 16.8002 6.90667C16.8002 6.90667 16.6935 6.92 16.6135 6.93333C16.5202 6.93333 16.4535 6.98667 16.4535 7.02667C16.4669 7.12 16.7069 7.30667 16.8135 7.32M13.2669 7.10667H13.2935C13.4269 7.10667 13.4935 7 13.4935 6.8C13.4935 6.53333 13.3335 6.54667 13.2535 6.82667C13.1869 7.06667 13.1869 7.10667 13.2535 7.10667M14.2669 7.02667C14.3469 7.02667 14.5469 6.98667 14.5735 6.96C14.5735 6.96 14.5202 6.85333 14.4535 6.77333L14.3335 6.62667L14.2669 6.82667C14.2402 6.93333 14.2135 7.01333 14.2269 7.04C14.2269 7.04 14.2402 7.04 14.2535 7.04M13.7602 6.94667C13.7602 6.94667 13.8002 6.94667 13.8269 6.94667C13.8935 6.93333 13.9469 6.88 13.9602 6.82667C13.9602 6.76 13.9602 6.70667 13.9602 6.68C13.9602 6.68 13.8802 6.72 13.8535 6.8C13.8135 6.89333 13.7869 6.93333 13.8002 6.96" fill="#429F43"/>
</g>
<defs>
<clipPath id="clip0_406_427">
<rect width="27.4267" height="16" fill="white" transform="matrix(1 0 0 -1 0.839844 16)"/>
</clipPath>
</defs>
</svg>
