<svg width="28" height="16" viewBox="0 0 28 16" fill="none" xmlns="http://www.w3.org/2000/svg">
<g clip-path="url(#clip0_406_391)">
<path d="M27.8156 0H0.400391V16H27.8156V0Z" fill="#B3213A"/>
<path d="M13.0191 6.72365H9.49023L13.5003 9.798L14.1018 9.33016L11.669 7.47218L12.7785 7.45882L13.0191 6.72365Z" fill="#2D673A"/>
<path d="M15.1978 6.72365L14.1151 3.19482L12.578 8.15389L13.1795 8.62172L14.1151 5.61421L14.4493 6.72365H15.1978Z" fill="#2D673A"/>
<path d="M15.8795 8.90243L18.7267 6.72365H13.7542L13.527 7.47218H16.5345L15.6389 8.15389L15.8795 8.90243Z" fill="#2D673A"/>
<path d="M14.1018 10.2525L16.9622 12.4312L15.4251 7.47218H14.6765L15.6122 10.4797L14.7033 9.798L14.1018 10.2525Z" fill="#2D673A"/>
<path d="M12.3374 8.90243L11.2546 12.4312L15.2647 9.37026L15.0374 8.62172L12.6047 10.4797L12.9522 9.37026L12.3374 8.90243Z" fill="#2D673A"/>
</g>
<defs>
<clipPath id="clip0_406_391">
<rect width="27.4152" height="16" fill="white" transform="translate(0.400391)"/>
</clipPath>
</defs>
</svg>
