<svg width="28" height="16" viewBox="0 0 28 16" fill="none" xmlns="http://www.w3.org/2000/svg">
<g clip-path="url(#clip0_406_405)">
<path d="M27.8394 0H0.400391V8H27.8394V0Z" fill="#2D4192"/>
<path d="M27.8394 8H0.400391V16H27.8394V8Z" fill="#BE1636"/>
<path d="M0.400391 0V16L14.3312 8L0.400391 0Z" fill="white"/>
<path d="M2.28017 14.4699L1.66815 14.1056L1.12899 14.5865L1.28928 13.8871L0.662686 13.5373L1.37671 13.4645L1.52243 12.765L1.81387 13.4208L2.51332 13.3333L1.98873 13.8142L2.28017 14.4699Z" fill="#F5D336"/>
<path d="M4.15995 6.55738L3.63536 5.65392L3.32935 5.62477L4.04338 6.64481L4.14538 6.55738H4.15995ZM3.75194 6.96539L2.65904 6.12022L2.61533 5.62477H3.06706L3.97052 6.71767L3.75194 6.95082V6.96539ZM3.59165 7.15483L2.68819 6.64481L2.64447 6.35337L3.66451 7.05282L3.57708 7.1694L3.59165 7.15483Z" fill="#F5D336"/>
<path d="M4.34939 5.39162L4.62626 6.39709H4.7574L4.53882 5.15847L4.34939 5.39162ZM5.32571 6.35337H5.45686L5.73372 5.37705L5.54429 5.1439L5.32571 6.36794V6.35337ZM4.71369 4.99818L4.87398 6.36794H5.19456L5.35485 4.92532L5.03427 4.61931L4.71369 4.99818Z" fill="#F5D336"/>
<path d="M6.49147 7.18397L7.39493 6.68852L7.43864 6.39709L6.40403 7.08197L6.49147 7.19854V7.18397ZM6.09802 6.76138L6.97234 5.68306L7.46779 5.65392V6.09107L6.34575 6.96539L6.11259 6.74681L6.09802 6.76138ZM5.90859 6.58652L6.43318 5.69763L6.73919 5.66849L6.01059 6.67395L5.90859 6.58652Z" fill="#F5D336"/>
<path d="M6.65176 8.43716L7.65722 8.71403L7.89037 8.52459L6.6809 8.30601V8.43716H6.65176ZM6.65176 7.86885V8.18944L8.09438 8.34973L8.40039 8.02914L8.02152 7.70856L6.65176 7.88342V7.86885ZM6.63719 7.60656V7.75228L7.8758 7.51913L7.64265 7.32969L6.63719 7.60656Z" fill="#F5D336"/>
<path d="M5.89402 9.44262L6.41861 10.3315L6.72462 10.3607L6.01059 9.35519L5.90859 9.44262H5.89402ZM6.30203 9.03461L7.39493 9.87978L7.43864 10.3752H7.00148L6.09802 9.28233L6.3166 9.04918L6.30203 9.03461ZM6.46232 8.84517L7.36578 9.35519L7.4095 9.6612L6.37489 8.97632L6.46232 8.85975V8.84517Z" fill="#F5D336"/>
<path d="M4.34939 10.6375L4.53882 10.8707L4.74283 9.64663H4.61168L4.34939 10.6375ZM4.87398 9.64663L4.72826 11.0747L5.04884 11.3807L5.36943 11.0018L5.19456 9.63206H4.87398V9.64663ZM5.32571 9.63206L5.55886 10.8561L5.7483 10.623L5.47143 9.61749H5.34028L5.32571 9.63206Z" fill="#F5D336"/>
<path d="M3.5625 8.85975L2.65904 9.36976L2.61533 9.67577L3.63536 8.96175L3.54793 8.85975H3.5625ZM3.97052 9.26776L3.11077 10.3461L2.61533 10.3898V9.95264L3.7228 9.06375L3.97052 9.28233V9.26776ZM4.15995 9.42805L3.64994 10.3315L3.34392 10.3607L4.05795 9.34062L4.15995 9.42805Z" fill="#F5D336"/>
<path d="M2.17817 8.51002L2.41132 8.69945L3.41678 8.42259V8.29144L2.17817 8.52459V8.51002ZM1.65358 8.02914L2.03245 8.34973L3.40221 8.17486V7.85428L1.95959 7.70856L1.65358 8.02914ZM2.1636 7.51913L3.38764 7.7377V7.60656L2.39675 7.34426L2.1636 7.5337V7.51913Z" fill="#F5D336"/>
</g>
<defs>
<clipPath id="clip0_406_405">
<rect width="27.439" height="16" fill="white" transform="translate(0.400391)"/>
</clipPath>
</defs>
</svg>
