<svg width="29" height="16" viewBox="0 0 29 16" fill="none" xmlns="http://www.w3.org/2000/svg">
<g clip-path="url(#clip0_406_421)">
<path d="M28.2565 16H0.839844V0H28.2565V16Z" fill="white"/>
<path d="M28.2565 16H0.839844V10.6667H28.2565V16Z" fill="#BC1734"/>
<path d="M19.3401 9.73633L19.7289 8.54188H20.9928L19.9789 7.79188L20.3678 6.59744L19.3401 7.34744L18.3262 6.59744L18.7151 7.79188L17.7012 8.54188H18.9512L19.3401 9.73633Z" fill="#429E61"/>
<path d="M9.75629 9.73633L10.1313 8.54188H11.3952L10.3813 7.79188L10.7702 6.59744L9.75629 7.34744L8.72852 6.59744L9.1174 7.79188L8.10352 8.54188H9.35352L9.75629 9.73633Z" fill="#429E61"/>
<path d="M28.2565 5.3335H0.839844V0.000162125H28.2565V5.3335Z" fill="#010101"/>
</g>
<defs>
<clipPath id="clip0_406_421">
<rect width="27.4167" height="16" fill="white" transform="matrix(1 0 0 -1 0.839844 16)"/>
</clipPath>
</defs>
</svg>
