<svg width="25" height="16" viewBox="0 0 25 16" fill="none" xmlns="http://www.w3.org/2000/svg">
<g clip-path="url(#clip0_406_409)">
<path fill-rule="evenodd" clip-rule="evenodd" d="M0.400391 0H24.4004V16H0.400391V0Z" fill="#FE0000"/>
<path fill-rule="evenodd" clip-rule="evenodd" d="M0.400391 0H12.4004V8H0.400391V0Z" fill="#000095"/>
<path d="M6.40039 1L4.90039 6.59808L8.99847 2.5L3.40039 4L8.99847 5.5L4.90039 1.40192L6.40039 7L7.90039 1.40192L3.80231 5.5L9.40039 4L3.80231 2.5L7.90039 6.59808L6.40039 1Z" fill="white"/>
<path fill-rule="evenodd" clip-rule="evenodd" d="M6.40117 2.57988C5.57274 2.57988 4.90117 3.25146 4.90117 4.07988C4.90117 4.90831 5.57274 5.57988 6.40117 5.57988C7.2296 5.57988 7.90117 4.90831 7.90117 4.07988C7.90117 3.25146 7.2296 2.57988 6.40117 2.57988ZM4.70117 4.07988C4.70117 3.141 5.46229 2.37988 6.40117 2.37988C7.34006 2.37988 8.10117 3.141 8.10117 4.07988C8.10117 5.01877 7.34006 5.77988 6.40117 5.77988C5.46229 5.77988 4.70117 5.01877 4.70117 4.07988Z" fill="#000095"/>
</g>
<defs>
<clipPath id="clip0_406_409">
<rect width="24" height="16" fill="white" transform="translate(0.400391)"/>
</clipPath>
</defs>
</svg>
