<svg width="28" height="16" viewBox="0 0 28 16" fill="none" xmlns="http://www.w3.org/2000/svg">
<g clip-path="url(#clip0_406_394)">
<path d="M27.829 0H0.400391V16H27.829V0Z" fill="#D3112B"/>
<path d="M14.1137 3.99658C16.3153 3.99658 18.1102 5.7915 18.1102 7.99308C18.1102 10.1947 16.3153 11.9896 14.1137 11.9896C11.9121 11.9896 10.1172 10.2087 10.1172 7.99308C10.1172 5.77748 11.9121 3.99658 14.1137 3.99658Z" fill="white"/>
<path d="M14.1137 4.9922C15.7684 4.9922 17.1146 6.33839 17.1146 7.99308C17.1146 9.64777 15.7684 10.994 14.1137 10.994C12.459 10.994 11.1128 9.64777 11.1128 7.99308C11.1128 6.33839 12.459 4.9922 14.1137 4.9922Z" fill="#D3112B"/>
<path d="M14.913 5.59518C16.2311 5.59518 17.3109 6.67493 17.3109 7.99308C17.3109 9.31122 16.2311 10.391 14.913 10.391C13.5948 10.391 12.5151 9.31122 12.5151 7.99308C12.5151 6.67493 13.5948 5.59518 14.913 5.59518Z" fill="white"/>
<path d="M13.1191 7.99301L14.8299 8.55392L15.0964 7.69853" fill="#D3112B"/>
<path d="M13.1191 7.99301L14.8299 7.44612L15.0964 8.30151" fill="#D3112B"/>
<path d="M14.3531 6.28223V8.09117H15.2506" fill="#D3112B"/>
<path d="M14.3531 6.28223L15.4189 7.7406L14.6897 8.27346" fill="#D3112B"/>
<path d="M14.3531 9.70379L15.4189 8.24542L14.6897 7.72657" fill="#D3112B"/>
<path d="M14.3531 9.70379V7.90887H15.2506" fill="#D3112B"/>
<path d="M16.3724 6.9413L14.6616 7.50221L14.9421 8.3576" fill="#D3112B"/>
<path d="M16.3724 6.9413L15.3067 8.39967L14.5775 7.8668" fill="#D3112B"/>
<path d="M16.3724 9.05874L15.3067 7.60037L14.5775 8.13323" fill="#D3112B"/>
<path d="M16.3724 9.05874L14.6616 8.49783L14.9421 7.64244" fill="#D3112B"/>
</g>
<defs>
<clipPath id="clip0_406_394">
<rect width="27.4286" height="16" fill="white" transform="translate(0.400391)"/>
</clipPath>
</defs>
</svg>
