<svg width="28" height="16" viewBox="0 0 28 16" fill="none" xmlns="http://www.w3.org/2000/svg">
<g clip-path="url(#clip0_406_367)">
<path d="M27.4382 0H0V16H27.4382V0Z" fill="white"/>
<path d="M0 14.2269H27.4382V12.4536H0V14.2269ZM0 10.6668H27.4382V8.88004H0V10.6668ZM8.8934 7.10677H27.4382V5.33351H8.8934V7.10677ZM8.8934 3.5467H27.4382V1.77344H8.8934V3.5467Z" fill="#4176BA"/>
<path fill-rule="evenodd" clip-rule="evenodd" d="M4.454 4.45302L4.53522 5.76605C3.31694 6.64592 4.07498 7.1603 3.19512 7.44456C3.79072 6.84896 3.01914 6.84896 3.68243 5.50886" fill="#EBC22A"/>
<path d="M4.48107 4.45302L4.56229 5.76605H4.50815L4.41339 4.45302H4.49461H4.48107ZM4.56229 5.76605V5.79313L4.53522 5.76605H4.56229ZM4.56229 5.79313C3.91255 6.25336 3.83133 6.61884 3.76365 6.87604H3.68243C3.76365 6.59177 3.8584 6.21275 4.50815 5.73898L4.56229 5.79313ZM3.76365 6.87604C3.68243 7.1603 3.62828 7.33627 3.22219 7.47164L3.19512 7.41749C3.58767 7.29566 3.62828 7.10615 3.68243 6.87604H3.76365ZM3.22219 7.47164L3.08683 7.52578L3.16804 7.44456H3.19512L3.22219 7.47164ZM3.16804 7.44456C3.42524 7.1603 3.42524 7.0114 3.37109 6.79482H3.45231C3.47938 6.99786 3.50645 7.18737 3.22219 7.47164L3.16804 7.44456ZM3.37109 6.79482C3.34402 6.53763 3.28987 6.19922 3.65535 5.50886L3.7095 5.53593C3.37109 6.23983 3.39816 6.53763 3.45231 6.79482H3.37109Z" fill="#2C2E30"/>
<path d="M4.04791 5.46825C3.73657 6.00971 3.66889 6.4158 3.64182 6.75421L3.5606 6.72714C3.61475 6.4158 3.69596 5.98264 4.0073 5.44118L4.06145 5.46825H4.04791ZM3.64182 6.75421C3.58767 7.09262 3.53353 7.34981 3.22219 7.47164L3.19512 7.41749C3.47938 7.29566 3.50645 7.05201 3.5606 6.72714L3.64182 6.75421Z" fill="#2C2E30"/>
<path fill-rule="evenodd" clip-rule="evenodd" d="M4.454 4.45302L4.34571 3.11292C5.55045 2.23306 4.80595 1.71868 5.68581 1.43441C5.11728 2.05709 5.86178 2.05709 5.1985 3.37011" fill="#EBC22A"/>
<path d="M4.41339 4.45302L4.33217 3.14L4.38632 3.11292L4.49461 4.45302H4.41339ZM4.33217 3.14V3.11292H4.35925L4.33217 3.14ZM4.33217 3.11292C4.96838 2.65269 5.07667 2.2872 5.13082 2.00294L5.21204 2.03001C5.13082 2.31428 5.03607 2.67976 4.38632 3.14L4.33217 3.11292ZM5.13082 2.00294C5.21204 1.74575 5.26618 1.5427 5.67228 1.40734L5.69935 1.46148C5.30679 1.58331 5.26618 1.77282 5.21204 2.03001L5.13082 2.00294ZM5.67228 1.40734L5.80764 1.38027L5.72642 1.46148L5.67228 1.40734ZM5.72642 1.46148C5.46923 1.74575 5.46923 1.86758 5.52337 2.08416L5.44216 2.11123C5.41508 1.88111 5.38801 1.71868 5.67228 1.40734L5.72642 1.46148ZM5.52337 2.08416C5.55045 2.34135 5.60459 2.67976 5.23911 3.39719L5.18497 3.37011C5.52337 2.66622 5.4963 2.34135 5.44216 2.11123L5.52337 2.08416Z" fill="#2C2E30"/>
<path d="M4.84656 3.42426C5.15789 2.8828 5.22557 2.47671 5.27972 2.16538H5.33387C5.27972 2.50379 5.1985 2.90988 4.9007 3.45133L4.84656 3.42426ZM5.27972 2.16538C5.33387 1.81343 5.36094 1.56978 5.65874 1.42088L5.68581 1.47502C5.40155 1.61038 5.37447 1.8405 5.32033 2.16538H5.26618H5.27972Z" fill="#2C2E30"/>
<path fill-rule="evenodd" clip-rule="evenodd" d="M4.454 4.45302L3.1139 4.53424C2.23403 3.3295 1.71965 4.07401 1.43539 3.19414C2.05806 3.78974 2.03099 3.04524 3.37109 3.68145" fill="#EBC22A"/>
<path d="M4.46754 4.4801L3.12744 4.57485V4.49363L4.44046 4.41242L4.46754 4.46656V4.4801ZM3.12744 4.57485L3.10036 4.54778L3.12744 4.52071V4.57485ZM3.10036 4.54778C2.6672 3.89803 2.30172 3.83035 2.01745 3.74913V3.69499C2.32879 3.77621 2.69427 3.84389 3.15451 4.52071L3.10036 4.54778ZM2.01745 3.74913C1.76026 3.66791 1.55722 3.62731 1.42185 3.20768L1.476 3.1806C1.61136 3.57316 1.78733 3.61377 2.01745 3.69499V3.74913ZM1.42185 3.20768L1.36771 3.09939L1.46246 3.1806H1.43539L1.40832 3.20768H1.42185ZM1.476 3.1806C1.76026 3.4378 1.88209 3.41072 2.09867 3.38365L2.12574 3.4378C1.89563 3.46487 1.73319 3.49194 1.43539 3.20768L1.48953 3.1806H1.476ZM2.09867 3.38365C2.35586 3.3295 2.69427 3.27536 3.4117 3.64084L3.35755 3.69499C2.6672 3.35658 2.35586 3.41072 2.12574 3.4378L2.09867 3.38365Z" fill="#2C2E30"/>
<path d="M3.42524 4.07401C2.88378 3.7356 2.46415 3.68145 2.15282 3.64084V3.55962C2.49123 3.61377 2.89732 3.69499 3.43877 4.01986L3.4117 4.07401H3.42524ZM2.15282 3.64084C1.78733 3.5867 1.55722 3.53255 1.40832 3.23475L1.46246 3.20768C1.58429 3.49194 1.81441 3.54609 2.15282 3.57316V3.65438V3.64084Z" fill="#2C2E30"/>
<path fill-rule="evenodd" clip-rule="evenodd" d="M4.454 4.45302L5.76703 4.34473C6.63336 5.54947 7.16128 4.83204 7.44554 5.68483C6.82287 5.11631 6.84994 5.86081 5.50984 5.19753" fill="#EBC22A"/>
<path d="M4.44046 4.42595L5.78057 4.31766V4.37181L4.46754 4.4801L4.44046 4.42595ZM5.78057 4.31766H5.80764L5.78057 4.34473V4.31766ZM5.80764 4.31766C6.2408 4.96741 6.60629 5.06216 6.89055 5.14338V5.19753C6.57921 5.11631 6.21373 5.02155 5.75349 4.37181L5.80764 4.31766ZM6.89055 5.14338C7.14774 5.19753 7.35079 5.25167 7.48615 5.68483H7.432C7.29664 5.29228 7.12067 5.25167 6.89055 5.19753V5.14338ZM7.48615 5.68483L7.5403 5.79313L7.44554 5.71191L7.47261 5.68483H7.49969H7.48615ZM7.432 5.71191C7.17481 5.45472 7.01238 5.48179 6.80933 5.50886L6.78226 5.45472C7.01238 5.40057 7.17481 5.3735 7.48615 5.65776L7.432 5.71191ZM6.80933 5.50886C6.55214 5.53593 6.21373 5.59008 5.52337 5.2246L5.55045 5.17045C6.25434 5.53593 6.56568 5.48179 6.79579 5.45472L6.82287 5.50886H6.80933Z" fill="#2C2E30"/>
<path d="M5.46923 4.84558C6.01068 5.15692 6.43031 5.23813 6.75518 5.27874L6.72811 5.33289C6.41678 5.27874 5.98361 5.2246 5.44216 4.89972L5.46923 4.84558ZM6.75518 5.27874C7.09359 5.33289 7.32371 5.35996 7.47261 5.69837L7.41847 5.72544C7.2831 5.41411 7.05299 5.38703 6.71458 5.33289L6.74165 5.27874H6.75518Z" fill="#2C2E30"/>
<path fill-rule="evenodd" clip-rule="evenodd" d="M4.454 4.45302L3.57414 5.45472C2.08513 5.19753 2.23403 6.10446 1.43539 5.68483C2.28818 5.65776 1.74672 5.14338 3.14097 4.65607" fill="#EBC22A"/>
<path d="M4.454 4.45302L3.60121 5.45472L3.54706 5.42764L4.42693 4.42595L4.454 4.45302ZM3.60121 5.45472L3.57414 5.48179V5.45472H3.60121ZM3.57414 5.48179C2.80256 5.34643 2.46415 5.53593 2.23403 5.68483L2.17989 5.63069C2.43708 5.46825 2.77549 5.26521 3.57414 5.40057V5.48179ZM2.23403 5.68483C2.00392 5.8202 1.82794 5.91495 1.40832 5.71191L1.43539 5.65776C1.82794 5.83373 1.97684 5.76605 2.17989 5.63069L2.23403 5.68483ZM1.40832 5.71191L1.30002 5.65776H1.43539V5.68483L1.40832 5.71191ZM1.43539 5.65776C1.82794 5.63069 1.89563 5.53593 2.03099 5.34643L2.08513 5.40057C1.94977 5.57654 1.85502 5.71191 1.43539 5.71191V5.65776ZM2.03099 5.34643C2.17989 5.14338 2.39647 4.88619 3.14097 4.629L3.16804 4.68314C2.42354 4.94033 2.2205 5.19753 2.08513 5.40057L2.03099 5.34643Z" fill="#2C2E30"/>
<path d="M3.45231 4.89972C2.82964 5.04862 2.49123 5.30582 2.24757 5.49533L2.2205 5.44118C2.47769 5.26521 2.8161 5.00802 3.43877 4.84558L3.46585 4.89972H3.45231ZM2.24757 5.49533C1.96331 5.69837 1.78733 5.86081 1.44892 5.72544V5.6713C1.76026 5.77959 1.93623 5.64423 2.2205 5.44118L2.24757 5.49533Z" fill="#2C2E30"/>
<path fill-rule="evenodd" clip-rule="evenodd" d="M4.454 4.45302L5.30679 3.45133C6.80933 3.68145 6.64689 2.77451 7.44554 3.19414C6.59275 3.22121 7.1342 3.76267 5.73996 4.22291" fill="#EBC22A"/>
<path d="M4.44046 4.42595L5.29326 3.42426L5.3474 3.4784L4.46754 4.45302L4.44046 4.42595ZM5.29326 3.42426H5.32033V3.45133L5.29326 3.42426ZM5.32033 3.42426C6.0919 3.55962 6.43031 3.34304 6.66043 3.22121L6.71458 3.27536C6.45738 3.42426 6.11898 3.61377 5.32033 3.4784V3.42426ZM6.66043 3.22121C6.91762 3.07231 7.06652 2.9911 7.48615 3.16707L7.45908 3.22121C7.06652 3.04524 6.91762 3.14 6.71458 3.27536L6.66043 3.22121ZM7.48615 3.16707L7.59444 3.22121L7.45908 3.24829V3.19414L7.48615 3.16707ZM7.45908 3.24829C7.06652 3.24829 6.99884 3.37011 6.86348 3.53255L6.80933 3.50548C6.97177 3.3295 7.03945 3.19414 7.45908 3.16707V3.24829ZM6.86348 3.53255C6.70104 3.7356 6.49799 3.99279 5.75349 4.24998L5.72642 4.19583C6.47092 3.96571 6.6875 3.68145 6.80933 3.50548L6.86348 3.53255Z" fill="#2C2E30"/>
<path d="M5.44216 3.99279C6.06483 3.85742 6.40324 3.60023 6.66043 3.39719L6.6875 3.45133C6.43031 3.65438 6.0919 3.91157 5.46923 4.07401L5.44216 3.99279ZM6.66043 3.39719C6.94469 3.19414 7.14774 3.05878 7.45908 3.16707V3.22121C7.14774 3.11292 6.97177 3.27536 6.6875 3.45133L6.66043 3.39719Z" fill="#2C2E30"/>
<path fill-rule="evenodd" clip-rule="evenodd" d="M4.454 4.45302L3.45231 3.57316C3.68243 2.08416 2.77549 2.23306 3.19512 1.43441C3.22219 2.2872 3.76364 1.74575 4.22388 3.14" fill="#EBC22A"/>
<path d="M4.44046 4.4801L3.43877 3.60023L3.49292 3.54609L4.48107 4.42595L4.454 4.4801H4.44046ZM3.43877 3.60023V3.57316H3.46585L3.43877 3.60023ZM3.43877 3.57316C3.54706 2.80159 3.35755 2.46318 3.23573 2.23306L3.28987 2.20599C3.4117 2.46318 3.62828 2.77451 3.49292 3.57316H3.43877ZM3.23573 2.23306C3.08683 2.00294 2.97854 1.82697 3.18158 1.43441L3.23573 1.46148C3.05975 1.82697 3.15451 1.97587 3.28987 2.20599L3.23573 2.23306ZM3.18158 1.43441L3.23573 1.32612V1.43441H3.18158ZM3.23573 1.43441C3.2628 1.82697 3.37109 1.89465 3.54706 2.03001L3.51999 2.08416C3.34402 1.94879 3.20865 1.85404 3.19512 1.43441H3.24926H3.23573ZM3.54706 2.03001C3.75011 2.19245 4.0073 2.39549 4.26449 3.14L4.21035 3.16707C3.95315 2.42257 3.69596 2.24659 3.50645 2.08416L3.53353 2.03001H3.54706Z" fill="#2C2E30"/>
<path d="M3.99376 3.45133C3.8584 2.82866 3.60121 2.49025 3.39816 2.23306L3.45231 2.20599C3.65535 2.46318 3.91255 2.80159 4.07498 3.4378H3.99376V3.45133ZM3.39816 2.23306C3.19512 1.94879 3.05975 1.77282 3.16804 1.43441H3.22219C3.1139 1.74575 3.24926 1.92172 3.45231 2.20599L3.39816 2.23306Z" fill="#2C2E30"/>
<path fill-rule="evenodd" clip-rule="evenodd" d="M4.454 4.45302L5.42862 5.30582C5.1985 6.79482 6.0919 6.64592 5.68581 7.44456C5.65874 6.61884 5.11728 7.1603 4.65705 5.73898" fill="#EBC22A"/>
<path d="M4.454 4.42595L5.45569 5.27874L5.42862 5.33289L4.42693 4.4801L4.454 4.42595ZM5.45569 5.27874L5.48277 5.30582L5.45569 5.33289L5.42862 5.30582L5.45569 5.27874ZM5.45569 5.33289C5.3474 6.10446 5.53691 6.4158 5.65874 6.67299L5.60459 6.70006C5.48277 6.44287 5.26618 6.10446 5.40155 5.30582L5.45569 5.33289ZM5.65874 6.67299C5.80764 6.90311 5.91593 7.07908 5.71288 7.47164L5.65874 7.44456C5.83471 7.07908 5.73996 6.90311 5.60459 6.70006L5.65874 6.67299ZM5.71288 7.47164L5.65874 7.57993V7.44456H5.68581L5.71288 7.47164ZM5.65874 7.44456C5.63167 7.07908 5.52338 6.98433 5.3474 6.84896L5.37447 6.82189C5.55045 6.94372 5.68581 7.02494 5.71288 7.44456H5.65874ZM5.3474 6.84896C5.14436 6.7136 4.88717 6.51055 4.62997 5.73898H4.68412C4.94131 6.45641 5.1985 6.67299 5.37447 6.82189L5.3474 6.84896Z" fill="#2C2E30"/>
<path d="M4.9007 5.44118C5.06314 6.06385 5.29326 6.40226 5.4963 6.64592L5.44216 6.70006C5.23911 6.4158 4.98192 6.07739 4.84656 5.46825L4.9007 5.44118ZM5.4963 6.64592C5.69935 6.93018 5.83471 7.13323 5.72642 7.47164L5.67228 7.44456C5.78057 7.13323 5.6452 6.95725 5.44216 6.70006L5.4963 6.64592Z" fill="#2C2E30"/>
<path fill-rule="evenodd" clip-rule="evenodd" d="M4.454 4.45302H5.02253L4.454 7.70176L3.87194 4.45302H4.454V7.70176V4.45302Z" fill="#EBC22A"/>
<path d="M4.454 4.42595H5.02253V4.4801H4.454V4.42595ZM5.02253 4.42595H5.07667V4.45302H5.02253V4.42595ZM5.07667 4.45302L4.48107 7.70176H4.39986L4.99546 4.45302H5.07667ZM4.48107 7.70176L4.454 7.85066L4.39986 7.70176H4.48107ZM4.39986 7.70176L3.80425 4.45302H3.88547L4.48107 7.70176H4.39986ZM3.80425 4.42595H3.8584V4.45302H3.80425V4.42595ZM3.8584 4.42595H4.454V4.4801H3.8584V4.42595ZM4.454 4.42595H4.48107V4.45302H4.454V4.42595ZM4.48107 7.70176H4.39986V4.45302H4.48107V7.70176Z" fill="#2C2E30"/>
<path fill-rule="evenodd" clip-rule="evenodd" d="M4.454 4.45302H3.87194L4.454 1.19076L5.02253 4.45302H4.454V1.19076V4.45302Z" fill="#EBC22A"/>
<path d="M4.454 4.4801H3.8584V4.42595H4.454V4.4801ZM3.8584 4.4801H3.80425V4.45302H3.8584V4.4801ZM3.80425 4.45302L4.39986 1.17722L4.48107 1.20429L3.88547 4.45302H3.80425ZM4.39986 1.17722L4.454 1.02832L4.48107 1.17722H4.39986ZM4.48107 1.17722L5.07667 4.45302H4.99546L4.39986 1.20429L4.48107 1.17722ZM5.07667 4.4801H5.02253V4.45302H5.07667V4.4801ZM5.02253 4.4801H4.454V4.42595H5.02253V4.4801ZM4.454 4.4801H4.39986V4.45302H4.454V4.4801ZM4.39986 1.17722H4.48107V4.45302H4.39986V1.17722Z" fill="#2C2E30"/>
<path fill-rule="evenodd" clip-rule="evenodd" d="M4.454 4.45302L4.454 5.04862L1.19173 4.45302L4.454 3.87096L4.454 4.45302H1.19173H4.454Z" fill="#EBC22A"/>
<path d="M4.49461 5.04862H4.41339V4.45302H4.49461V5.04862ZM4.49461 5.04862V5.0757H4.44046L4.46754 5.04862H4.49461ZM4.44046 5.0757L1.19173 4.4801L1.21881 4.42595L4.46754 5.02155L4.44046 5.0757ZM1.19173 4.4801L1.0293 4.45302L1.19173 4.42595V4.4801ZM1.19173 4.42595L4.44046 3.83035L4.46754 3.8845L1.21881 4.4801L1.19173 4.42595ZM4.44046 3.83035L4.49461 3.80328V3.85742H4.46754L4.44046 3.83035ZM4.49461 4.45302H4.41339V3.85742H4.49461V4.45302ZM4.49461 4.4801H4.46754V4.45302L4.49461 4.45302V4.4801ZM4.46754 4.4801H1.19173V4.42595H4.46754V4.4801Z" fill="#2C2E30"/>
<path fill-rule="evenodd" clip-rule="evenodd" d="M4.454 4.45302L4.454 3.87096L7.70273 4.45302L4.454 5.04862L4.454 4.45302H7.70273H4.454Z" fill="#EBC22A"/>
<path d="M4.41339 3.85742H4.49461V4.45302H4.41339V3.85742ZM4.41339 3.85742V3.80328L4.46754 3.83035V3.85742H4.41339ZM4.46754 3.83035L7.71627 4.42595L7.6892 4.4801L4.44046 3.8845L4.46754 3.83035ZM7.71627 4.42595L7.86517 4.45302L7.71627 4.4801V4.42595ZM7.71627 4.4801L4.46754 5.0757L4.44046 5.02155L7.6892 4.42595L7.71627 4.4801ZM4.46754 5.0757H4.41339V5.04862H4.46754V5.0757ZM4.41339 4.45302H4.49461V5.04862H4.41339V4.45302ZM4.41339 4.42595H4.46754V4.45302L4.41339 4.45302V4.42595ZM4.46754 4.42595H7.71627V4.4801H4.46754V4.42595Z" fill="#2C2E30"/>
<path fill-rule="evenodd" clip-rule="evenodd" d="M4.454 4.45302L4.87363 4.87265L2.13928 6.75421L4.02084 4.01986L4.454 4.45302L2.13928 6.75421L4.454 4.45302Z" fill="#EBC22A"/>
<path d="M4.454 4.42595L4.88716 4.84558L4.83302 4.89972L4.41339 4.4801L4.44046 4.42595H4.454ZM4.88716 4.84558L4.91424 4.87265L4.86009 4.89972V4.87265L4.88716 4.84558ZM4.86009 4.89972L2.15282 6.78128L2.12574 6.72714L4.83302 4.84558L4.86009 4.89972ZM2.15282 6.78128L2.01745 6.88957L2.08513 6.74067L2.13928 6.79482L2.15282 6.78128ZM2.09867 6.72714L3.98023 4.01986L4.03437 4.04693L2.15282 6.78128L2.09867 6.72714ZM3.98023 4.01986L4.0073 3.99279L4.03437 4.01986H3.98023ZM4.03437 4.01986L4.454 4.42595L4.42693 4.4801L3.99376 4.04693L4.04791 4.01986H4.03437ZM4.454 4.42595L4.48107 4.45302L4.454 4.4801V4.42595ZM4.454 4.4801L2.16635 6.76775L2.13928 6.7136L4.42693 4.41242L4.454 4.46656V4.4801Z" fill="#2C2E30"/>
<path fill-rule="evenodd" clip-rule="evenodd" d="M4.454 4.45302L4.02084 4.01986L6.75518 2.1383L4.87363 4.87265L4.454 4.45302L6.75518 2.1383L4.454 4.45302Z" fill="#EBC22A"/>
<path d="M4.44046 4.4801L4.0073 4.04693L4.06145 4.01986L4.48107 4.42595L4.454 4.4801H4.44046ZM4.0073 4.04693V4.01986H4.03437L4.0073 4.04693ZM4.03437 4.01986L6.74165 2.11123L6.76872 2.16538L4.06145 4.04693L4.03437 4.01986ZM6.74165 2.11123L6.87701 2.03001L6.79579 2.15184L6.74165 2.09769V2.11123ZM6.79579 2.16538L4.91424 4.89972L4.86009 4.84558L6.74165 2.1383L6.79579 2.16538ZM4.91424 4.89972L4.88716 4.9268L4.86009 4.89972L4.88716 4.87265L4.91424 4.89972ZM4.86009 4.89972L4.44046 4.4801L4.46754 4.42595L4.9007 4.84558L4.84656 4.89972H4.86009ZM4.44046 4.4801L4.41339 4.45302L4.44046 4.42595L4.46754 4.45302L4.44046 4.4801ZM4.44046 4.42595L6.72811 2.1383L6.78226 2.16538L4.46754 4.4801L4.44046 4.42595Z" fill="#2C2E30"/>
<path fill-rule="evenodd" clip-rule="evenodd" d="M4.454 4.45302L4.02084 4.87265L2.13928 2.1383L4.87363 4.01986L4.454 4.45302L2.13928 2.1383L4.454 4.45302Z" fill="#EBC22A"/>
<path d="M4.46754 4.4801L4.04791 4.89972L3.99376 4.84558L4.42693 4.42595L4.454 4.4801H4.46754ZM4.04791 4.89972L4.02084 4.9268L3.99376 4.89972L4.02084 4.87265L4.04791 4.89972ZM3.99376 4.89972L2.11221 2.16538L2.16635 2.1383L4.04791 4.84558L3.99376 4.89972ZM2.11221 2.16538L2.03099 2.04355L2.16635 2.12477L2.11221 2.17891V2.16538ZM2.16635 2.11123L4.87363 4.01986L4.84656 4.04693L2.13928 2.16538L2.16635 2.11123ZM4.87363 4.01986H4.92777L4.9007 4.04693L4.87363 4.01986ZM4.9007 4.04693L4.46754 4.4801L4.44046 4.42595L4.86009 4.01986L4.91424 4.04693H4.9007ZM4.46754 4.4801H4.44046L4.46754 4.45302V4.4801ZM4.44046 4.4801L2.15282 2.16538L2.17989 2.1383L4.48107 4.42595L4.454 4.4801H4.44046Z" fill="#2C2E30"/>
<path fill-rule="evenodd" clip-rule="evenodd" d="M4.454 4.45302L4.87363 4.01986L6.75518 6.75421L4.02084 4.87265L4.454 4.45302L6.75518 6.75421L4.454 4.45302Z" fill="#EBC22A"/>
<path d="M4.44046 4.42595L4.86009 4.01986L4.91424 4.04693L4.48107 4.4801L4.454 4.42595H4.44046ZM4.86009 4.01986L4.88716 3.99279L4.91424 4.01986H4.86009ZM4.91424 4.01986L6.79579 6.72714L6.74165 6.78128L4.86009 4.04693L4.91424 4.01986ZM6.79579 6.72714L6.87701 6.87604L6.74165 6.76775L6.79579 6.7136V6.72714ZM6.74165 6.78128L4.03437 4.89972L4.06145 4.84558L6.76872 6.72714L6.74165 6.78128ZM4.03437 4.89972L4.0073 4.87265V4.84558L4.03437 4.87265V4.89972ZM4.0073 4.84558L4.44046 4.42595L4.46754 4.4801L4.04791 4.89972L3.99376 4.84558H4.0073ZM4.44046 4.42595L4.46754 4.39888V4.45302L4.44046 4.42595ZM4.46754 4.42595L6.78226 6.72714L6.72811 6.78128L4.42693 4.49363L4.454 4.43949L4.46754 4.42595Z" fill="#2C2E30"/>
<path fill-rule="evenodd" clip-rule="evenodd" d="M5.53691 4.45302C5.53691 3.83035 5.0496 3.37011 4.454 3.37011C3.8584 3.37011 3.34402 3.83035 3.34402 4.45302C3.34402 5.0757 3.83133 5.53593 4.454 5.53593C5.07667 5.53593 5.53691 5.04862 5.53691 4.45302Z" fill="#EBC22A"/>
<path d="M5.4963 4.45302C5.4963 4.14169 5.38801 3.8845 5.18497 3.70852L5.23911 3.65438C5.44216 3.85742 5.57752 4.14169 5.57752 4.45302H5.4963ZM5.18497 3.70852C4.99546 3.50548 4.7518 3.39719 4.46754 3.39719V3.31597C4.7518 3.31597 5.03607 3.4378 5.23911 3.65438L5.18497 3.70852ZM4.46754 3.39719C4.1562 3.39719 3.89901 3.50548 3.72304 3.70852L3.66889 3.65438C3.87194 3.45133 4.1562 3.31597 4.46754 3.31597V3.39719ZM3.72304 3.70852C3.51999 3.8845 3.4117 4.14169 3.4117 4.45302H3.33048C3.33048 4.14169 3.46585 3.85742 3.66889 3.65438L3.72304 3.70852ZM3.4117 4.45302C3.4117 4.73729 3.51999 4.99448 3.72304 5.19753L3.66889 5.2246C3.46585 5.02155 3.33048 4.76436 3.33048 4.45302H3.4117ZM3.72304 5.19753C3.89901 5.38703 4.1562 5.50886 4.46754 5.50886V5.56301C4.1562 5.56301 3.87194 5.44118 3.66889 5.2246L3.72304 5.19753ZM4.46754 5.50886C4.7518 5.50886 5.00899 5.38703 5.18497 5.19753L5.23911 5.2246C5.03607 5.42764 4.7518 5.56301 4.46754 5.56301V5.50886ZM5.18497 5.19753C5.38801 4.99448 5.4963 4.73729 5.4963 4.45302H5.57752C5.57752 4.76436 5.44216 5.02155 5.23911 5.2246L5.18497 5.19753Z" fill="#2C2E30"/>
<path fill-rule="evenodd" clip-rule="evenodd" d="M5.23911 4.01986C5.18496 4.10108 5.13082 3.96571 4.9007 3.96571C4.64351 3.96571 4.61644 4.10108 4.56229 4.07401C4.53522 4.04693 4.76534 3.87096 4.84656 3.87096C4.92777 3.84389 5.15789 3.92511 5.22557 4.01986" fill="#2C2E30"/>
<path fill-rule="evenodd" clip-rule="evenodd" d="M4.95485 4.10108C5.03607 4.1823 4.98192 4.30412 4.9007 4.30412C4.81948 4.30412 4.69766 4.1823 4.76534 4.10108" fill="#2C2E30"/>
<path fill-rule="evenodd" clip-rule="evenodd" d="M4.64351 4.19583C4.64351 4.07401 4.73826 4.04693 4.9007 4.04693C5.06314 4.04693 5.13082 4.1823 5.18497 4.19583C5.13082 4.19583 5.0496 4.08754 4.9007 4.08754C4.7518 4.08754 4.7518 4.08754 4.64351 4.19583Z" fill="#2C2E30"/>
<path fill-rule="evenodd" clip-rule="evenodd" d="M4.67058 4.22291C4.67058 4.22291 4.7518 4.27705 4.87363 4.27705C4.98192 4.27705 5.03607 4.24998 5.10375 4.19583C5.15789 4.14169 4.99546 4.31766 4.9007 4.31766C4.80595 4.31766 4.64351 4.23644 4.67058 4.20937" fill="#2C2E30"/>
<path fill-rule="evenodd" clip-rule="evenodd" d="M4.99546 4.27705C5.11728 4.22291 5.0496 4.12815 4.99546 4.10108C5.02253 4.12815 5.10375 4.23644 4.99546 4.27705Z" fill="#2C2E30"/>
<path fill-rule="evenodd" clip-rule="evenodd" d="M4.454 4.87265C4.454 4.87265 4.53522 4.84558 4.6029 4.84558C4.68412 4.84558 4.86009 4.96741 4.96838 4.9268C4.73827 5.03509 4.84656 4.95387 4.454 4.95387H4.39986" fill="#2C2E30"/>
<path fill-rule="evenodd" clip-rule="evenodd" d="M5.02253 5.02155C4.96838 4.94033 4.99546 4.96741 4.88716 4.84558C4.98192 4.9268 4.98192 4.95387 5.02253 5.02155Z" fill="#2C2E30"/>
<path fill-rule="evenodd" clip-rule="evenodd" d="M4.454 5.10277C4.68412 5.10277 4.65705 5.04862 4.96838 4.9268C4.73827 4.95387 4.68412 5.02155 4.454 5.02155H4.39986" fill="#2C2E30"/>
<path fill-rule="evenodd" clip-rule="evenodd" d="M4.454 4.73729C4.454 4.73729 4.53522 4.68314 4.6029 4.68314C4.68412 4.68314 4.77887 4.71022 4.83302 4.76436C4.86009 4.76436 4.80595 4.68314 4.73826 4.68314C4.65705 4.65607 4.68412 4.53424 4.6029 4.50717C4.6029 4.56132 4.62997 4.56132 4.62997 4.61546C4.62997 4.66961 4.54876 4.66961 4.52168 4.61546C4.54876 4.69668 4.46754 4.69668 4.44046 4.69668" fill="#2C2E30"/>
<path fill-rule="evenodd" clip-rule="evenodd" d="M3.66889 4.01986C3.72304 4.10108 3.77718 3.96571 4.0073 3.96571C4.26449 3.96571 4.29156 4.10108 4.34571 4.07401C4.37278 4.04693 4.14266 3.87096 4.06145 3.87096C3.98023 3.84389 3.75011 3.92511 3.68243 4.01986" fill="#2C2E30"/>
<path fill-rule="evenodd" clip-rule="evenodd" d="M3.93962 4.10108C3.8584 4.1823 3.91255 4.30412 3.99376 4.30412C4.07498 4.30412 4.19681 4.1823 4.12913 4.10108" fill="#2C2E30"/>
<path fill-rule="evenodd" clip-rule="evenodd" d="M4.25096 4.19583C4.25096 4.07401 4.14266 4.04693 3.99376 4.04693C3.84486 4.04693 3.76365 4.1823 3.7095 4.19583C3.79072 4.19583 3.83133 4.08754 3.99376 4.08754C4.1562 4.08754 4.14266 4.08754 4.25096 4.19583Z" fill="#2C2E30"/>
<path fill-rule="evenodd" clip-rule="evenodd" d="M4.22388 4.22291C4.22388 4.22291 4.14266 4.27705 4.02084 4.27705C3.91255 4.27705 3.87194 4.24998 3.79072 4.19583C3.73657 4.14169 3.89901 4.31766 3.99376 4.31766C4.12913 4.31766 4.25096 4.23644 4.22388 4.20937" fill="#2C2E30"/>
<path fill-rule="evenodd" clip-rule="evenodd" d="M3.89901 4.27705C3.76365 4.22291 3.84486 4.12815 3.89901 4.10108C3.87194 4.12815 3.79072 4.23644 3.89901 4.27705Z" fill="#2C2E30"/>
<path fill-rule="evenodd" clip-rule="evenodd" d="M4.454 4.87265C4.37278 4.87265 4.34571 4.84558 4.27803 4.84558C4.19681 4.84558 4.02084 4.96741 3.92608 4.9268C4.1562 5.03509 4.04791 4.95387 4.46754 4.95387H4.49461" fill="#2C2E30"/>
<path fill-rule="evenodd" clip-rule="evenodd" d="M3.87194 5.02155C3.92608 4.94033 3.92608 4.96741 4.0073 4.84558C3.92608 4.9268 3.89901 4.95387 3.87194 5.02155Z" fill="#2C2E30"/>
<path fill-rule="evenodd" clip-rule="evenodd" d="M4.454 5.10277C4.19681 5.10277 4.25096 5.04862 3.91255 4.9268C4.14266 4.95387 4.19681 5.02155 4.454 5.02155H4.48107" fill="#2C2E30"/>
<path fill-rule="evenodd" clip-rule="evenodd" d="M4.454 4.73729C4.37278 4.73729 4.34571 4.68314 4.27803 4.68314C4.19681 4.68314 4.10206 4.71022 4.04791 4.76436C4.02084 4.76436 4.07498 4.68314 4.1562 4.68314C4.23742 4.65607 4.21035 4.53424 4.29156 4.50717C4.29156 4.56132 4.26449 4.56132 4.26449 4.61546C4.26449 4.66961 4.34571 4.66961 4.37278 4.61546C4.34571 4.69668 4.42693 4.69668 4.48107 4.69668" fill="#2C2E30"/>
<path fill-rule="evenodd" clip-rule="evenodd" d="M4.454 5.19753C4.454 5.19753 4.27803 5.2246 4.454 5.2246C4.6029 5.2246 4.48107 5.19753 4.454 5.19753Z" fill="#2C2E30"/>
</g>
<defs>
<clipPath id="clip0_406_367">
<rect width="27.4382" height="16" fill="white"/>
</clipPath>
</defs>
</svg>
