<svg width="31" height="16" viewBox="0 0 31 16" fill="none" xmlns="http://www.w3.org/2000/svg">
<g clip-path="url(#clip0_406_361)">
<path d="M30.4 0H0V16H30.4V0Z" fill="#B22234"/>
<path d="M0 1.84619H30.4H0ZM30.4 4.30773H0H30.4ZM0 6.76927H30.4H0ZM30.4 9.23081H0H30.4ZM0 11.6923H30.4H0ZM30.4 14.1539H0H30.4Z" fill="black"/>
<path fill-rule="evenodd" clip-rule="evenodd" d="M30.4 2.46173H0V1.23096H30.4V2.46173ZM0 3.6925H30.4V4.92326H0V3.6925ZM30.4 7.3848H0V6.15403H30.4V7.3848ZM0 8.61557H30.4V9.84634H0V8.61557ZM30.4 12.3079H0V11.0771H30.4V12.3079ZM0 13.5386H30.4V14.7694H0V13.5386Z" fill="white"/>
<path d="M12.16 0H0V8.61539H12.16V0Z" fill="#3C3B6E"/>
<path d="M1.01313 0.369141L1.30251 1.25973L0.544922 0.709317H1.48135L0.723763 1.25973L1.01313 0.369141Z" fill="white"/>
<path d="M1.01313 2.09222L1.30251 2.98281L0.544922 2.43239H1.48135L0.723763 2.98281L1.01313 2.09222Z" fill="white"/>
<path d="M1.01313 3.81529L1.30251 4.70589L0.544922 4.15547H1.48135L0.723763 4.70589L1.01313 3.81529Z" fill="white"/>
<path d="M1.01313 5.53837L1.30251 6.42896L0.544922 5.87855H1.48135L0.723763 6.42896L1.01313 5.53837Z" fill="white"/>
<path d="M1.01313 7.26145L1.30251 8.15204L0.544922 7.60162H1.48135L0.723763 8.15204L1.01313 7.26145Z" fill="white"/>
<path d="M2.02647 1.23068L2.31584 2.12127L1.55826 1.57086H2.49468L1.7371 2.12127L2.02647 1.23068Z" fill="white"/>
<path d="M2.02647 2.95376L2.31584 3.84435L1.55826 3.29393H2.49468L1.7371 3.84435L2.02647 2.95376Z" fill="white"/>
<path d="M2.02647 4.67683L2.31584 5.56743L1.55826 5.01701H2.49468L1.7371 5.56743L2.02647 4.67683Z" fill="white"/>
<path d="M2.02647 6.39991L2.31584 7.2905L1.55826 6.74009H2.49468L1.7371 7.2905L2.02647 6.39991Z" fill="white"/>
<path d="M3.0398 0.369141L3.32917 1.25973L2.57159 0.709317H3.50801L2.75043 1.25973L3.0398 0.369141Z" fill="white"/>
<path d="M3.0398 2.09222L3.32917 2.98281L2.57159 2.43239H3.50801L2.75043 2.98281L3.0398 2.09222Z" fill="white"/>
<path d="M3.0398 3.81529L3.32917 4.70589L2.57159 4.15547H3.50801L2.75043 4.70589L3.0398 3.81529Z" fill="white"/>
<path d="M3.0398 5.53837L3.32917 6.42896L2.57159 5.87855H3.50801L2.75043 6.42896L3.0398 5.53837Z" fill="white"/>
<path d="M3.0398 7.26145L3.32917 8.15204L2.57159 7.60162H3.50801L2.75043 8.15204L3.0398 7.26145Z" fill="white"/>
<path d="M4.05313 1.23068L4.34251 2.12127L3.58492 1.57086H4.52135L3.76376 2.12127L4.05313 1.23068Z" fill="white"/>
<path d="M4.05313 2.95376L4.34251 3.84435L3.58492 3.29393H4.52135L3.76376 3.84435L4.05313 2.95376Z" fill="white"/>
<path d="M4.05313 4.67683L4.34251 5.56743L3.58492 5.01701H4.52135L3.76376 5.56743L4.05313 4.67683Z" fill="white"/>
<path d="M4.05313 6.39991L4.34251 7.2905L3.58492 6.74009H4.52135L3.76376 7.2905L4.05313 6.39991Z" fill="white"/>
<path d="M5.06647 0.369141L5.35584 1.25973L4.59826 0.709317H5.53468L4.7771 1.25973L5.06647 0.369141Z" fill="white"/>
<path d="M5.06647 2.09222L5.35584 2.98281L4.59826 2.43239H5.53468L4.7771 2.98281L5.06647 2.09222Z" fill="white"/>
<path d="M5.06647 3.81529L5.35584 4.70589L4.59826 4.15547H5.53468L4.7771 4.70589L5.06647 3.81529Z" fill="white"/>
<path d="M5.06647 5.53837L5.35584 6.42896L4.59826 5.87855H5.53468L4.7771 6.42896L5.06647 5.53837Z" fill="white"/>
<path d="M5.06647 7.26145L5.35584 8.15204L4.59826 7.60162H5.53468L4.7771 8.15204L5.06647 7.26145Z" fill="white"/>
<path d="M6.0798 1.23068L6.36917 2.12127L5.61159 1.57086H6.54801L5.79043 2.12127L6.0798 1.23068Z" fill="white"/>
<path d="M6.0798 2.95376L6.36917 3.84435L5.61159 3.29393H6.54801L5.79043 3.84435L6.0798 2.95376Z" fill="white"/>
<path d="M6.0798 4.67683L6.36917 5.56743L5.61159 5.01701H6.54801L5.79043 5.56743L6.0798 4.67683Z" fill="white"/>
<path d="M6.0798 6.39991L6.36917 7.2905L5.61159 6.74009H6.54801L5.79043 7.2905L6.0798 6.39991Z" fill="white"/>
<path d="M7.09313 0.369141L7.38251 1.25973L6.62492 0.709317H7.56135L6.80376 1.25973L7.09313 0.369141Z" fill="white"/>
<path d="M7.09313 2.09222L7.38251 2.98281L6.62492 2.43239H7.56135L6.80376 2.98281L7.09313 2.09222Z" fill="white"/>
<path d="M7.09313 3.81529L7.38251 4.70589L6.62492 4.15547H7.56135L6.80376 4.70589L7.09313 3.81529Z" fill="white"/>
<path d="M7.09313 5.53837L7.38251 6.42896L6.62492 5.87855H7.56135L6.80376 6.42896L7.09313 5.53837Z" fill="white"/>
<path d="M7.09313 7.26145L7.38251 8.15204L6.62492 7.60162H7.56135L6.80376 8.15204L7.09313 7.26145Z" fill="white"/>
<path d="M8.10647 1.23068L8.39584 2.12127L7.63826 1.57086H8.57468L7.8171 2.12127L8.10647 1.23068Z" fill="white"/>
<path d="M8.10647 2.95376L8.39584 3.84435L7.63826 3.29393H8.57468L7.8171 3.84435L8.10647 2.95376Z" fill="white"/>
<path d="M8.10647 4.67683L8.39584 5.56743L7.63826 5.01701H8.57468L7.8171 5.56743L8.10647 4.67683Z" fill="white"/>
<path d="M8.10647 6.39991L8.39584 7.2905L7.63826 6.74009H8.57468L7.8171 7.2905L8.10647 6.39991Z" fill="white"/>
<path d="M9.1198 0.369141L9.40917 1.25973L8.65159 0.709317H9.58801L8.83043 1.25973L9.1198 0.369141Z" fill="white"/>
<path d="M9.1198 2.09222L9.40917 2.98281L8.65159 2.43239H9.58801L8.83043 2.98281L9.1198 2.09222Z" fill="white"/>
<path d="M9.1198 3.81529L9.40917 4.70589L8.65159 4.15547H9.58801L8.83043 4.70589L9.1198 3.81529Z" fill="white"/>
<path d="M9.1198 5.53837L9.40917 6.42896L8.65159 5.87855H9.58801L8.83043 6.42896L9.1198 5.53837Z" fill="white"/>
<path d="M9.1198 7.26145L9.40917 8.15204L8.65159 7.60162H9.58801L8.83043 8.15204L9.1198 7.26145Z" fill="white"/>
<path d="M10.1331 1.23068L10.4225 2.12127L9.66492 1.57086H10.6013L9.84376 2.12127L10.1331 1.23068Z" fill="white"/>
<path d="M10.1331 2.95376L10.4225 3.84435L9.66492 3.29393H10.6013L9.84376 3.84435L10.1331 2.95376Z" fill="white"/>
<path d="M10.1331 4.67683L10.4225 5.56743L9.66492 5.01701H10.6013L9.84376 5.56743L10.1331 4.67683Z" fill="white"/>
<path d="M10.1331 6.39991L10.4225 7.2905L9.66492 6.74009H10.6013L9.84376 7.2905L10.1331 6.39991Z" fill="white"/>
<path d="M11.1465 0.369141L11.4358 1.25973L10.6783 0.709317H11.6147L10.8571 1.25973L11.1465 0.369141Z" fill="white"/>
<path d="M11.1465 2.09222L11.4358 2.98281L10.6783 2.43239H11.6147L10.8571 2.98281L11.1465 2.09222Z" fill="white"/>
<path d="M11.1465 3.81529L11.4358 4.70589L10.6783 4.15547H11.6147L10.8571 4.70589L11.1465 3.81529Z" fill="white"/>
<path d="M11.1465 5.53837L11.4358 6.42896L10.6783 5.87855H11.6147L10.8571 6.42896L11.1465 5.53837Z" fill="white"/>
<path d="M11.1465 7.26145L11.4358 8.15204L10.6783 7.60162H11.6147L10.8571 8.15204L11.1465 7.26145Z" fill="white"/>
</g>
<defs>
<clipPath id="clip0_406_361">
<rect width="30.4" height="16" fill="white"/>
</clipPath>
</defs>
</svg>
